<?xml version="1.0" encoding="utf-8"?>
<!-- Generator: Adobe Illustrator 22.1.0, SVG Export Plug-In . SVG Version: 6.00 Build 0)  -->
<svg version="1.1" id="Capa_1" xmlns="http://www.w3.org/2000/svg" xmlns:xlink="http://www.w3.org/1999/xlink" x="0px" y="0px"
	 viewBox="0 0 93 93" style="enable-background:new 0 0 93 93;" xml:space="preserve">
<style type="text/css">
	.st0{fill:none;stroke:#6F6F6E;stroke-linecap:round;stroke-linejoin:round;stroke-dasharray:0,3.011;}
	.st1{fill:none;stroke:#6F6F6E;stroke-linecap:round;stroke-linejoin:round;}
	.st2{fill:#010000;}
</style>
<g>
	<path class="st0" d="M49.5,92.4C73,90.9,91.7,71.7,92.5,48"/>
	<path class="st0" d="M92.4,43.5C90.9,20,71.7,1.3,48,0.5"/>
	<path class="st0" d="M43.5,0.6C20,2.1,1.3,21.3,0.5,45"/>
	<path class="st0" d="M0.6,49.5C2.1,73,21.3,91.7,45,92.5"/>
	<path class="st1" d="M46.5,92.5L46.5,92.5 M0.5,46.5L0.5,46.5 M46.5,0.5L46.5,0.5 M92.5,46.5L92.5,46.5"/>
	<path class="st2" d="M78.5,54.3C78.5,54.3,78.5,54.3,78.5,54.3c-0.7-0.2-1.3,0.2-1.5,0.9c-4,16.9-21,27.3-37.9,23.2
		c-9.3-2.2-17-8.5-21.1-17.1l-2.4,0.5c7.7,17,27.7,24.6,44.7,16.9c9.5-4.3,16.5-12.8,18.9-22.9C79.5,55.1,79.1,54.5,78.5,54.3"/>
	<path class="st2" d="M15.3,57l-4.8,1l1.5-4.6l1.5-4.6l3.2,3.6l3.3,3.6L15.3,57z M23.5,56.5c0-0.2-0.1-0.4-0.3-0.6l-4.6-5.2
		l-4.6-5.1c-0.4-0.5-1.1-0.6-1.7-0.2c-0.2,0.1-0.3,0.3-0.4,0.6l-2.2,6.6l-2.2,6.6c-0.2,0.6,0.1,1.3,0.8,1.5c0.2,0.1,0.4,0.1,0.6,0
		l6.8-1.4l6.8-1.4C23.2,57.8,23.6,57.2,23.5,56.5"/>
	<path class="st2" d="M80.9,42.4L79.4,47l-3.2-3.6l-3.3-3.6l4.8-1l4.8-1L80.9,42.4z M85.3,35.9c-0.1-0.6-0.8-1.1-1.4-0.9l-6.8,1.4
		l-6.8,1.4c-0.6,0.1-1.1,0.7-0.9,1.4c0,0.2,0.1,0.4,0.3,0.6l4.6,5.2l4.6,5.1c0.4,0.5,1.1,0.6,1.7,0.2c0.2-0.1,0.3-0.3,0.4-0.6
		l2.2-6.6l2.2-6.6C85.4,36.3,85.4,36.1,85.3,35.9"/>
	<path class="st2" d="M32.6,17.1C23.1,21.4,16.1,29.8,13.6,40c-0.2,0.6,0.2,1.3,0.8,1.5c0.6,0.2,1.3-0.2,1.5-0.8c0,0,0-0.1,0-0.1
		c4-16.9,21-27.3,37.9-23.2c9.3,2.2,17,8.5,21.1,17.1l2.4-0.5C69.6,16.9,49.6,9.4,32.6,17.1"/>
	<path class="st2" d="M46.9,45.1c-0.3,0.6-0.1,1.3,0.5,1.6c0.2,0.1,0.4,0.1,0.5,0.1h6.3L39.4,64.2l3.9-15c0.2-0.6-0.2-1.3-0.9-1.4
		c-0.1,0-0.2,0-0.3,0h-5.2l6.4-19.6h12.5L46.9,45.1z M58.9,26.9c0-0.7-0.5-1.2-1.2-1.2H42.4c-0.5,0-1,0.3-1.1,0.8l-7.1,21.9
		c-0.2,0.6,0,1.3,0.6,1.5c0.1,0.1,0.3,0.1,0.5,0.1h5.4l-4.7,18.3c-0.2,0.6,0.1,1.3,0.7,1.5c0.5,0.2,1,0,1.3-0.3l19.9-23.1
		c0.5-0.5,0.4-1.2,0-1.7c-0.2-0.2-0.5-0.3-0.9-0.3h-7l8.8-16.9C58.9,27.4,58.9,27.2,58.9,26.9"/>
</g>
</svg>
