<?xml version="1.0" encoding="utf-8"?>
<!-- Generator: Adobe Illustrator 22.1.0, SVG Export Plug-In . SVG Version: 6.00 Build 0)  -->
<svg version="1.1" id="Capa_1" xmlns="http://www.w3.org/2000/svg" xmlns:xlink="http://www.w3.org/1999/xlink" x="0px" y="0px"
	 viewBox="0 0 296.5 248.5" style="enable-background:new 0 0 296.5 248.5;" xml:space="preserve">
<style type="text/css">
	.st0{fill:#9C999F;}
</style>
<g>
	<g>
		<path class="st0" d="M175,243c-0.6,0-1-0.4-1-1s0.4-1,1-1c65.9,0,119.5-53.6,119.5-119.5S240.9,2,175,2l-0.5,0c-0.5,0-1-0.4-1-1
			s0.4-1,1-1l0.5,0c67,0,121.5,54.5,121.5,121.5S242,243,175,243z"/>
	</g>
	<path class="st0" d="M234.6,122.8c-10-5-27.5-11.8-28.2-12.1l-0.4-0.2V99.2c1.4-1,2.7-2.2,3.9-3.5c10.1-11,9.2-27.1,9.1-28.8v-7.1
		c1.9-0.8,3.3-1.8,4.3-3.1c1.4-1.9,1.4-3.6,1.2-4.5C224.4,48.8,222.1,16,183,16c-12.9,0-22.9,3.7-29.6,11c-9.7,10.5-9,24.8-8.9,26.5
		c-0.1,2.3-0.1,11.5,4.5,14.8c0,4.5,0.9,17.8,9.9,27.3c1.3,1.3,2.7,2.5,4.1,3.6v11.2l-29.6,14.3c-0.3,0.1-3.9,2-6.9,6
		c-0.2,0.1-0.4,0.2-0.6,0.4c-0.5,0.5-0.8,1.1-0.8,1.7c-1.7,2.9-3,6.6-3,11.2v56c0,1.4,1.1,2.5,2.5,2.5s2.5-1.1,2.5-2.5v-56
		c0-2.5,0.5-4.6,1.2-6.5L145,156v44c0,1.4,1.1,2.5,2.5,2.5s2.5-1.1,2.5-2.5v-45c0-0.6-0.2-1.2-0.7-1.7L131,133.1
		c2.2-2.6,4.5-3.8,4.6-3.8L163,116l19,19v65c0,1.4,1.1,2.5,2.5,2.5s2.5-1.1,2.5-2.5v-65l19.1-19.1c4.5,1.8,18.2,7.3,26.3,11.3
		c2.6,1.3,4.4,3.3,5.7,5.4l-19.4,21.7c-0.4,0.5-0.6,1.1-0.6,1.7v44c0,1.4,1.1,2.5,2.5,2.5s2.5-1.1,2.5-2.5v-43l17.2-19.2
		c0.8,2.9,0.8,5.2,0.8,5.3v57c0,1.4,1.1,2.5,2.5,2.5s2.5-1.1,2.5-2.5v-57C246,142.4,245.9,128.4,234.6,122.8z M154,69.4
		c4-0.8,8-4.9,10.9-8.3c0.9-1.1,0.8-2.6-0.3-3.5c-1.1-0.9-2.6-0.8-3.5,0.3c-6.3,7.4-8.7,6.7-8.9,6.6c-1.8-0.7-2.8-6.3-2.7-10.9
		l0-0.2l0-0.1c0-0.1-1-13.6,7.6-22.9c5.7-6.2,14.4-9.4,25.9-9.4c36,0,36.5,30.2,36.5,31.5l-0.2,0.2l0.2,0.4c0,0.1-0.1,0.4-0.4,0.8
		C218.2,54.8,215,57,204,57c-18.7,0-34.1-13.2-34.4-13.4c-1-0.9-2.6-0.8-3.5,0.2c-0.9,1-0.8,2.6,0.2,3.5C167,48,183.3,62,204,62
		c3.9,0,7.2-0.3,10-0.8V67l0,0.2c0,0.2,1.2,15.4-7.8,25.1c-5,5.4-12.3,8.2-21.7,8.2c-6.9,0-12.8-1.5-17.5-4.5
		c-0.1-0.1-0.3-0.2-0.4-0.3c-1.5-1-2.9-2.2-4.1-3.5C155.4,84.8,154.2,74.1,154,69.4z M167.9,113.8c0.1-0.3,0.1-0.5,0.1-0.8v-10.8
		c4.7,2.2,10.2,3.3,16.5,3.3c6.3,0,11.8-1.1,16.5-3.3V113c0,0.3,0.1,0.6,0.1,0.8l-16.6,16.6L167.9,113.8z"/>
	<circle class="st0" cx="84.5" cy="65" r="3.5"/>
	<circle class="st0" cx="84.5" cy="203" r="3.5"/>
	<circle class="st0" cx="63.5" cy="98" r="3.5"/>
	<circle class="st0" cx="63.5" cy="124" r="3.5"/>
	<circle class="st0" cx="63.5" cy="154" r="3.5"/>
	<circle class="st0" cx="63.5" cy="183" r="3.5"/>
	<g>
		<g>
			<path class="st0" d="M3.5,18.5H1c-0.6,0-1-0.4-1-1s0.4-1,1-1h2.5c0.6,0,1,0.4,1,1S4.1,18.5,3.5,18.5z"/>
		</g>
		<g>
			<path class="st0" d="M73.4,55.9c-0.3,0-0.5-0.1-0.7-0.3l-3.4-3.4c-0.4-0.4-0.4-1,0-1.4s1-0.4,1.4,0l3.4,3.4c0.4,0.4,0.4,1,0,1.4
				C73.9,55.8,73.6,55.9,73.4,55.9z M66.7,49.2c-0.3,0-0.5-0.1-0.7-0.3l-3.4-3.4c-0.4-0.4-0.4-1,0-1.4s1-0.4,1.4,0l3.4,3.4
				c0.4,0.4,0.4,1,0,1.4C67.2,49.1,66.9,49.2,66.7,49.2z M60,42.5c-0.3,0-0.5-0.1-0.7-0.3l-3.4-3.4c-0.4-0.4-0.4-1,0-1.4
				s1-0.4,1.4,0l3.4,3.4c0.4,0.4,0.4,1,0,1.4C60.5,42.4,60.2,42.5,60,42.5z M53.3,35.8c-0.3,0-0.5-0.1-0.7-0.3l-3.4-3.4
				c-0.4-0.4-0.4-1,0-1.4s1-0.4,1.4,0l3.4,3.4c0.4,0.4,0.4,1,0,1.4C53.8,35.7,53.5,35.8,53.3,35.8z M46.6,29.1
				c-0.3,0-0.5-0.1-0.7-0.3l-3.4-3.4c-0.4-0.4-0.4-1,0-1.4s1-0.4,1.4,0l3.4,3.4c0.4,0.4,0.4,1,0,1.4C47.1,29,46.8,29.1,46.6,29.1z
				 M39.8,22.3c-0.3,0-0.5-0.1-0.7-0.3l-3.4-3.4c-0.4-0.4-0.4-1,0-1.4s1-0.4,1.4,0l3.4,3.4c0.4,0.4,0.4,1,0,1.4
				C40.4,22.2,40.1,22.3,39.8,22.3z M32,18.5h-4.7c-0.6,0-1-0.4-1-1s0.4-1,1-1H32c0.6,0,1,0.4,1,1S32.5,18.5,32,18.5z M22.5,18.5
				h-4.7c-0.6,0-1-0.4-1-1s0.4-1,1-1h4.7c0.6,0,1,0.4,1,1S23,18.5,22.5,18.5z M13,18.5H8.2c-0.6,0-1-0.4-1-1s0.4-1,1-1H13
				c0.6,0,1,0.4,1,1S13.5,18.5,13,18.5z"/>
		</g>
		<g>
			<path class="st0" d="M78.5,61c-0.3,0-0.5-0.1-0.7-0.3L76,58.9c-0.4-0.4-0.4-1,0-1.4s1-0.4,1.4,0l1.8,1.8c0.4,0.4,0.4,1,0,1.4
				C79,60.9,78.8,61,78.5,61z"/>
		</g>
	</g>
	<g>
		<g>
			<path class="st0" d="M3.5,78.5H1c-0.6,0-1-0.4-1-1s0.4-1,1-1h2.5c0.6,0,1,0.4,1,1S4.1,78.5,3.5,78.5z"/>
		</g>
		<g>
			<path class="st0" d="M53.1,89.3c-0.2,0-0.5-0.1-0.7-0.3l-4-3.6c-0.4-0.4-0.4-1-0.1-1.4c0.4-0.4,1-0.4,1.4-0.1l4,3.6
				c0.4,0.4,0.4,1,0.1,1.4C53.7,89.2,53.4,89.3,53.1,89.3z M45.1,82.1c-0.2,0-0.5-0.1-0.7-0.3l-4-3.6c-0.4-0.4-0.4-1-0.1-1.4
				c0.4-0.4,1-0.5,1.4-0.1l4,3.6c0.4,0.4,0.4,1,0.1,1.4C45.6,82,45.4,82.1,45.1,82.1z M35.7,78.5h-5.4c-0.6,0-1-0.4-1-1s0.4-1,1-1
				h5.4c0.6,0,1,0.4,1,1S36.3,78.5,35.7,78.5z M25,78.5h-5.4c-0.6,0-1-0.4-1-1s0.4-1,1-1H25c0.6,0,1,0.4,1,1S25.5,78.5,25,78.5z
				 M14.2,78.5H8.9c-0.6,0-1-0.4-1-1s0.4-1,1-1h5.4c0.6,0,1,0.4,1,1S14.8,78.5,14.2,78.5z"/>
		</g>
		<g>
			<path class="st0" d="M59,94.5c-0.2,0-0.5-0.1-0.7-0.3l-1.9-1.7c-0.4-0.4-0.4-1-0.1-1.4c0.4-0.4,1-0.4,1.4-0.1l1.9,1.7
				c0.4,0.4,0.4,1,0.1,1.4C59.5,94.4,59.3,94.5,59,94.5z"/>
		</g>
	</g>
	<g>
		<g>
			<path class="st0" d="M3.5,124.5H1c-0.6,0-1-0.4-1-1s0.4-1,1-1h2.5c0.6,0,1,0.4,1,1S4.1,124.5,3.5,124.5z"/>
		</g>
		<g>
			<path class="st0" d="M50.8,124.5H46c-0.6,0-1-0.4-1-1s0.4-1,1-1h4.7c0.6,0,1,0.4,1,1S51.3,124.5,50.8,124.5z M41.3,124.5h-4.7
				c-0.6,0-1-0.4-1-1s0.4-1,1-1h4.7c0.6,0,1,0.4,1,1S41.9,124.5,41.3,124.5z M31.9,124.5h-4.7c-0.6,0-1-0.4-1-1s0.4-1,1-1h4.7
				c0.6,0,1,0.4,1,1S32.4,124.5,31.9,124.5z M22.4,124.5h-4.7c-0.6,0-1-0.4-1-1s0.4-1,1-1h4.7c0.6,0,1,0.4,1,1S23,124.5,22.4,124.5z
				 M13,124.5H8.2c-0.6,0-1-0.4-1-1s0.4-1,1-1H13c0.6,0,1,0.4,1,1S13.5,124.5,13,124.5z"/>
		</g>
		<g>
			<path class="st0" d="M58,124.5h-2.5c-0.6,0-1-0.4-1-1s0.4-1,1-1H58c0.6,0,1,0.4,1,1S58.6,124.5,58,124.5z"/>
		</g>
	</g>
	<g>
		<g>
			<path class="st0" d="M4.5,155.5H2c-0.6,0-1-0.4-1-1s0.4-1,1-1h2.5c0.6,0,1,0.4,1,1S5.1,155.5,4.5,155.5z"/>
		</g>
		<g>
			<path class="st0" d="M50.9,155.5h-4.6c-0.6,0-1-0.4-1-1s0.4-1,1-1h4.6c0.6,0,1,0.4,1,1S51.4,155.5,50.9,155.5z M41.6,155.5H37
				c-0.6,0-1-0.4-1-1s0.4-1,1-1h4.6c0.6,0,1,0.4,1,1S42.1,155.5,41.6,155.5z M32.3,155.5h-4.6c-0.6,0-1-0.4-1-1s0.4-1,1-1h4.6
				c0.6,0,1,0.4,1,1S32.9,155.5,32.3,155.5z M23,155.5h-4.6c-0.6,0-1-0.4-1-1s0.4-1,1-1H23c0.6,0,1,0.4,1,1S23.6,155.5,23,155.5z
				 M13.8,155.5H9.1c-0.6,0-1-0.4-1-1s0.4-1,1-1h4.6c0.6,0,1,0.4,1,1S14.3,155.5,13.8,155.5z"/>
		</g>
		<g>
			<path class="st0" d="M58,155.5h-2.5c-0.6,0-1-0.4-1-1s0.4-1,1-1H58c0.6,0,1,0.4,1,1S58.6,155.5,58,155.5z"/>
		</g>
	</g>
	<g>
		<g>
			<path class="st0" d="M4.5,203.5H2c-0.6,0-1-0.4-1-1s0.4-1,1-1h2.5c0.6,0,1,0.4,1,1S5.1,203.5,4.5,203.5z"/>
		</g>
		<g>
			<path class="st0" d="M41,203.5c-0.6,0-1-0.4-1-1c0-0.3,0.1-0.6,0.4-0.8l3.7-3.5c0.4-0.4,1-0.4,1.4,0c0.4,0.4,0.4,1,0,1.4
				l-3.8,3.6C41.5,203.4,41.3,203.5,41,203.5z M35.8,203.5h-5.2c-0.6,0-1-0.4-1-1s0.4-1,1-1h5.2c0.6,0,1,0.4,1,1
				S36.3,203.5,35.8,203.5z M25.4,203.5h-5.2c-0.6,0-1-0.4-1-1s0.4-1,1-1h5.2c0.6,0,1,0.4,1,1S25.9,203.5,25.4,203.5z M14.9,203.5
				H9.7c-0.6,0-1-0.4-1-1s0.4-1,1-1h5.2c0.6,0,1,0.4,1,1S15.5,203.5,14.9,203.5z M48.6,196.4c-0.3,0-0.5-0.1-0.7-0.3
				c-0.4-0.4-0.4-1,0-1.4l3.8-3.6c0.4-0.4,1-0.4,1.4,0c0.4,0.4,0.4,1,0,1.4l-3.8,3.6C49.1,196.3,48.8,196.4,48.6,196.4z"/>
		</g>
		<g>
			<path class="st0" d="M56.2,189.2c-0.3,0-0.5-0.1-0.7-0.3c-0.4-0.4-0.4-1,0-1.4l1.8-1.7c0.4-0.4,1-0.4,1.4,0c0.4,0.4,0.4,1,0,1.4
				l-1.8,1.7C56.7,189.1,56.4,189.2,56.2,189.2z"/>
		</g>
	</g>
	<g>
		<g>
			<path class="st0" d="M4.5,248.5H2c-0.6,0-1-0.4-1-1s0.4-1,1-1h2.5c0.6,0,1,0.4,1,1S5.1,248.5,4.5,248.5z"/>
		</g>
		<g>
			<path class="st0" d="M35.6,248.5h-5.2c-0.6,0-1-0.4-1-1s0.4-1,1-1h5.2c0.6,0,1,0.4,1,1S36.1,248.5,35.6,248.5z M25.2,248.5H20
				c-0.6,0-1-0.4-1-1s0.4-1,1-1h5.2c0.6,0,1,0.4,1,1S25.8,248.5,25.2,248.5z M14.9,248.5H9.7c-0.6,0-1-0.4-1-1s0.4-1,1-1h5.2
				c0.6,0,1,0.4,1,1S15.4,248.5,14.9,248.5z M39.6,245.9c-0.3,0-0.5-0.1-0.7-0.3c-0.4-0.4-0.4-1,0-1.4l3.7-3.7c0.4-0.4,1-0.4,1.4,0
				s0.4,1,0,1.4l-3.7,3.7C40.1,245.8,39.9,245.9,39.6,245.9z M47,238.5c-0.3,0-0.5-0.1-0.7-0.3c-0.4-0.4-0.4-1,0-1.4l3.7-3.7
				c0.4-0.4,1-0.4,1.4,0s0.4,1,0,1.4l-3.7,3.7C47.5,238.4,47.2,238.5,47,238.5z M54.3,231.2c-0.3,0-0.5-0.1-0.7-0.3
				c-0.4-0.4-0.4-1,0-1.4l3.7-3.7c0.4-0.4,1-0.4,1.4,0s0.4,1,0,1.4l-3.7,3.7C54.8,231.1,54.5,231.2,54.3,231.2z M61.6,223.9
				c-0.3,0-0.5-0.1-0.7-0.3c-0.4-0.4-0.4-1,0-1.4l3.7-3.7c0.4-0.4,1-0.4,1.4,0s0.4,1,0,1.4l-3.7,3.7
				C62.1,223.8,61.8,223.9,61.6,223.9z M68.9,216.6c-0.3,0-0.5-0.1-0.7-0.3c-0.4-0.4-0.4-1,0-1.4l3.7-3.7c0.4-0.4,1-0.4,1.4,0
				s0.4,1,0,1.4l-3.7,3.7C69.4,216.5,69.2,216.6,68.9,216.6z"/>
		</g>
		<g>
			<path class="st0" d="M76.2,209.3c-0.3,0-0.5-0.1-0.7-0.3c-0.4-0.4-0.4-1,0-1.4l1.8-1.8c0.4-0.4,1-0.4,1.4,0s0.4,1,0,1.4l-1.8,1.8
				C76.7,209.2,76.5,209.3,76.2,209.3z"/>
		</g>
	</g>
</g>
</svg>
