<?xml version="1.0" encoding="utf-8"?>
<!-- Generator: Adobe Illustrator 22.1.0, SVG Export Plug-In . SVG Version: 6.00 Build 0)  -->
<svg version="1.1" id="Capa_1" xmlns="http://www.w3.org/2000/svg" xmlns:xlink="http://www.w3.org/1999/xlink" x="0px" y="0px"
	 viewBox="0 0 663.5 212.1" style="enable-background:new 0 0 663.5 212.1;" xml:space="preserve">
<style type="text/css">
	.st0{fill:#C6C6C5;}
	.st1{fill:none;stroke:#C6C6C5;stroke-width:5;stroke-linecap:round;stroke-linejoin:round;}
	.st2{fill:#3C3C3B;}
	.st3{fill:#006EC6;}
	.st4{fill:#ECECEC;}
	.st5{fill:#9A979C;}
</style>
<g>
	<g>
		<path class="st0" d="M160.4,179.6H101c-1.4,0-2.5-1.1-2.5-2.5v-39.8c0-1.4,1.1-2.5,2.5-2.5h59.4c1.4,0,2.5,1.1,2.5,2.5v39.8
			C162.9,178.5,161.8,179.6,160.4,179.6z M103.5,174.6h54.4v-34.8h-54.4V174.6z"/>
	</g>
	<g>
		<path class="st0" d="M449.5,179.6h-59.4c-1.4,0-2.5-1.1-2.5-2.5v-39.8c0-1.4,1.1-2.5,2.5-2.5h59.4c1.4,0,2.5,1.1,2.5,2.5v39.8
			C452,178.5,450.9,179.6,449.5,179.6z M392.6,174.6H447v-34.8h-54.4V174.6z"/>
	</g>
	<g>
		<rect x="197.3" y="137.3" class="st0" width="59.4" height="39.8"/>
	</g>
	<rect x="197.3" y="137.3" class="st1" width="59.4" height="39.8"/>
	<g>
		<path class="st0" d="M545.7,179.6h-59.4c-1.4,0-2.5-1.1-2.5-2.5v-39.8c0-1.4,1.1-2.5,2.5-2.5h59.4c1.4,0,2.5,1.1,2.5,2.5v39.8
			C548.2,178.5,547.1,179.6,545.7,179.6z M488.8,174.6h54.4v-34.8h-54.4V174.6z"/>
	</g>
	<g>
		<path class="st0" d="M353.1,179.6h-59.4c-1.4,0-2.5-1.1-2.5-2.5v-39.8c0-1.4,1.1-2.5,2.5-2.5h59.4c1.4,0,2.5,1.1,2.5,2.5v39.8
			C355.6,178.5,354.5,179.6,353.1,179.6z M296.2,174.6h54.4v-34.8h-54.4V174.6z"/>
	</g>
	<g>
		<path class="st0" d="M642,179.6h-59.4c-1.4,0-2.5-1.1-2.5-2.5v-39.8c0-1.4,1.1-2.5,2.5-2.5H642c1.4,0,2.5,1.1,2.5,2.5v39.8
			C644.5,178.5,643.4,179.6,642,179.6z M585.1,174.6h54.4v-34.8h-54.4V174.6z"/>
	</g>
	<g>
		<path class="st2" d="M111.2,119.8h0.7v3.1c-0.4,0.3-0.9,0.6-1.4,0.8c-0.5,0.2-1.1,0.3-1.6,0.3c-0.8,0-1.5-0.2-2.2-0.6
			c-0.7-0.4-1.2-0.9-1.6-1.6c-0.4-0.7-0.6-1.4-0.6-2.1s0.2-1.5,0.6-2.1s0.9-1.2,1.6-1.5c0.7-0.4,1.4-0.6,2.2-0.6
			c0.6,0,1.1,0.1,1.6,0.3c0.5,0.2,1,0.5,1.4,0.8l-0.5,0.6c-0.3-0.3-0.7-0.6-1.2-0.7c-0.4-0.2-0.9-0.3-1.4-0.3
			c-0.6,0-1.2,0.2-1.8,0.5c-0.5,0.3-1,0.7-1.3,1.3c-0.3,0.5-0.5,1.1-0.5,1.8c0,0.6,0.2,1.2,0.5,1.8c0.3,0.5,0.8,1,1.3,1.3
			s1.1,0.5,1.8,0.5c0.4,0,0.8-0.1,1.2-0.2c0.4-0.1,0.8-0.3,1.1-0.6V119.8z"/>
		<path class="st2" d="M118.9,118.5c0.5,0.6,0.7,1.5,0.7,2.5h-5.2c0.1,0.7,0.3,1.2,0.7,1.6s1,0.6,1.6,0.6c0.4,0,0.8-0.1,1.1-0.2
			c0.3-0.1,0.6-0.3,0.9-0.6l0.5,0.5c-0.3,0.3-0.7,0.6-1.1,0.8c-0.4,0.2-0.9,0.3-1.4,0.3c-0.6,0-1.1-0.1-1.6-0.4s-0.8-0.6-1.1-1.1
			s-0.4-1-0.4-1.6c0-0.6,0.1-1.2,0.4-1.6c0.3-0.5,0.6-0.9,1.1-1.1c0.5-0.3,1-0.4,1.6-0.4C117.6,117.6,118.4,117.9,118.9,118.5z
			 M118.9,120.4c0-0.7-0.3-1.2-0.7-1.6s-0.9-0.6-1.6-0.6c-0.6,0-1.2,0.2-1.6,0.6c-0.4,0.4-0.7,0.9-0.7,1.6H118.9z"/>
		<path class="st2" d="M123,118c0.4-0.3,0.9-0.4,1.4-0.4v0.8c-0.7,0-1.2,0.2-1.6,0.6s-0.6,0.9-0.7,1.6v3.4h-0.8v-6.3h0.8v1.5
			C122.3,118.6,122.6,118.2,123,118z"/>
		<path class="st2" d="M135.4,118.2c0.4,0.4,0.6,1,0.6,1.8v3.9h-0.8v-3.7c0-0.6-0.2-1.1-0.5-1.4c-0.3-0.3-0.8-0.5-1.3-0.5
			c-0.7,0-1.2,0.2-1.6,0.7c-0.4,0.4-0.6,1-0.6,1.8v3.1h-0.8v-3.7c0-0.6-0.2-1.1-0.5-1.4c-0.3-0.3-0.8-0.5-1.3-0.5
			c-0.7,0-1.2,0.2-1.6,0.7c-0.4,0.4-0.6,1-0.6,1.8v3.1h-0.8v-6.3h0.8v1.5c0.2-0.5,0.5-0.9,0.9-1.1c0.4-0.2,0.9-0.4,1.5-0.4
			c0.6,0,1.1,0.1,1.5,0.4c0.4,0.3,0.7,0.7,0.8,1.2c0.2-0.6,0.5-1,0.9-1.3c0.4-0.3,1-0.4,1.6-0.4C134.5,117.6,135,117.8,135.4,118.2z
			"/>
		<path class="st2" d="M142.2,123.9l0-1.1c-0.2,0.4-0.6,0.6-1,0.8c-0.4,0.2-0.9,0.3-1.4,0.3c-0.4,0-0.8-0.1-1.1-0.2
			c-0.3-0.2-0.6-0.4-0.8-0.7c-0.2-0.3-0.3-0.6-0.3-1c0-0.5,0.2-1,0.6-1.3s1-0.5,1.7-0.5h2.1v-0.5c0-0.5-0.1-0.9-0.4-1.2
			s-0.7-0.4-1.3-0.4c-0.7,0-1.3,0.3-2,0.8l-0.4-0.6c0.4-0.3,0.8-0.5,1.2-0.7c0.4-0.1,0.8-0.2,1.3-0.2c0.8,0,1.3,0.2,1.8,0.6
			c0.4,0.4,0.6,0.9,0.6,1.6l0,4.2H142.2z M141.4,122.9c0.4-0.3,0.6-0.6,0.8-1.1v-0.9h-2c-0.6,0-1,0.1-1.3,0.3
			c-0.3,0.2-0.4,0.5-0.4,0.8c0,0.4,0.1,0.7,0.4,0.9c0.3,0.2,0.6,0.3,1.1,0.3C140.5,123.2,141,123.1,141.4,122.9z"/>
		<path class="st2" d="M150.2,118.2c0.4,0.4,0.6,1,0.6,1.8v3.9H150v-3.7c0-0.6-0.2-1.1-0.5-1.4s-0.8-0.5-1.4-0.5
			c-0.6,0-1.2,0.2-1.6,0.6c-0.4,0.4-0.6,0.9-0.7,1.6v3.4h-0.8v-6.3h0.8v1.5c0.2-0.5,0.5-0.9,1-1.1c0.4-0.2,0.9-0.4,1.5-0.4
			C149.1,117.6,149.7,117.8,150.2,118.2z"/>
		<path class="st2" d="M153.8,125.9c-0.3,0.2-0.7,0.4-1.1,0.4c-0.5,0-0.9-0.1-1.3-0.4l0.4-0.6c0.3,0.2,0.6,0.3,0.9,0.3
			c0.3,0,0.5-0.1,0.7-0.3c0.2-0.2,0.4-0.4,0.5-0.7l0.3-0.6l-2.6-6.3h0.9l2.2,5.4l2.1-5.4h0.8l-2.9,7.2
			C154.4,125.3,154.1,125.6,153.8,125.9z"/>
	</g>
	<g>
		<path class="st2" d="M124.5,161.1v0.7h-6v-0.7l3.3-3.5c0.4-0.4,0.7-0.8,0.9-1.2s0.3-0.7,0.3-1c0-0.4-0.2-0.8-0.5-1
			c-0.3-0.2-0.8-0.4-1.4-0.4c-0.4,0-0.8,0.1-1.2,0.3c-0.4,0.2-0.8,0.4-1.2,0.8l-0.4-0.6c0.4-0.4,0.9-0.6,1.4-0.8
			c0.5-0.2,1-0.3,1.5-0.3c0.8,0,1.4,0.2,1.9,0.6c0.5,0.4,0.7,0.9,0.7,1.5c0,0.4-0.1,0.8-0.4,1.3c-0.3,0.5-0.7,1-1.1,1.5l-2.8,2.9
			H124.5z"/>
		<path class="st2" d="M131.6,158.8v0.7h-1.3v2.3h-0.8v-2.3h-4.2v-0.7l3.2-5.4h0.8l-3.1,5.4h3.4v-2.4h0.8v2.4H131.6z"/>
		<path class="st2" d="M136.2,154c0.4,0.4,0.6,1.1,0.6,1.8s-0.2,1.4-0.6,1.8c-0.4,0.4-0.9,0.7-1.6,0.7c-0.7,0-1.2-0.2-1.6-0.7
			s-0.6-1-0.6-1.8s0.2-1.4,0.6-1.8c0.4-0.4,0.9-0.7,1.6-0.7C135.3,153.4,135.8,153.6,136.2,154z M133.5,154.4
			c-0.3,0.3-0.4,0.8-0.4,1.5c0,0.6,0.1,1.1,0.4,1.5c0.3,0.3,0.6,0.5,1.1,0.5c0.5,0,0.9-0.2,1.1-0.5c0.3-0.3,0.4-0.8,0.4-1.5
			s-0.1-1.1-0.4-1.5c-0.3-0.3-0.6-0.5-1.1-0.5C134.2,153.9,133.8,154,133.5,154.4z M140.4,153.4h0.7l-6.3,8.4H134L140.4,153.4z
			 M142.2,157.5c0.4,0.4,0.6,1,0.6,1.8s-0.2,1.4-0.6,1.8c-0.4,0.4-0.9,0.7-1.6,0.7c-0.7,0-1.2-0.2-1.6-0.7c-0.4-0.4-0.6-1-0.6-1.8
			s0.2-1.4,0.6-1.8s0.9-0.7,1.6-0.7C141.3,156.8,141.8,157.1,142.2,157.5z M139.5,157.9c-0.3,0.3-0.4,0.8-0.4,1.5
			c0,0.6,0.1,1.1,0.4,1.5c0.3,0.3,0.6,0.5,1.1,0.5c0.5,0,0.9-0.2,1.1-0.5c0.3-0.3,0.4-0.8,0.4-1.5s-0.1-1.1-0.4-1.5
			c-0.3-0.3-0.6-0.5-1.1-0.5C140.1,157.4,139.7,157.5,139.5,157.9z"/>
	</g>
	<g>
		<path class="st2" d="M219.5,161.1v0.7h-6v-0.7l3.3-3.5c0.4-0.4,0.7-0.8,0.9-1.2s0.3-0.7,0.3-1c0-0.4-0.2-0.8-0.5-1
			c-0.3-0.2-0.8-0.4-1.4-0.4c-0.4,0-0.8,0.1-1.2,0.3c-0.4,0.2-0.8,0.4-1.2,0.8l-0.4-0.6c0.4-0.4,0.9-0.6,1.4-0.8
			c0.5-0.2,1-0.3,1.5-0.3c0.8,0,1.4,0.2,1.9,0.6c0.5,0.4,0.7,0.9,0.7,1.5c0,0.4-0.1,0.8-0.4,1.3c-0.3,0.5-0.7,1-1.1,1.5l-2.8,2.9
			H219.5z"/>
		<path class="st2" d="M226.5,158.8v0.7h-1.3v2.3h-0.8v-2.3h-4.2v-0.7l3.2-5.4h0.8l-3.1,5.4h3.4v-2.4h0.8v2.4H226.5z"/>
		<path class="st2" d="M231.1,154c0.4,0.4,0.6,1.1,0.6,1.8s-0.2,1.4-0.6,1.8c-0.4,0.4-0.9,0.7-1.6,0.7c-0.7,0-1.2-0.2-1.6-0.7
			s-0.6-1-0.6-1.8s0.2-1.4,0.6-1.8c0.4-0.4,0.9-0.7,1.6-0.7C230.2,153.4,230.8,153.6,231.1,154z M228.4,154.4
			c-0.3,0.3-0.4,0.8-0.4,1.5c0,0.6,0.1,1.1,0.4,1.5c0.3,0.3,0.6,0.5,1.1,0.5c0.5,0,0.9-0.2,1.1-0.5c0.3-0.3,0.4-0.8,0.4-1.5
			s-0.1-1.1-0.4-1.5c-0.3-0.3-0.6-0.5-1.1-0.5C229.1,153.9,228.7,154,228.4,154.4z M235.3,153.4h0.7l-6.3,8.4H229L235.3,153.4z
			 M237.1,157.5c0.4,0.4,0.6,1,0.6,1.8s-0.2,1.4-0.6,1.8c-0.4,0.4-0.9,0.7-1.6,0.7c-0.7,0-1.2-0.2-1.6-0.7c-0.4-0.4-0.6-1-0.6-1.8
			s0.2-1.4,0.6-1.8s0.9-0.7,1.6-0.7C236.2,156.8,236.7,157.1,237.1,157.5z M234.4,157.9c-0.3,0.3-0.4,0.8-0.4,1.5
			c0,0.6,0.1,1.1,0.4,1.5c0.3,0.3,0.6,0.5,1.1,0.5c0.5,0,0.9-0.2,1.1-0.5c0.3-0.3,0.4-0.8,0.4-1.5s-0.1-1.1-0.4-1.5
			c-0.3-0.3-0.6-0.5-1.1-0.5C235,157.4,234.7,157.5,234.4,157.9z"/>
	</g>
	<g>
		<path class="st2" d="M317.2,161.1v0.7h-6v-0.7l3.3-3.5c0.4-0.4,0.7-0.8,0.9-1.2c0.2-0.4,0.3-0.7,0.3-1c0-0.4-0.2-0.8-0.5-1
			s-0.8-0.4-1.4-0.4c-0.4,0-0.8,0.1-1.2,0.3c-0.4,0.2-0.8,0.4-1.2,0.8l-0.4-0.6c0.4-0.4,0.9-0.6,1.4-0.8c0.5-0.2,1-0.3,1.5-0.3
			c0.8,0,1.4,0.2,1.9,0.6c0.5,0.4,0.7,0.9,0.7,1.5c0,0.4-0.1,0.8-0.4,1.3c-0.3,0.5-0.7,1-1.1,1.5l-2.8,2.9H317.2z"/>
		<path class="st2" d="M323.2,157.6c0.5,0.4,0.8,0.9,0.8,1.6c0,0.5-0.1,1-0.4,1.4s-0.6,0.7-1.1,0.9c-0.5,0.2-1.1,0.3-1.7,0.3
			c-0.5,0-1-0.1-1.5-0.2s-0.9-0.3-1.3-0.6l0.4-0.6c0.3,0.2,0.7,0.4,1.1,0.6c0.4,0.1,0.9,0.2,1.3,0.2c0.8,0,1.4-0.2,1.8-0.5
			c0.4-0.3,0.7-0.8,0.7-1.4s-0.2-1-0.7-1.3c-0.4-0.3-1-0.4-1.8-0.4h-1.1V157l2.9-2.9h-4.2v-0.7h5.2v0.6l-3,3l0.5,0
			C321.9,157,322.6,157.2,323.2,157.6z"/>
		<path class="st2" d="M328.8,154c0.4,0.4,0.6,1.1,0.6,1.8s-0.2,1.4-0.6,1.8s-0.9,0.7-1.6,0.7c-0.7,0-1.2-0.2-1.6-0.7
			s-0.6-1-0.6-1.8s0.2-1.4,0.6-1.8c0.4-0.4,0.9-0.7,1.6-0.7C328,153.4,328.5,153.6,328.8,154z M326.2,154.4
			c-0.3,0.3-0.4,0.8-0.4,1.5c0,0.6,0.1,1.1,0.4,1.5c0.3,0.3,0.6,0.5,1.1,0.5c0.5,0,0.9-0.2,1.1-0.5c0.3-0.3,0.4-0.8,0.4-1.5
			s-0.1-1.1-0.4-1.5c-0.3-0.3-0.6-0.5-1.1-0.5S326.4,154,326.2,154.4z M333,153.4h0.7l-6.3,8.4h-0.7L333,153.4z M334.8,157.5
			c0.4,0.4,0.6,1,0.6,1.8s-0.2,1.4-0.6,1.8c-0.4,0.4-0.9,0.7-1.6,0.7c-0.7,0-1.2-0.2-1.6-0.7c-0.4-0.4-0.6-1-0.6-1.8
			s0.2-1.4,0.6-1.8s0.9-0.7,1.6-0.7C333.9,156.8,334.4,157.1,334.8,157.5z M332.1,157.9c-0.3,0.3-0.4,0.8-0.4,1.5
			c0,0.6,0.1,1.1,0.4,1.5c0.3,0.3,0.6,0.5,1.1,0.5c0.5,0,0.9-0.2,1.1-0.5c0.3-0.3,0.4-0.8,0.4-1.5s-0.1-1.1-0.4-1.5
			c-0.3-0.3-0.6-0.5-1.1-0.5C332.8,157.4,332.4,157.5,332.1,157.9z"/>
	</g>
	<g>
		<path class="st2" d="M410,153.4h2.9v8.4H412v-7.7h-2V153.4z"/>
		<path class="st2" d="M419.8,157.6c0.5,0.4,0.8,0.9,0.8,1.6c0,0.5-0.1,1-0.4,1.4s-0.6,0.7-1.1,0.9c-0.5,0.2-1.1,0.3-1.7,0.3
			c-0.5,0-1-0.1-1.5-0.2s-0.9-0.3-1.3-0.6l0.4-0.6c0.3,0.2,0.7,0.4,1.1,0.6c0.4,0.1,0.9,0.2,1.3,0.2c0.8,0,1.4-0.2,1.8-0.5
			c0.4-0.3,0.7-0.8,0.7-1.4s-0.2-1-0.7-1.3c-0.4-0.3-1-0.4-1.8-0.4h-1.1V157l2.9-2.9h-4.2v-0.7h5.2v0.6l-3,3l0.5,0
			C418.6,157,419.3,157.2,419.8,157.6z"/>
		<path class="st2" d="M425.5,154c0.4,0.4,0.6,1.1,0.6,1.8s-0.2,1.4-0.6,1.8s-0.9,0.7-1.6,0.7c-0.7,0-1.2-0.2-1.6-0.7
			s-0.6-1-0.6-1.8s0.2-1.4,0.6-1.8c0.4-0.4,0.9-0.7,1.6-0.7C424.6,153.4,425.1,153.6,425.5,154z M422.8,154.4
			c-0.3,0.3-0.4,0.8-0.4,1.5c0,0.6,0.1,1.1,0.4,1.5c0.3,0.3,0.6,0.5,1.1,0.5c0.5,0,0.9-0.2,1.1-0.5c0.3-0.3,0.4-0.8,0.4-1.5
			s-0.1-1.1-0.4-1.5c-0.3-0.3-0.6-0.5-1.1-0.5S423.1,154,422.8,154.4z M429.6,153.4h0.7l-6.3,8.4h-0.7L429.6,153.4z M431.4,157.5
			c0.4,0.4,0.6,1,0.6,1.8s-0.2,1.4-0.6,1.8c-0.4,0.4-0.9,0.7-1.6,0.7c-0.7,0-1.2-0.2-1.6-0.7c-0.4-0.4-0.6-1-0.6-1.8
			s0.2-1.4,0.6-1.8s0.9-0.7,1.6-0.7C430.6,156.8,431.1,157.1,431.4,157.5z M428.8,157.9c-0.3,0.3-0.4,0.8-0.4,1.5
			c0,0.6,0.1,1.1,0.4,1.5c0.3,0.3,0.6,0.5,1.1,0.5c0.5,0,0.9-0.2,1.1-0.5c0.3-0.3,0.4-0.8,0.4-1.5s-0.1-1.1-0.4-1.5
			c-0.3-0.3-0.6-0.5-1.1-0.5C429.4,157.4,429,157.5,428.8,157.9z"/>
	</g>
	<g>
		<path class="st2" d="M505.2,153.4h2.9v8.4h-0.8v-7.7h-2V153.4z"/>
		<path class="st2" d="M515.9,161.1v0.7h-6v-0.7l3.3-3.5c0.4-0.4,0.7-0.8,0.9-1.2c0.2-0.4,0.3-0.7,0.3-1c0-0.4-0.2-0.8-0.5-1
			s-0.8-0.4-1.4-0.4c-0.4,0-0.8,0.1-1.2,0.3c-0.4,0.2-0.8,0.4-1.2,0.8l-0.4-0.6c0.4-0.4,0.9-0.6,1.4-0.8c0.5-0.2,1-0.3,1.5-0.3
			c0.8,0,1.4,0.2,1.9,0.6c0.5,0.4,0.7,0.9,0.7,1.5c0,0.4-0.1,0.8-0.4,1.3c-0.3,0.5-0.7,1-1.1,1.5l-2.8,2.9H515.9z"/>
		<path class="st2" d="M520.6,154c0.4,0.4,0.6,1.1,0.6,1.8s-0.2,1.4-0.6,1.8s-0.9,0.7-1.6,0.7c-0.7,0-1.2-0.2-1.6-0.7
			s-0.6-1-0.6-1.8s0.2-1.4,0.6-1.8c0.4-0.4,0.9-0.7,1.6-0.7C519.7,153.4,520.2,153.6,520.6,154z M517.9,154.4
			c-0.3,0.3-0.4,0.8-0.4,1.5c0,0.6,0.1,1.1,0.4,1.5c0.3,0.3,0.6,0.5,1.1,0.5c0.5,0,0.9-0.2,1.1-0.5c0.3-0.3,0.4-0.8,0.4-1.5
			s-0.1-1.1-0.4-1.5c-0.3-0.3-0.6-0.5-1.1-0.5S518.2,154,517.9,154.4z M524.8,153.4h0.7l-6.3,8.4h-0.7L524.8,153.4z M526.6,157.5
			c0.4,0.4,0.6,1,0.6,1.8s-0.2,1.4-0.6,1.8c-0.4,0.4-0.9,0.7-1.6,0.7c-0.7,0-1.2-0.2-1.6-0.7c-0.4-0.4-0.6-1-0.6-1.8
			s0.2-1.4,0.6-1.8s0.9-0.7,1.6-0.7C525.7,156.8,526.2,157.1,526.6,157.5z M523.9,157.9c-0.3,0.3-0.4,0.8-0.4,1.5
			c0,0.6,0.1,1.1,0.4,1.5c0.3,0.3,0.6,0.5,1.1,0.5c0.5,0,0.9-0.2,1.1-0.5c0.3-0.3,0.4-0.8,0.4-1.5s-0.1-1.1-0.4-1.5
			c-0.3-0.3-0.6-0.5-1.1-0.5C524.5,157.4,524.1,157.5,523.9,157.9z"/>
	</g>
	<g>
		<path class="st2" d="M600.6,153.4h2.9v8.4h-0.8v-7.7h-2V153.4z"/>
		<path class="st2" d="M611.9,154.5c0.6,0.7,0.9,1.8,0.9,3.1c0,1.4-0.3,2.4-0.9,3.1c-0.6,0.7-1.4,1.1-2.6,1.1c-1.1,0-2-0.4-2.5-1.1
			c-0.6-0.7-0.9-1.8-0.9-3.1c0-1.4,0.3-2.4,0.9-3.1c0.6-0.7,1.4-1.1,2.5-1.1C610.5,153.4,611.3,153.7,611.9,154.5z M607.4,154.9
			c-0.4,0.6-0.7,1.5-0.7,2.7c0,1.2,0.2,2.1,0.7,2.7c0.4,0.6,1.1,0.9,1.9,0.9c0.8,0,1.5-0.3,1.9-0.9c0.4-0.6,0.7-1.5,0.7-2.7
			c0-1.2-0.2-2.1-0.7-2.7c-0.4-0.6-1.1-0.9-1.9-0.9C608.5,154,607.9,154.3,607.4,154.9z"/>
		<path class="st2" d="M617.7,154c0.4,0.4,0.6,1.1,0.6,1.8s-0.2,1.4-0.6,1.8s-0.9,0.7-1.6,0.7c-0.7,0-1.2-0.2-1.6-0.7
			s-0.6-1-0.6-1.8s0.2-1.4,0.6-1.8c0.4-0.4,0.9-0.7,1.6-0.7C616.8,153.4,617.4,153.6,617.7,154z M615,154.4
			c-0.3,0.3-0.4,0.8-0.4,1.5c0,0.6,0.1,1.1,0.4,1.5c0.3,0.3,0.6,0.5,1.1,0.5c0.5,0,0.9-0.2,1.1-0.5c0.3-0.3,0.4-0.8,0.4-1.5
			s-0.1-1.1-0.4-1.5c-0.3-0.3-0.6-0.5-1.1-0.5S615.3,154,615,154.4z M621.9,153.4h0.7l-6.3,8.4h-0.7L621.9,153.4z M623.7,157.5
			c0.4,0.4,0.6,1,0.6,1.8s-0.2,1.4-0.6,1.8c-0.4,0.4-0.9,0.7-1.6,0.7c-0.7,0-1.2-0.2-1.6-0.7c-0.4-0.4-0.6-1-0.6-1.8
			s0.2-1.4,0.6-1.8s0.9-0.7,1.6-0.7C622.8,156.8,623.3,157.1,623.7,157.5z M621,157.9c-0.3,0.3-0.4,0.8-0.4,1.5
			c0,0.6,0.1,1.1,0.4,1.5c0.3,0.3,0.6,0.5,1.1,0.5c0.5,0,0.9-0.2,1.1-0.5c0.3-0.3,0.4-0.8,0.4-1.5s-0.1-1.1-0.4-1.5
			c-0.3-0.3-0.6-0.5-1.1-0.5C621.6,157.4,621.3,157.5,621,157.9z"/>
	</g>
	<g>
		<path class="st2" d="M207.7,115.5h1l3.3,6.3l3.3-6.3h1v8.4h-0.8l0-7.2l-3.3,6.3h-0.5l-3.3-6.3v7.2h-0.8V115.5z"/>
		<path class="st2" d="M223.5,118.5c0.5,0.6,0.7,1.5,0.7,2.5h-5.2c0.1,0.7,0.3,1.2,0.7,1.6s1,0.6,1.6,0.6c0.4,0,0.8-0.1,1.1-0.2
			c0.3-0.1,0.6-0.3,0.9-0.6l0.5,0.5c-0.3,0.3-0.7,0.6-1.1,0.8c-0.4,0.2-0.9,0.3-1.4,0.3c-0.6,0-1.1-0.1-1.6-0.4s-0.8-0.6-1.1-1.1
			s-0.4-1-0.4-1.6c0-0.6,0.1-1.2,0.4-1.6c0.3-0.5,0.6-0.9,1.1-1.1c0.5-0.3,1-0.4,1.6-0.4C222.2,117.6,223,117.9,223.5,118.5z
			 M223.5,120.4c0-0.7-0.3-1.2-0.7-1.6s-0.9-0.6-1.6-0.6c-0.6,0-1.2,0.2-1.6,0.6c-0.4,0.4-0.7,0.9-0.7,1.6H223.5z"/>
		<path class="st2" d="M224.8,117.6h0.9l1.8,2.5l1.8-2.5h0.9l-2.1,3l2.3,3.2h-0.9l-1.9-2.7l-1.9,2.7h-0.9l2.3-3.2L224.8,117.6z"/>
		<path class="st2" d="M232.6,115.4c0.1,0.1,0.2,0.2,0.2,0.4c0,0.2-0.1,0.3-0.2,0.4s-0.2,0.2-0.4,0.2c-0.2,0-0.3-0.1-0.4-0.2
			s-0.2-0.2-0.2-0.4c0-0.2,0.1-0.3,0.2-0.4s0.2-0.2,0.4-0.2S232.5,115.3,232.6,115.4z M231.8,117.6h0.8v6.3h-0.8V117.6z"/>
		<path class="st2" d="M237.4,118.3c-0.4,0-0.9,0.1-1.2,0.3s-0.6,0.5-0.8,0.9c-0.2,0.4-0.3,0.8-0.3,1.3s0.1,0.9,0.3,1.3
			c0.2,0.4,0.5,0.7,0.8,0.9s0.8,0.3,1.2,0.3c0.4,0,0.8-0.1,1.1-0.2s0.6-0.4,0.9-0.6l0.5,0.5c-0.3,0.3-0.6,0.6-1.1,0.8
			c-0.4,0.2-0.9,0.3-1.4,0.3c-0.6,0-1.1-0.1-1.6-0.4s-0.8-0.6-1.1-1.1s-0.4-1-0.4-1.6s0.1-1.2,0.4-1.6c0.3-0.5,0.6-0.9,1.1-1.1
			c0.5-0.3,1-0.4,1.6-0.4c0.5,0,0.9,0.1,1.3,0.2c0.4,0.2,0.8,0.4,1,0.7l-0.5,0.5C238.8,118.5,238.2,118.3,237.4,118.3z"/>
		<path class="st2" d="M245.5,118c0.5,0.3,0.9,0.6,1.1,1.1s0.4,1,0.4,1.6c0,0.6-0.1,1.2-0.4,1.6s-0.6,0.9-1.1,1.1s-1,0.4-1.6,0.4
			s-1.2-0.1-1.6-0.4s-0.9-0.6-1.1-1.1s-0.4-1-0.4-1.6c0-0.6,0.1-1.2,0.4-1.6s0.6-0.9,1.1-1.1c0.5-0.3,1-0.4,1.6-0.4
			S245,117.7,245.5,118z M242.6,118.6c-0.4,0.2-0.6,0.5-0.8,0.9c-0.2,0.4-0.3,0.8-0.3,1.3c0,0.5,0.1,0.9,0.3,1.3
			c0.2,0.4,0.5,0.7,0.8,0.9c0.4,0.2,0.8,0.3,1.2,0.3c0.5,0,0.9-0.1,1.2-0.3c0.4-0.2,0.6-0.5,0.8-0.9c0.2-0.4,0.3-0.8,0.3-1.3
			c0-0.5-0.1-0.9-0.3-1.3c-0.2-0.4-0.5-0.7-0.8-0.9c-0.4-0.2-0.8-0.3-1.2-0.3C243.4,118.3,243,118.4,242.6,118.6z"/>
	</g>
	<g>
		<path class="st2" d="M292,116.4c-0.4-0.1-0.8-0.2-1.2-0.2c-0.6,0-1,0.1-1.4,0.3c-0.3,0.2-0.5,0.5-0.5,0.9c0,0.3,0.1,0.6,0.3,0.8
			c0.2,0.2,0.4,0.4,0.7,0.5c0.3,0.1,0.7,0.3,1.2,0.4c0.6,0.2,1,0.3,1.4,0.5c0.3,0.2,0.6,0.4,0.9,0.7s0.4,0.7,0.4,1.2
			c0,0.4-0.1,0.8-0.4,1.2c-0.3,0.3-0.6,0.6-1.1,0.8c-0.5,0.2-1,0.3-1.6,0.3c-0.6,0-1.2-0.1-1.7-0.3c-0.6-0.2-1-0.5-1.4-0.9l0.4-0.7
			c0.4,0.4,0.8,0.7,1.3,0.9c0.5,0.2,1,0.3,1.5,0.3c0.6,0,1.1-0.1,1.5-0.4c0.4-0.3,0.6-0.6,0.6-1.1c0-0.4-0.1-0.6-0.3-0.9
			c-0.2-0.2-0.4-0.4-0.7-0.5c-0.3-0.1-0.7-0.3-1.2-0.4c-0.6-0.2-1-0.3-1.4-0.5c-0.3-0.2-0.6-0.4-0.9-0.7c-0.2-0.3-0.4-0.7-0.4-1.2
			c0-0.4,0.1-0.8,0.4-1.1c0.2-0.3,0.6-0.6,1-0.7c0.4-0.2,0.9-0.3,1.5-0.3c0.5,0,0.9,0.1,1.4,0.2c0.5,0.1,0.9,0.3,1.2,0.5l-0.4,0.7
			C292.8,116.6,292.5,116.5,292,116.4z"/>
		<path class="st2" d="M299.8,118c0.5,0.3,0.9,0.6,1.1,1.1c0.3,0.5,0.4,1,0.4,1.6c0,0.6-0.1,1.2-0.4,1.6c-0.3,0.5-0.6,0.9-1.1,1.1
			c-0.5,0.3-1,0.4-1.6,0.4c-0.6,0-1.2-0.1-1.6-0.4c-0.5-0.3-0.9-0.6-1.1-1.1c-0.3-0.5-0.4-1-0.4-1.6c0-0.6,0.1-1.2,0.4-1.6
			c0.3-0.5,0.6-0.9,1.1-1.1c0.5-0.3,1-0.4,1.6-0.4C298.8,117.6,299.3,117.7,299.8,118z M297,118.6c-0.4,0.2-0.6,0.5-0.8,0.9
			c-0.2,0.4-0.3,0.8-0.3,1.3c0,0.5,0.1,0.9,0.3,1.3c0.2,0.4,0.5,0.7,0.8,0.9c0.4,0.2,0.8,0.3,1.2,0.3s0.9-0.1,1.2-0.3
			c0.4-0.2,0.6-0.5,0.8-0.9c0.2-0.4,0.3-0.8,0.3-1.3c0-0.5-0.1-0.9-0.3-1.3c-0.2-0.4-0.5-0.7-0.8-0.9c-0.4-0.2-0.8-0.3-1.2-0.3
			S297.3,118.4,297,118.6z"/>
		<path class="st2" d="M308.5,117.6v6.3h-0.8v-1.5c-0.2,0.5-0.5,0.9-0.9,1.1c-0.4,0.3-0.9,0.4-1.5,0.4c-0.7,0-1.3-0.2-1.7-0.7
			s-0.6-1-0.6-1.8v-3.9h0.8v3.7c0,0.6,0.2,1.1,0.5,1.4c0.3,0.3,0.8,0.5,1.3,0.5c0.7,0,1.2-0.2,1.6-0.7c0.4-0.5,0.6-1,0.6-1.8v-3.1
			H308.5z"/>
		<path class="st2" d="M314,123.5c-0.4,0.3-0.9,0.5-1.4,0.5c-0.5,0-0.9-0.1-1.1-0.4c-0.3-0.3-0.4-0.7-0.4-1.3v-3.7h-0.9l0-0.6h0.9
			v-1.6h0.8v1.6l2,0v0.6h-2v3.6c0,0.8,0.3,1.2,0.9,1.2c0.3,0,0.7-0.1,1-0.3L314,123.5z"/>
		<path class="st2" d="M320.6,118.2c0.4,0.4,0.6,1,0.6,1.8v3.9h-0.8v-3.7c0-0.6-0.2-1.1-0.5-1.4s-0.8-0.5-1.4-0.5
			c-0.7,0-1.2,0.2-1.6,0.7c-0.4,0.5-0.6,1-0.6,1.8v3.1h-0.8V115h0.8v4.1c0.4-1,1.3-1.5,2.5-1.5C319.5,117.6,320.1,117.8,320.6,118.2
			z"/>
		<path class="st2" d="M333.5,123.9h-1l-3.2-4.1l-1.7,1.8v2.2h-0.8v-8.4h0.8v5.1l4.7-5.1h1l-3.4,3.7L333.5,123.9z"/>
		<path class="st2" d="M339.1,118c0.5,0.3,0.9,0.6,1.1,1.1c0.3,0.5,0.4,1,0.4,1.6c0,0.6-0.1,1.2-0.4,1.6c-0.3,0.5-0.6,0.9-1.1,1.1
			c-0.5,0.3-1,0.4-1.6,0.4c-0.6,0-1.2-0.1-1.6-0.4c-0.5-0.3-0.9-0.6-1.1-1.1c-0.3-0.5-0.4-1-0.4-1.6c0-0.6,0.1-1.2,0.4-1.6
			c0.3-0.5,0.6-0.9,1.1-1.1c0.5-0.3,1-0.4,1.6-0.4C338.1,117.6,338.6,117.7,339.1,118z M336.3,118.6c-0.4,0.2-0.6,0.5-0.8,0.9
			c-0.2,0.4-0.3,0.8-0.3,1.3c0,0.5,0.1,0.9,0.3,1.3c0.2,0.4,0.5,0.7,0.8,0.9c0.4,0.2,0.8,0.3,1.2,0.3s0.9-0.1,1.2-0.3
			c0.4-0.2,0.6-0.5,0.8-0.9c0.2-0.4,0.3-0.8,0.3-1.3c0-0.5-0.1-0.9-0.3-1.3c-0.2-0.4-0.5-0.7-0.8-0.9c-0.4-0.2-0.8-0.3-1.2-0.3
			S336.6,118.4,336.3,118.6z"/>
		<path class="st2" d="M344.1,118c0.4-0.3,0.9-0.4,1.4-0.4v0.8c-0.7,0-1.2,0.2-1.6,0.6s-0.6,0.9-0.7,1.6v3.4h-0.8v-6.3h0.8v1.5
			C343.4,118.6,343.7,118.2,344.1,118z"/>
		<path class="st2" d="M351.4,118.5c0.5,0.6,0.7,1.5,0.7,2.5h-5.2c0.1,0.7,0.3,1.2,0.7,1.6c0.4,0.4,1,0.6,1.6,0.6
			c0.4,0,0.8-0.1,1.1-0.2c0.3-0.1,0.6-0.3,0.9-0.6l0.5,0.5c-0.3,0.3-0.7,0.6-1.1,0.8c-0.4,0.2-0.9,0.3-1.4,0.3
			c-0.6,0-1.1-0.1-1.6-0.4c-0.5-0.3-0.8-0.6-1.1-1.1c-0.3-0.5-0.4-1-0.4-1.6c0-0.6,0.1-1.2,0.4-1.6c0.3-0.5,0.6-0.9,1.1-1.1
			c0.5-0.3,1-0.4,1.6-0.4C350.2,117.6,350.9,117.9,351.4,118.5z M351.4,120.4c0-0.7-0.3-1.2-0.7-1.6c-0.4-0.4-0.9-0.6-1.6-0.6
			c-0.6,0-1.2,0.2-1.6,0.6s-0.7,0.9-0.7,1.6H351.4z"/>
		<path class="st2" d="M357.8,123.9l0-1.1c-0.2,0.4-0.6,0.6-1,0.8c-0.4,0.2-0.9,0.3-1.4,0.3c-0.4,0-0.8-0.1-1.1-0.2
			c-0.3-0.2-0.6-0.4-0.8-0.7c-0.2-0.3-0.3-0.6-0.3-1c0-0.5,0.2-1,0.6-1.3s1-0.5,1.7-0.5h2.1v-0.5c0-0.5-0.1-0.9-0.4-1.2
			s-0.7-0.4-1.3-0.4c-0.7,0-1.3,0.3-2,0.8l-0.4-0.6c0.4-0.3,0.8-0.5,1.2-0.7c0.4-0.1,0.8-0.2,1.3-0.2c0.8,0,1.3,0.2,1.8,0.6
			c0.4,0.4,0.6,0.9,0.6,1.6l0,4.2H357.8z M357,122.9c0.4-0.3,0.6-0.6,0.8-1.1v-0.9h-2c-0.6,0-1,0.1-1.3,0.3s-0.4,0.5-0.4,0.8
			c0,0.4,0.1,0.7,0.4,0.9c0.3,0.2,0.6,0.3,1.1,0.3C356.1,123.2,356.6,123.1,357,122.9z"/>
	</g>
	<g>
		<path class="st2" d="M410.4,116.4c-0.4-0.2-0.9-0.3-1.4-0.3c-0.6,0-1.2,0.2-1.8,0.5c-0.5,0.3-1,0.7-1.3,1.3
			c-0.3,0.5-0.5,1.1-0.5,1.8s0.2,1.2,0.5,1.8c0.3,0.5,0.7,1,1.3,1.3s1.1,0.5,1.8,0.5c0.5,0,0.9-0.1,1.4-0.3c0.4-0.2,0.8-0.4,1.2-0.8
			l0.5,0.5c-0.4,0.4-0.9,0.7-1.4,0.9c-0.5,0.2-1.1,0.3-1.6,0.3c-0.8,0-1.5-0.2-2.2-0.6c-0.7-0.4-1.2-0.9-1.6-1.6
			c-0.4-0.7-0.6-1.4-0.6-2.1s0.2-1.5,0.6-2.1s0.9-1.2,1.6-1.5c0.7-0.4,1.4-0.6,2.2-0.6c0.6,0,1.1,0.1,1.6,0.3c0.5,0.2,1,0.5,1.4,0.9
			l-0.5,0.6C411.2,116.9,410.8,116.6,410.4,116.4z"/>
		<path class="st2" d="M418.9,118.2c0.4,0.4,0.6,1,0.6,1.8v3.9h-0.8v-3.7c0-0.6-0.2-1.1-0.5-1.4s-0.8-0.5-1.4-0.5
			c-0.7,0-1.2,0.2-1.6,0.7c-0.4,0.5-0.6,1-0.6,1.8v3.1h-0.8V115h0.8v4.1c0.4-1,1.3-1.5,2.5-1.5C417.8,117.6,418.4,117.8,418.9,118.2
			z"/>
		<path class="st2" d="M422.5,115.4c0.1,0.1,0.2,0.2,0.2,0.4c0,0.2-0.1,0.3-0.2,0.4c-0.1,0.1-0.2,0.2-0.4,0.2
			c-0.2,0-0.3-0.1-0.4-0.2c-0.1-0.1-0.2-0.2-0.2-0.4c0-0.2,0.1-0.3,0.2-0.4c0.1-0.1,0.2-0.2,0.4-0.2S422.3,115.3,422.5,115.4z
			 M421.6,117.6h0.8v6.3h-0.8V117.6z"/>
		<path class="st2" d="M429.9,118.2c0.4,0.4,0.6,1,0.6,1.8v3.9h-0.8v-3.7c0-0.6-0.2-1.1-0.5-1.4c-0.3-0.3-0.8-0.5-1.4-0.5
			c-0.6,0-1.2,0.2-1.6,0.6c-0.4,0.4-0.6,0.9-0.7,1.6v3.4h-0.8v-6.3h0.8v1.5c0.2-0.5,0.5-0.9,1-1.1c0.4-0.2,0.9-0.4,1.5-0.4
			C428.8,117.6,429.4,117.8,429.9,118.2z"/>
		<path class="st2" d="M436.6,123.9l0-1.1c-0.2,0.4-0.6,0.6-1,0.8c-0.4,0.2-0.9,0.3-1.4,0.3c-0.4,0-0.8-0.1-1.1-0.2
			c-0.3-0.2-0.6-0.4-0.8-0.7c-0.2-0.3-0.3-0.6-0.3-1c0-0.5,0.2-1,0.6-1.3s1-0.5,1.7-0.5h2.1v-0.5c0-0.5-0.1-0.9-0.4-1.2
			s-0.7-0.4-1.3-0.4c-0.7,0-1.3,0.3-2,0.8l-0.4-0.6c0.4-0.3,0.8-0.5,1.2-0.7c0.4-0.1,0.8-0.2,1.3-0.2c0.8,0,1.3,0.2,1.8,0.6
			c0.4,0.4,0.6,0.9,0.6,1.6l0,4.2H436.6z M435.8,122.9c0.4-0.3,0.6-0.6,0.8-1.1v-0.9h-2c-0.6,0-1,0.1-1.3,0.3s-0.4,0.5-0.4,0.8
			c0,0.4,0.1,0.7,0.4,0.9c0.3,0.2,0.6,0.3,1.1,0.3C434.9,123.2,435.4,123.1,435.8,122.9z"/>
	</g>
	<g>
		<path class="st2" d="M498.2,115.5h5.3v0.7h-4.4v3.2h3.9v0.7h-3.9v3.7h-0.8V115.5z"/>
		<path class="st2" d="M506.5,118c0.4-0.3,0.9-0.4,1.4-0.4v0.8c-0.7,0-1.2,0.2-1.6,0.6s-0.6,0.9-0.7,1.6v3.4h-0.8v-6.3h0.8v1.5
			C505.8,118.6,506.1,118.2,506.5,118z"/>
		<path class="st2" d="M512.8,123.9l0-1.1c-0.2,0.4-0.6,0.6-1,0.8c-0.4,0.2-0.9,0.3-1.4,0.3c-0.4,0-0.8-0.1-1.1-0.2
			c-0.3-0.2-0.6-0.4-0.8-0.7c-0.2-0.3-0.3-0.6-0.3-1c0-0.5,0.2-1,0.6-1.3s1-0.5,1.7-0.5h2.1v-0.5c0-0.5-0.1-0.9-0.4-1.2
			s-0.7-0.4-1.3-0.4c-0.7,0-1.3,0.3-2,0.8l-0.4-0.6c0.4-0.3,0.8-0.5,1.2-0.7c0.4-0.1,0.8-0.2,1.3-0.2c0.8,0,1.3,0.2,1.8,0.6
			c0.4,0.4,0.6,0.9,0.6,1.6l0,4.2H512.8z M512,122.9c0.4-0.3,0.6-0.6,0.8-1.1v-0.9h-2c-0.6,0-1,0.1-1.3,0.3s-0.4,0.5-0.4,0.8
			c0,0.4,0.1,0.7,0.4,0.9c0.3,0.2,0.6,0.3,1.1,0.3C511.2,123.2,511.7,123.1,512,122.9z"/>
		<path class="st2" d="M520.8,118.2c0.4,0.4,0.6,1,0.6,1.8v3.9h-0.8v-3.7c0-0.6-0.2-1.1-0.5-1.4c-0.3-0.3-0.8-0.5-1.4-0.5
			c-0.6,0-1.2,0.2-1.6,0.6c-0.4,0.4-0.6,0.9-0.7,1.6v3.4h-0.8v-6.3h0.8v1.5c0.2-0.5,0.5-0.9,1-1.1c0.4-0.2,0.9-0.4,1.5-0.4
			C519.8,117.6,520.4,117.8,520.8,118.2z"/>
		<path class="st2" d="M526.1,118.3c-0.4,0-0.9,0.1-1.2,0.3s-0.6,0.5-0.8,0.9s-0.3,0.8-0.3,1.3s0.1,0.9,0.3,1.3s0.5,0.7,0.8,0.9
			s0.8,0.3,1.2,0.3c0.4,0,0.8-0.1,1.1-0.2s0.6-0.4,0.9-0.6l0.5,0.5c-0.3,0.3-0.6,0.6-1.1,0.8s-0.9,0.3-1.4,0.3
			c-0.6,0-1.1-0.1-1.6-0.4c-0.5-0.3-0.8-0.6-1.1-1.1c-0.3-0.5-0.4-1-0.4-1.6s0.1-1.2,0.4-1.6c0.3-0.5,0.6-0.9,1.1-1.1
			c0.5-0.3,1-0.4,1.6-0.4c0.5,0,0.9,0.1,1.3,0.2c0.4,0.2,0.8,0.4,1,0.7L528,119C527.5,118.5,526.9,118.3,526.1,118.3z"/>
		<path class="st2" d="M534.7,118.5c0.5,0.6,0.7,1.5,0.7,2.5h-5.2c0.1,0.7,0.3,1.2,0.7,1.6c0.4,0.4,1,0.6,1.6,0.6
			c0.4,0,0.8-0.1,1.1-0.2c0.3-0.1,0.6-0.3,0.9-0.6l0.5,0.5c-0.3,0.3-0.7,0.6-1.1,0.8c-0.4,0.2-0.9,0.3-1.4,0.3
			c-0.6,0-1.1-0.1-1.6-0.4c-0.5-0.3-0.8-0.6-1.1-1.1c-0.3-0.5-0.4-1-0.4-1.6c0-0.6,0.1-1.2,0.4-1.6c0.3-0.5,0.6-0.9,1.1-1.1
			c0.5-0.3,1-0.4,1.6-0.4C533.5,117.6,534.2,117.9,534.7,118.5z M534.7,120.4c0-0.7-0.3-1.2-0.7-1.6c-0.4-0.4-0.9-0.6-1.6-0.6
			c-0.6,0-1.2,0.2-1.6,0.6s-0.7,0.9-0.7,1.6H534.7z"/>
	</g>
	<g>
		<path class="st2" d="M599,123.3c-0.4,0.4-1,0.7-1.7,0.7c-0.4,0-0.9-0.1-1.3-0.3c-0.4-0.2-0.7-0.5-1-0.9l0.4-0.6
			c0.3,0.3,0.5,0.6,0.9,0.8s0.6,0.3,1,0.3c0.5,0,0.9-0.1,1.1-0.4c0.3-0.3,0.4-0.7,0.4-1.3v-5.1h-3v-0.8h3.9v5.9
			C599.6,122.2,599.4,122.8,599,123.3z"/>
		<path class="st2" d="M605.8,123.9l0-1.1c-0.2,0.4-0.6,0.6-1,0.8c-0.4,0.2-0.9,0.3-1.4,0.3c-0.4,0-0.8-0.1-1.1-0.2
			c-0.3-0.2-0.6-0.4-0.8-0.7c-0.2-0.3-0.3-0.6-0.3-1c0-0.5,0.2-1,0.6-1.3s1-0.5,1.7-0.5h2.1v-0.5c0-0.5-0.1-0.9-0.4-1.2
			s-0.7-0.4-1.3-0.4c-0.7,0-1.3,0.3-2,0.8l-0.4-0.6c0.4-0.3,0.8-0.5,1.2-0.7c0.4-0.1,0.8-0.2,1.3-0.2c0.8,0,1.3,0.2,1.8,0.6
			c0.4,0.4,0.6,0.9,0.6,1.6l0,4.2H605.8z M605,122.9c0.4-0.3,0.6-0.6,0.8-1.1v-0.9h-2c-0.6,0-1,0.1-1.3,0.3s-0.4,0.5-0.4,0.8
			c0,0.4,0.1,0.7,0.4,0.9c0.3,0.2,0.6,0.3,1.1,0.3C604.2,123.2,604.6,123.1,605,122.9z"/>
		<path class="st2" d="M613.7,118c0.5,0.3,0.8,0.6,1.1,1.1c0.3,0.5,0.4,1,0.4,1.7c0,0.6-0.1,1.2-0.4,1.6c-0.3,0.5-0.6,0.9-1.1,1.1
			s-1,0.4-1.6,0.4c-0.6,0-1.1-0.1-1.5-0.4c-0.4-0.3-0.8-0.6-1-1.1v3.8h-0.8v-8.6h0.8v1.5c0.2-0.5,0.6-0.8,1-1.1
			c0.4-0.3,0.9-0.4,1.5-0.4C612.7,117.6,613.2,117.7,613.7,118z M613.2,122.9c0.4-0.2,0.6-0.5,0.8-0.9s0.3-0.8,0.3-1.3
			c0-0.5-0.1-0.9-0.3-1.3c-0.2-0.4-0.5-0.7-0.8-0.9c-0.4-0.2-0.8-0.3-1.2-0.3c-0.5,0-0.9,0.1-1.2,0.3c-0.4,0.2-0.6,0.5-0.8,0.9
			c-0.2,0.4-0.3,0.8-0.3,1.3c0,0.5,0.1,0.9,0.3,1.3s0.5,0.7,0.8,0.9c0.4,0.2,0.8,0.3,1.2,0.3C612.4,123.2,612.8,123.1,613.2,122.9z"
			/>
		<path class="st2" d="M620.8,123.9l0-1.1c-0.2,0.4-0.6,0.6-1,0.8c-0.4,0.2-0.9,0.3-1.4,0.3c-0.4,0-0.8-0.1-1.1-0.2
			c-0.3-0.2-0.6-0.4-0.8-0.7c-0.2-0.3-0.3-0.6-0.3-1c0-0.5,0.2-1,0.6-1.3s1-0.5,1.7-0.5h2.1v-0.5c0-0.5-0.1-0.9-0.4-1.2
			s-0.7-0.4-1.3-0.4c-0.7,0-1.3,0.3-2,0.8l-0.4-0.6c0.4-0.3,0.8-0.5,1.2-0.7c0.4-0.1,0.8-0.2,1.3-0.2c0.8,0,1.3,0.2,1.8,0.6
			c0.4,0.4,0.6,0.9,0.6,1.6l0,4.2H620.8z M620,122.9c0.4-0.3,0.6-0.6,0.8-1.1v-0.9h-2c-0.6,0-1,0.1-1.3,0.3s-0.4,0.5-0.4,0.8
			c0,0.4,0.1,0.7,0.4,0.9c0.3,0.2,0.6,0.3,1.1,0.3C619.1,123.2,619.6,123.1,620,122.9z"/>
		<path class="st2" d="M628.8,118.2c0.4,0.4,0.6,1,0.6,1.8v3.9h-0.8v-3.7c0-0.6-0.2-1.1-0.5-1.4c-0.3-0.3-0.8-0.5-1.4-0.5
			c-0.6,0-1.2,0.2-1.6,0.6c-0.4,0.4-0.6,0.9-0.7,1.6v3.4h-0.8v-6.3h0.8v1.5c0.2-0.5,0.5-0.9,1-1.1c0.4-0.2,0.9-0.4,1.5-0.4
			C627.8,117.6,628.4,117.8,628.8,118.2z"/>
	</g>
	<path class="st3" d="M128.4,27.7c2.8,0,5-2.2,5-5c0-2.8-2.2-5-5-5c-2.8,0-5,2.2-5,5C123.4,25.4,125.7,27.7,128.4,27.7"/>
	<path class="st3" d="M21.4,41.1c2.8,0,5-2.2,5-5c0-2.8-2.2-5-5-5c-2.8,0-5,2.2-5,5C16.4,38.9,18.7,41.1,21.4,41.1"/>
	<path class="st3" d="M58,96.3c2.8,0,5-2.2,5-5c0-2.8-2.2-5-5-5c-2.8,0-5,2.2-5,5C53,94,55.2,96.3,58,96.3"/>
	<path class="st4" d="M25,200.3c2.8,0,5-2.2,5-5c0-2.8-2.2-5-5-5c-2.8,0-5,2.2-5,5C20,198,22.2,200.3,25,200.3"/>
	<path class="st4" d="M220.6,200.3c2.8,0,5-2.2,5-5c0-2.8-2.2-5-5-5c-2.8,0-5,2.2-5,5C215.6,198,217.9,200.3,220.6,200.3"/>
	<path class="st4" d="M416.3,200.3c2.8,0,5-2.2,5-5c0-2.8-2.2-5-5-5c-2.8,0-5,2.2-5,5C411.3,198,413.5,200.3,416.3,200.3"/>
	<path class="st4" d="M90.2,200.3c2.8,0,5-2.2,5-5c0-2.8-2.2-5-5-5c-2.8,0-5,2.2-5,5C85.2,198,87.4,200.3,90.2,200.3"/>
	<path class="st4" d="M285.8,200.3c2.8,0,5-2.2,5-5c0-2.8-2.2-5-5-5c-2.8,0-5,2.2-5,5C280.8,198,283.1,200.3,285.8,200.3"/>
	<path class="st4" d="M481.5,200.3c2.8,0,5-2.2,5-5c0-2.8-2.2-5-5-5c-2.8,0-5,2.2-5,5C476.5,198,478.7,200.3,481.5,200.3"/>
	<path class="st4" d="M155.4,200.3c2.8,0,5-2.2,5-5c0-2.8-2.2-5-5-5c-2.8,0-5,2.2-5,5C150.4,198,152.7,200.3,155.4,200.3"/>
	<path class="st4" d="M351,200.3c2.8,0,5-2.2,5-5c0-2.8-2.2-5-5-5c-2.8,0-5,2.2-5,5C346,198,348.3,200.3,351,200.3"/>
	<path class="st4" d="M546.7,200.3c2.8,0,5-2.2,5-5c0-2.8-2.2-5-5-5c-2.8,0-5,2.2-5,5C541.7,198,543.9,200.3,546.7,200.3"/>
	<path class="st4" d="M611.9,200.3c2.8,0,5-2.2,5-5c0-2.8-2.2-5-5-5c-2.8,0-5,2.2-5,5C606.9,198,609.1,200.3,611.9,200.3"/>
	<path class="st5" d="M654.2,202.7c-1.8,1.8-4.3,2.8-6.8,2.8H16.2c-5.3,0-9.7-4.3-9.7-9.7c0-2.6,1-5,2.8-6.8
		c1.8-1.8,4.3-2.8,6.8-2.8h19.4c0.1,0,0.3,0,0.4,0h44.4c0.1,0,0.3,0,0.4,0H115c0.1,0,0.3,0,0.4,0h524.2c0.1,0,0.3,0,0.4,0h7.4
		c5.3,0,9.7,4.3,9.7,9.7C657,198.5,656,200.9,654.2,202.7 M28.9,57.2c4.4-1.3,8.3-3.8,11.2-7.4l15.6,14.8
		c-5.8,0.6-11.3,3.1-15.5,7.1L28.9,57.2z M22,51.6c-8.6-0.3-15.5-7.4-15.5-16.1c0-8.9,7.2-16.1,16.1-16.1c1.8,0,3.5,0.3,5.2,0.8
		c6.6,2.2,11,8.4,11,15.3c0,2.2-0.4,4.3-1.3,6.3c-0.2,0.5-0.5,1-0.8,1.6c-2.7,4.8-7.6,7.9-13.1,8.3C23.1,51.5,22.5,51.5,22,51.6
		 M105.7,18.4c-0.3,1.4-0.4,2.8-0.4,4.2c0,3.2,0.6,6.2,1.9,9.1l-62.3,7.6c0.2-1.2,0.3-2.5,0.3-3.7c0-6-2.4-11.6-6.3-15.7L105.7,18.4
		z M77.5,107.4v72.3H38.8v-72.3c4.7,5.4,11.7,8.8,19.4,8.8C65.8,116.2,72.8,112.8,77.5,107.4 M63.7,71.8
		C63.7,71.8,63.7,71.8,63.7,71.8c8.2,2.4,13.8,10.1,13.8,18.6c0,10.7-8.7,19.4-19.4,19.4c-10.7,0-19.4-8.7-19.4-19.4
		c0-4.2,1.3-8.2,3.8-11.6C46.3,73.9,52,71,58.1,71C60,71,61.9,71.3,63.7,71.8 M636.7,179.8H118.2 M113,16.3
		C113,16.3,113,16.3,113,16.3c2.5-6,8.4-9.9,14.9-9.9c8.9,0,16.1,7.2,16.1,16.1c0,5.7-3.1,11.1-8.1,14c-2.4,1.4-5.2,2.2-8.1,2.2
		c-2.8,0-5.6-0.7-8.1-2.2c-1.9-1.1-3.5-2.5-4.8-4.2c-2.1-2.8-3.3-6.2-3.3-9.7C111.7,20.4,112.1,18.3,113,16.3 M134.3,51.7h-12.9
		v-7.4c2.1,0.6,4.3,0.9,6.5,0.9c2.2,0,4.4-0.3,6.5-0.9V51.7z M111.7,179.7H84V90.4c0-5.7-1.8-11.1-5.2-15.6
		c-3.1-4.1-7.5-7.3-12.4-8.9L45.1,45.7l66-8c1.2,1.3,2.5,2.4,3.9,3.4v10.5h-3.2c-1.2,0-2.3,0.7-2.9,1.8l-6.5,12.9
		c-0.6,1.2-0.4,2.7,0.6,3.7L115.9,83c1.3,1.3,3.3,1.3,4.6,0s1.3-3.3,0-4.6l-11.3-11.3l4.5-9H142l4.5,9l-11.3,11.3
		c-1.3,1.3-1.3,3.3,0,4.6c0.6,0.6,1.5,0.9,2.3,0.9c0.8,0,1.7-0.3,2.3-0.9l12.9-12.9c1-1,1.2-2.5,0.6-3.7l-6.5-12.9
		c-0.5-1.1-1.7-1.8-2.9-1.8h-3.2V41.1c6-4.2,9.7-11.1,9.7-18.5c0-12.5-10.1-22.6-22.6-22.6c-8.4,0-16,4.6-19.9,11.9l-78.7,1.7
		c-0.3,0-0.6,0.1-0.8,0.1c-1.9-0.5-3.9-0.8-5.9-0.8C10.2,12.9,0,23.1,0,35.5c0,12,9.5,21.9,21.3,22.6L36,77c-2.4,4-3.7,8.6-3.7,13.4
		v89.4H16.2c-4.3,0-8.4,1.7-11.4,4.7c-3.1,3.1-4.7,7.1-4.7,11.4c0,8.9,7.3,16.2,16.2,16.2h631.2c4.3,0,8.4-1.7,11.4-4.7
		c3.1-3.1,4.7-7.1,4.7-11.4c0-8.9-7.3-16.2-16.2-16.2h-4.2"/>
</g>
</svg>
