<?xml version="1.0" encoding="utf-8"?>
<!-- Generator: Adobe Illustrator 22.1.0, SVG Export Plug-In . SVG Version: 6.00 Build 0)  -->
<svg version="1.1" id="Capa_1" xmlns="http://www.w3.org/2000/svg" xmlns:xlink="http://www.w3.org/1999/xlink" x="0px" y="0px"
	 viewBox="0 0 93 93" style="enable-background:new 0 0 93 93;" xml:space="preserve">
<style type="text/css">
	.st0{fill:#6F6F6E;}
	.st1{fill:none;stroke:#6F6F6E;stroke-linecap:round;stroke-linejoin:round;}
	.st2{fill:#010000;}
</style>
<g>
	<path class="st0" d="M49,92.4c0-0.3,0.2-0.5,0.5-0.5l0,0l0,0l0,0c0.3,0,0.5,0.2,0.5,0.5l0,0c0,0.3-0.2,0.5-0.5,0.5h0c0,0,0,0,0,0
		l0,0C49.2,92.9,49,92.7,49,92.4z M52,92.1c0-0.3,0.2-0.5,0.4-0.6l0,0c0.3,0,0.5,0.2,0.6,0.4l0,0c0,0.3-0.1,0.5-0.4,0.6l0,0
		c0,0,0,0-0.1,0l0,0C52.2,92.6,52,92.4,52,92.1z M55,91.7c-0.1-0.3,0.1-0.5,0.4-0.6l0,0c0.3,0,0.5,0.1,0.6,0.4l0,0
		c0,0.3-0.1,0.5-0.4,0.6l0,0c0,0-0.1,0-0.1,0l0,0C55.2,92.1,55,91.9,55,91.7z M57.9,91c-0.1-0.3,0.1-0.5,0.4-0.6l0,0l0,0l0,0
		c0.3-0.1,0.5,0.1,0.6,0.4l0,0c0.1,0.3-0.1,0.5-0.4,0.6l0,0c0,0-0.1,0-0.1,0l0,0C58.2,91.4,58,91.3,57.9,91z M60.8,90.2
		c-0.1-0.3,0-0.5,0.3-0.6l0,0c0.3-0.1,0.5,0,0.6,0.3l0,0c0.1,0.3-0.1,0.5-0.3,0.6v0c-0.1,0-0.1,0-0.2,0l0,0
		C61.1,90.5,60.9,90.4,60.8,90.2z M63.6,89.2c-0.1-0.3,0-0.5,0.3-0.7l0,0c0.3-0.1,0.6,0,0.7,0.3l0,0c0.1,0.3,0,0.5-0.3,0.7l0,0
		c-0.1,0-0.1,0-0.2,0l0,0C63.9,89.5,63.7,89.4,63.6,89.2z M66.4,88c-0.1-0.3,0-0.5,0.2-0.7l0,0c0.3-0.1,0.6,0,0.7,0.2l0,0
		c0.1,0.3,0,0.5-0.2,0.7l0,0c-0.1,0-0.1,0.1-0.2,0.1l0,0C66.6,88.2,66.5,88.1,66.4,88z M69.1,86.6c-0.1-0.2-0.1-0.5,0.2-0.7l0,0
		c0.2-0.1,0.5-0.1,0.7,0.2l0,0c0.1,0.2,0.1,0.6-0.2,0.7l0,0c-0.1,0-0.2,0.1-0.3,0.1l0,0C69.3,86.8,69.1,86.7,69.1,86.6z M71.6,85
		c-0.1-0.2-0.1-0.5,0.1-0.7l0,0l0,0l0,0c0.2-0.1,0.5-0.1,0.7,0.1l0,0c0.1,0.2,0.1,0.5-0.1,0.7l0,0c-0.1,0.1-0.2,0.1-0.3,0.1l0,0
		C71.9,85.2,71.7,85.1,71.6,85z M74.1,83.3c-0.2-0.2-0.1-0.5,0.1-0.7l0,0c0.2-0.2,0.5-0.1,0.7,0.1l0,0c0.2,0.2,0.1,0.5-0.1,0.7l0,0
		c-0.1,0.1-0.2,0.1-0.3,0.1l0,0C74.3,83.5,74.2,83.4,74.1,83.3z M76.4,81.4c-0.2-0.2-0.2-0.5,0.1-0.7l0,0c0.2-0.2,0.5-0.2,0.7,0l0,0
		c0.2,0.2,0.2,0.5,0,0.7l0,0c-0.1,0.1-0.2,0.1-0.3,0.1l0,0C76.7,81.6,76.5,81.5,76.4,81.4z M78.7,79.4c-0.2-0.2-0.2-0.5,0-0.7l0,0
		c0.2-0.2,0.5-0.2,0.7,0l0,0c0.2,0.2,0.2,0.5,0,0.7l0,0c-0.1,0.1-0.2,0.1-0.4,0.1l0,0C78.9,79.5,78.8,79.4,78.7,79.4z M80.7,77.2
		c-0.2-0.2-0.2-0.5-0.1-0.7l0,0c0.2-0.2,0.5-0.2,0.7,0l0,0c0.2,0.2,0.2,0.5,0.1,0.7l0,0c-0.1,0.1-0.2,0.2-0.4,0.2l0,0
		C80.9,77.3,80.8,77.3,80.7,77.2z M82.7,74.9c-0.2-0.2-0.3-0.5-0.1-0.7l0,0c0.2-0.2,0.5-0.3,0.7-0.1l0,0c0.2,0.2,0.3,0.5,0.1,0.7
		l0,0C83.3,74.9,83.1,75,83,75l0,0C82.9,75,82.8,74.9,82.7,74.9z M84.5,72.5c-0.2-0.2-0.3-0.5-0.1-0.7l0,0c0.1-0.2,0.5-0.3,0.7-0.1
		l0,0c0.2,0.2,0.3,0.5,0.1,0.7l0,0c-0.1,0.1-0.3,0.2-0.4,0.2l0,0C84.6,72.5,84.5,72.5,84.5,72.5z M86.1,69.9
		c-0.2-0.1-0.3-0.4-0.2-0.7l0,0c0.1-0.2,0.4-0.3,0.7-0.2l0,0c0.2,0.1,0.3,0.5,0.2,0.7l0,0c-0.1,0.2-0.3,0.3-0.4,0.3l0,0
		C86.2,70,86.2,70,86.1,69.9z M87.5,67.3c-0.2-0.1-0.3-0.4-0.2-0.7l0,0c0.1-0.2,0.4-0.4,0.7-0.2l0,0c0.3,0.1,0.4,0.4,0.2,0.7l0,0
		c-0.1,0.2-0.3,0.3-0.4,0.3l0,0C87.7,67.3,87.6,67.3,87.5,67.3z M88.8,64.6c-0.3-0.1-0.4-0.4-0.3-0.6l0,0c0.1-0.3,0.4-0.4,0.6-0.3
		l0,0c0.3,0.1,0.4,0.4,0.3,0.6l0,0c-0.1,0.2-0.3,0.3-0.5,0.3l0,0C88.9,64.6,88.9,64.6,88.8,64.6z M89.9,61.8
		c-0.3-0.1-0.4-0.4-0.3-0.6l0,0c0,0,0,0,0,0l0,0c0.1-0.3,0.4-0.4,0.6-0.3l0,0c0.3,0.1,0.4,0.4,0.3,0.6l0,0c-0.1,0.2-0.3,0.3-0.5,0.3
		l0,0C90,61.8,89.9,61.8,89.9,61.8z M90.8,58.9c-0.3-0.1-0.4-0.4-0.4-0.6l0,0c0.1-0.3,0.3-0.4,0.6-0.4l0,0c0.3,0.1,0.4,0.4,0.4,0.6
		l0,0c-0.1,0.2-0.3,0.4-0.5,0.4l0,0C90.9,58.9,90.8,58.9,90.8,58.9z M91.5,56c-0.3-0.1-0.5-0.3-0.4-0.6l0,0c0.1-0.3,0.3-0.5,0.6-0.4
		l0,0c0.3,0.1,0.4,0.3,0.4,0.6l0,0C92,55.8,91.8,56,91.5,56L91.5,56C91.6,56,91.5,56,91.5,56z M92,53c-0.3,0-0.5-0.3-0.4-0.6l0,0
		c0-0.3,0.3-0.5,0.6-0.4l0,0c0.3,0,0.5,0.3,0.4,0.6l0,0C92.6,52.8,92.3,53,92,53L92,53C92.1,53,92,53,92,53z M92.3,50
		c-0.3,0-0.5-0.3-0.5-0.5l0,0c0-0.3,0.3-0.5,0.5-0.5l0,0c0.3,0,0.5,0.3,0.5,0.5l0,0C92.9,49.8,92.6,50,92.3,50L92.3,50
		C92.4,50,92.4,50,92.3,50z"/>
</g>
<g>
	<path class="st0" d="M91.9,43.5L91.9,43.5L91.9,43.5c0-0.3,0.2-0.5,0.5-0.5l0,0c0.3,0,0.5,0.2,0.5,0.5h0c0,0.3-0.2,0.5-0.5,0.5l0,0
		c0,0,0,0,0,0l0,0C92.1,44,91.9,43.8,91.9,43.5z M91.6,40.5c0-0.3,0.2-0.5,0.4-0.6l0,0c0.3,0,0.5,0.2,0.6,0.4l0,0
		c0,0.3-0.2,0.5-0.4,0.6l0,0c0,0,0,0-0.1,0l0,0C91.8,41,91.6,40.8,91.6,40.5z M91.1,37.6c0-0.3,0.1-0.5,0.4-0.6l0,0
		c0.3-0.1,0.5,0.1,0.6,0.4l0,0c0,0.3-0.1,0.5-0.4,0.6l0,0c0,0-0.1,0-0.1,0l0,0C91.4,38,91.2,37.8,91.1,37.6z M90.4,34.7
		c-0.1-0.3,0.1-0.5,0.4-0.6l0,0c0.3-0.1,0.5,0.1,0.6,0.4l0,0c0.1,0.3-0.1,0.5-0.4,0.6l0,0c0,0-0.1,0-0.1,0l0,0
		C90.7,35.1,90.5,34.9,90.4,34.7z M89.6,31.8c-0.1-0.3,0-0.5,0.3-0.6l0,0c0.3-0.1,0.5,0.1,0.6,0.3l0,0c0.1,0.3-0.1,0.5-0.3,0.6l0,0
		c-0.1,0-0.1,0-0.2,0l0,0C89.8,32.2,89.6,32.1,89.6,31.8z M88.5,29.1c-0.1-0.3,0-0.5,0.3-0.7l0,0c0.3-0.1,0.5,0,0.7,0.3l0,0
		c0.1,0.3,0,0.6-0.3,0.7l0,0c-0.1,0-0.1,0-0.2,0l0,0C88.8,29.4,88.6,29.3,88.5,29.1z M87.3,26.3c-0.1-0.3,0-0.5,0.2-0.7l0,0
		c0.2-0.1,0.5,0,0.7,0.2l0,0c0.1,0.2,0,0.6-0.2,0.7l0,0c-0.1,0-0.1,0.1-0.2,0.1l0,0C87.6,26.6,87.4,26.5,87.3,26.3z M85.9,23.7
		c-0.1-0.2-0.1-0.5,0.2-0.7l0,0c0.2-0.1,0.5-0.1,0.7,0.2l0,0c0.1,0.2,0,0.6-0.2,0.7l0,0c-0.1,0-0.2,0.1-0.3,0.1l0,0
		C86.1,24,86,23.9,85.9,23.7z M84.3,21.2c-0.2-0.2-0.1-0.5,0.1-0.7l0,0c0.2-0.2,0.5-0.1,0.7,0.1l0,0c0.2,0.2,0.1,0.5-0.1,0.7l0,0
		c-0.1,0.1-0.2,0.1-0.3,0.1l0,0C84.6,21.4,84.4,21.3,84.3,21.2z M82.6,18.8c-0.2-0.2-0.1-0.5,0.1-0.7l0,0c0.2-0.2,0.5-0.1,0.7,0.1
		l0,0c0.2,0.2,0.1,0.5-0.1,0.7l0,0C83.2,18.9,83.1,19,83,19l0,0C82.8,19,82.7,18.9,82.6,18.8z M80.7,16.5L80.7,16.5L80.7,16.5
		c-0.2-0.2-0.2-0.5,0.1-0.7l0,0c0.2-0.2,0.5-0.2,0.7,0l0,0c0.2,0.2,0.2,0.5,0,0.7l0,0c-0.1,0.1-0.2,0.1-0.3,0.1l0,0
		C80.9,16.6,80.8,16.6,80.7,16.5z M78.7,14.3c-0.2-0.2-0.2-0.5,0-0.7l0,0c0.2-0.2,0.5-0.2,0.7,0l0,0c0.2,0.2,0.2,0.5,0,0.7l0,0
		c-0.1,0.1-0.2,0.1-0.3,0.1l0,0C78.9,14.4,78.7,14.4,78.7,14.3z M76.5,12.3c-0.2-0.2-0.2-0.5,0-0.7l0,0c0.2-0.2,0.5-0.2,0.7,0l0,0
		c0.2,0.2,0.2,0.5,0,0.7l0,0c-0.1,0.1-0.2,0.2-0.4,0.2l0,0C76.7,12.4,76.6,12.3,76.5,12.3z M74.2,10.4c-0.2-0.2-0.3-0.5-0.1-0.7l0,0
		c0.2-0.2,0.5-0.3,0.7-0.1l0,0c0.2,0.2,0.3,0.5,0.1,0.7l0,0c-0.1,0.1-0.2,0.2-0.4,0.2l0,0C74.4,10.5,74.3,10.4,74.2,10.4z M71.8,8.6
		c-0.2-0.1-0.3-0.5-0.1-0.7l0,0c0.2-0.2,0.5-0.3,0.7-0.1l0,0c0.2,0.2,0.3,0.5,0.1,0.7l0,0c-0.1,0.1-0.3,0.2-0.4,0.2l0,0
		C71.9,8.7,71.8,8.7,71.8,8.6z M69.2,7.1c-0.2-0.1-0.3-0.4-0.2-0.7l0,0c0.1-0.2,0.4-0.3,0.7-0.2l0,0c0.2,0.1,0.3,0.5,0.2,0.7l0,0
		c-0.1,0.2-0.3,0.3-0.4,0.3l0,0C69.4,7.1,69.3,7.1,69.2,7.1z M66.6,5.7L66.6,5.7L66.6,5.7c-0.3-0.1-0.4-0.4-0.2-0.7l0,0
		c0.1-0.2,0.4-0.3,0.7-0.2l0,0c0.3,0.1,0.4,0.4,0.2,0.7l0,0c-0.1,0.2-0.3,0.3-0.5,0.3l0,0C66.8,5.7,66.7,5.7,66.6,5.7z M63.9,4.4
		c-0.3-0.1-0.4-0.4-0.3-0.7l0,0c0.1-0.3,0.4-0.4,0.6-0.3l0,0c0.3,0.1,0.4,0.4,0.3,0.6l0,0c-0.1,0.2-0.3,0.3-0.5,0.3l0,0
		C64,4.5,64,4.5,63.9,4.4z M61.1,3.4c-0.3-0.1-0.4-0.4-0.3-0.6l0,0c0.1-0.3,0.4-0.4,0.6-0.3l0,0c0.3,0.1,0.4,0.4,0.3,0.6l0,0
		c-0.1,0.2-0.3,0.3-0.5,0.3l0,0C61.2,3.4,61.2,3.4,61.1,3.4z M58.3,2.5c-0.3-0.1-0.4-0.3-0.4-0.6l0,0c0.1-0.3,0.3-0.4,0.6-0.4l0,0
		c0.3,0.1,0.4,0.3,0.4,0.6l0,0c-0.1,0.2-0.3,0.4-0.5,0.4l0,0C58.4,2.5,58.3,2.5,58.3,2.5z M55.4,1.8L55.4,1.8L55.4,1.8
		c-0.3-0.1-0.4-0.3-0.4-0.6l0,0c0-0.3,0.3-0.5,0.6-0.4l0,0C55.8,0.9,56,1.2,56,1.4l0,0c-0.1,0.2-0.3,0.4-0.5,0.4l0,0
		C55.4,1.9,55.4,1.8,55.4,1.8z M52.4,1.4c-0.3,0-0.5-0.3-0.4-0.6l0,0c0-0.3,0.3-0.5,0.6-0.4l0,0c0.3,0,0.5,0.3,0.4,0.6l0,0
		C53,1.2,52.7,1.4,52.4,1.4L52.4,1.4C52.5,1.4,52.5,1.4,52.4,1.4z M49.5,1.1L49.5,1.1L49.5,1.1c-0.3,0-0.5-0.3-0.5-0.5l0,0
		c0-0.3,0.3-0.5,0.5-0.5l0,0c0.3,0,0.5,0.3,0.5,0.5l0,0C50,0.9,49.8,1.1,49.5,1.1L49.5,1.1C49.5,1.1,49.5,1.1,49.5,1.1z"/>
</g>
<g>
	<path class="st0" d="M0.5,43.9c-0.3,0-0.5-0.3-0.5-0.5l0,0c0-0.3,0.3-0.5,0.5-0.5l0,0c0.3,0,0.5,0.3,0.5,0.5l0,0
		C1.1,43.7,0.8,43.9,0.5,43.9L0.5,43.9C0.6,43.9,0.6,43.9,0.5,43.9z M0.8,40.9c-0.3,0-0.5-0.3-0.4-0.6l0,0c0-0.3,0.3-0.5,0.6-0.4
		l0,0c0.3,0,0.5,0.3,0.4,0.6l0,0l0,0l0,0C1.3,40.8,1.1,41,0.8,40.9L0.8,40.9C0.8,41,0.8,40.9,0.8,40.9z M1.3,38
		c-0.3-0.1-0.4-0.3-0.4-0.6l0,0c0.1-0.3,0.3-0.4,0.6-0.4l0,0c0.3,0,0.5,0.3,0.4,0.6l0,0C1.8,37.8,1.6,38,1.3,38L1.3,38
		C1.3,38,1.3,38,1.3,38z M1.9,35c-0.3-0.1-0.4-0.3-0.4-0.6v0c0.1-0.3,0.4-0.4,0.6-0.4l0,0c0.3,0.1,0.4,0.4,0.4,0.6l0,0l0,0l0,0
		C2.5,34.9,2.3,35,2,35l0,0C2,35,2,35,1.9,35z M2.8,32.1c-0.3-0.1-0.4-0.4-0.3-0.6l0,0c0.1-0.3,0.4-0.4,0.6-0.3l0,0
		c0.3,0.1,0.4,0.4,0.3,0.6l0,0c-0.1,0.2-0.3,0.3-0.5,0.3l0,0C2.9,32.2,2.8,32.2,2.8,32.1z M3.8,29.3c-0.3-0.1-0.4-0.4-0.3-0.6l0,0
		c0.1-0.3,0.4-0.4,0.6-0.3l0,0c0.3,0.1,0.4,0.4,0.3,0.6l0,0l0,0l0,0c-0.1,0.2-0.3,0.3-0.5,0.3l0,0C3.9,29.4,3.8,29.3,3.8,29.3z
		 M5,26.6c-0.3-0.1-0.4-0.4-0.2-0.7l0,0c0.1-0.2,0.4-0.4,0.7-0.2l0,0c0.3,0.1,0.4,0.4,0.2,0.7l0,0c-0.1,0.2-0.3,0.3-0.4,0.3l0,0
		C5.1,26.6,5.1,26.6,5,26.6z M6.4,23.9c-0.2-0.1-0.3-0.4-0.2-0.7l0,0C6.3,23,6.6,22.9,6.9,23l0,0c0.2,0.1,0.3,0.4,0.2,0.7l0,0l0,0
		l0,0C7,23.9,6.8,24,6.6,24l0,0C6.5,24,6.5,23.9,6.4,23.9z M7.9,21.3c-0.2-0.2-0.3-0.5-0.1-0.7l0,0c0.1-0.2,0.5-0.3,0.7-0.1l0,0
		c0.2,0.2,0.3,0.5,0.1,0.7l0,0c-0.1,0.1-0.3,0.2-0.4,0.2l0,0C8.1,21.4,8,21.4,7.9,21.3z M9.7,18.9c-0.2-0.2-0.3-0.5-0.1-0.7l0,0
		c0.2-0.2,0.5-0.3,0.7-0.1l0,0c0.2,0.2,0.3,0.5,0.1,0.7l0,0C10.3,18.9,10.1,19,10,19l0,0C9.9,19,9.8,18.9,9.7,18.9z M11.6,16.5
		c-0.2-0.2-0.2-0.5-0.1-0.7l0,0c0.2-0.2,0.5-0.2,0.7,0l0,0c0.2,0.2,0.2,0.5,0,0.7l0,0c-0.1,0.1-0.2,0.2-0.4,0.2l0,0
		C11.8,16.6,11.7,16.6,11.6,16.5z M13.6,14.3c-0.2-0.2-0.2-0.5,0-0.7l0,0c0.2-0.2,0.5-0.2,0.7,0l0,0c0.2,0.2,0.2,0.5,0,0.7l0,0
		c-0.1,0.1-0.2,0.2-0.4,0.2l0,0C13.8,14.5,13.7,14.4,13.6,14.3z M15.8,12.2c-0.2-0.2-0.2-0.5,0-0.7l0,0c0.2-0.2,0.5-0.2,0.7,0l0,0
		c0.2,0.2,0.2,0.5-0.1,0.7l0,0l0,0l0,0c-0.1,0.1-0.2,0.1-0.3,0.1l0,0C16,12.4,15.9,12.3,15.8,12.2z M18.1,10.3
		c-0.2-0.2-0.1-0.5,0.1-0.7l0,0c0.2-0.2,0.5-0.1,0.7,0.1l0,0c0.2,0.2,0.1,0.5-0.1,0.7l0,0c-0.1,0.1-0.2,0.1-0.3,0.1l0,0
		C18.3,10.5,18.2,10.4,18.1,10.3z M20.5,8.5c-0.2-0.2-0.1-0.5,0.1-0.7l0,0c0.2-0.1,0.5-0.1,0.7,0.1l0,0c0.2,0.2,0.1,0.5-0.1,0.7l0,0
		l0,0l0,0c-0.1,0-0.2,0.1-0.3,0.1l0,0C20.8,8.7,20.6,8.6,20.5,8.5z M23,6.9c-0.1-0.2-0.1-0.5,0.2-0.7l0,0c0.2-0.1,0.5,0,0.7,0.2l0,0
		C24,6.6,24,6.9,23.7,7.1l0,0c-0.1,0-0.2,0.1-0.3,0.1l0,0C23.3,7.1,23.1,7,23,6.9z M25.7,5.4c-0.1-0.3,0-0.6,0.2-0.7l0,0
		c0.3-0.1,0.5,0,0.7,0.2l0,0c0.1,0.3,0,0.5-0.2,0.7l0,0c-0.1,0-0.1,0.1-0.2,0.1l0,0C25.9,5.7,25.8,5.6,25.7,5.4z M28.4,4.2
		c-0.1-0.3,0-0.5,0.3-0.6l0,0c0.3-0.1,0.5,0,0.6,0.3l0,0c0.1,0.3,0,0.5-0.3,0.6l0,0c-0.1,0-0.1,0-0.2,0l0,0
		C28.7,4.5,28.5,4.3,28.4,4.2z M31.2,3.1c-0.1-0.3,0-0.5,0.3-0.6l0,0c0.3-0.1,0.5,0.1,0.6,0.3l0,0c0.1,0.3,0,0.5-0.3,0.6l0,0
		c-0.1,0-0.1,0-0.2,0l0,0C31.5,3.4,31.3,3.3,31.2,3.1z M34.1,2.2c-0.1-0.3,0.1-0.5,0.4-0.6l0,0c0.3-0.1,0.5,0.1,0.6,0.4l0,0
		c0.1,0.3-0.1,0.5-0.4,0.6l0,0l0,0l0,0c0,0-0.1,0-0.1,0l0,0C34.4,2.5,34.1,2.4,34.1,2.2z M37,1.4c0-0.3,0.1-0.5,0.4-0.6l0,0
		C37.7,0.8,37.9,1,38,1.3l0,0c0.1,0.3-0.1,0.5-0.4,0.6l0,0c0,0,0,0,0,0l0,0c0,0-0.1,0-0.1,0l0,0C37.3,1.8,37.1,1.7,37,1.4z M40,0.9
		c0-0.3,0.2-0.5,0.4-0.6h0c0.3,0,0.5,0.2,0.6,0.4l0,0c0,0.3-0.1,0.5-0.4,0.6l0,0l0,0l0,0c0,0,0,0-0.1,0l0,0C40.2,1.4,40,1.2,40,0.9z
		 M43,0.6c0-0.3,0.2-0.5,0.5-0.5l0,0c0.3,0,0.5,0.2,0.5,0.5l0,0c0,0.3-0.2,0.5-0.5,0.5l0,0c0,0,0,0,0,0l0,0C43.2,1.1,43,0.9,43,0.6z
		"/>
</g>
<g>
	<path class="st0" d="M43.4,92.9c-0.3,0-0.5-0.3-0.5-0.5l0,0c0-0.3,0.3-0.5,0.5-0.5l0,0c0.3,0,0.5,0.3,0.5,0.5l0,0
		C43.9,92.7,43.7,92.9,43.4,92.9L43.4,92.9C43.4,92.9,43.4,92.9,43.4,92.9z M40.4,92.6c-0.3,0-0.5-0.3-0.4-0.6l0,0
		c0-0.3,0.3-0.5,0.6-0.4l0,0c0.3,0,0.5,0.3,0.4,0.6l0,0C40.9,92.4,40.7,92.6,40.4,92.6L40.4,92.6C40.4,92.6,40.4,92.6,40.4,92.6z
		 M37.4,92.1c-0.3,0-0.4-0.3-0.4-0.6l0,0c0.1-0.3,0.3-0.4,0.6-0.4l0,0l0,0l0,0c0.3,0.1,0.4,0.3,0.4,0.6l0,0c0,0.2-0.3,0.4-0.5,0.4
		l0,0C37.5,92.1,37.4,92.1,37.4,92.1z M34.4,91.4c-0.3-0.1-0.4-0.3-0.4-0.6l0,0c0.1-0.3,0.3-0.4,0.6-0.4l0,0
		c0.3,0.1,0.4,0.3,0.4,0.6l0,0c-0.1,0.2-0.3,0.4-0.5,0.4l0,0C34.5,91.4,34.5,91.4,34.4,91.4z M31.5,90.5L31.5,90.5
		c-0.3-0.1-0.4-0.4-0.3-0.6l0,0c0.1-0.3,0.4-0.4,0.6-0.3l0,0l0,0l0,0c0.3,0.1,0.4,0.4,0.3,0.6l0,0c-0.1,0.2-0.3,0.3-0.5,0.3l0,0
		C31.6,90.5,31.6,90.5,31.5,90.5z M28.7,89.4c-0.3-0.1-0.4-0.4-0.3-0.7l0,0c0.1-0.3,0.4-0.4,0.7-0.3l0,0c0.3,0.1,0.4,0.4,0.3,0.7
		l0,0c-0.1,0.2-0.3,0.3-0.5,0.3l0,0C28.8,89.5,28.7,89.5,28.7,89.4z M25.9,88.2c-0.3-0.1-0.4-0.4-0.2-0.7l0,0
		c0.1-0.3,0.4-0.3,0.7-0.2l0,0c0.3,0.1,0.4,0.4,0.2,0.7l0,0c-0.1,0.2-0.3,0.3-0.5,0.3l0,0C26,88.2,26,88.2,25.9,88.2z M23.2,86.7
		c-0.2-0.1-0.3-0.4-0.2-0.7l0,0c0.1-0.2,0.4-0.3,0.7-0.2l0,0c0.2,0.1,0.3,0.4,0.2,0.7l0,0c-0.1,0.2-0.3,0.3-0.4,0.3l0,0
		C23.4,86.8,23.3,86.8,23.2,86.7z M20.6,85.1c-0.2-0.2-0.3-0.5-0.1-0.7l0,0c0.1-0.2,0.5-0.3,0.7-0.1l0,0c0.2,0.2,0.3,0.5,0.1,0.7
		l0,0c-0.1,0.1-0.3,0.2-0.4,0.2l0,0C20.8,85.2,20.7,85.2,20.6,85.1z M18.2,83.4c-0.2-0.2-0.3-0.5-0.1-0.7l0,0
		c0.2-0.2,0.5-0.3,0.7-0.1l0,0c0.2,0.2,0.3,0.5,0.1,0.7l0,0c-0.1,0.1-0.3,0.2-0.4,0.2l0,0C18.4,83.5,18.3,83.4,18.2,83.4z
		 M15.8,81.4c-0.2-0.2-0.2-0.5,0-0.7l0,0c0.2-0.2,0.5-0.2,0.7-0.1l0,0c0.2,0.2,0.2,0.5,0,0.7l0,0c-0.1,0.1-0.2,0.2-0.4,0.2l0,0
		C16,81.6,15.9,81.5,15.8,81.4z M13.6,79.4c-0.2-0.2-0.2-0.5,0-0.7l0,0c0.2-0.2,0.5-0.2,0.7,0l0,0c0.2,0.2,0.2,0.5,0,0.7l0,0
		c-0.1,0.1-0.2,0.2-0.4,0.2l0,0C13.8,79.5,13.7,79.5,13.6,79.4z M11.5,77.1L11.5,77.1c-0.2-0.2-0.2-0.5,0-0.7l0,0
		c0.2-0.2,0.5-0.2,0.7,0l0,0l0,0l0,0c0.2,0.2,0.2,0.5-0.1,0.7l0,0c-0.1,0.1-0.2,0.1-0.3,0.1l0,0C11.8,77.3,11.6,77.2,11.5,77.1z
		 M9.6,74.8c-0.2-0.2-0.1-0.5,0.1-0.7l0,0c0.2-0.2,0.5-0.1,0.7,0.1l0,0c0.2,0.2,0.1,0.5-0.1,0.7l0,0C10.2,74.9,10.1,75,10,75l0,0
		C9.8,75,9.7,74.9,9.6,74.8z M7.8,72.3c-0.2-0.2-0.1-0.5,0.1-0.7l0,0c0.2-0.2,0.5-0.1,0.7,0.1l0,0l0,0l0,0c0.2,0.2,0.1,0.5-0.1,0.7
		l0,0c-0.1,0-0.2,0.1-0.3,0.1l0,0C8.1,72.5,7.9,72.5,7.8,72.3z M6.2,69.7c-0.1-0.2-0.1-0.5,0.2-0.7l0,0c0.2-0.1,0.5,0,0.7,0.2l0,0
		c0.1,0.2,0.1,0.5-0.2,0.7l0,0C6.8,70,6.7,70,6.6,70l0,0C6.5,70,6.3,69.9,6.2,69.7z M4.8,67c-0.1-0.3,0-0.5,0.2-0.7l0,0
		c0.2-0.1,0.5,0,0.7,0.2l0,0c0.1,0.2,0,0.5-0.2,0.7l0,0c-0.1,0-0.1,0-0.2,0l0,0C5,67.3,4.9,67.2,4.8,67z M3.5,64.3L3.5,64.3
		c-0.1-0.3,0-0.5,0.3-0.7l0,0c0.3-0.1,0.5,0,0.7,0.3l0,0c0,0,0,0,0,0l0,0c0.1,0.3,0,0.6-0.3,0.7l0,0c-0.1,0-0.1,0-0.2,0l0,0
		C3.8,64.6,3.6,64.5,3.5,64.3z M2.4,61.4c-0.1-0.3,0.1-0.5,0.3-0.6l0,0c0.3-0.1,0.6,0.1,0.6,0.3l0,0c0.1,0.3,0,0.6-0.3,0.6l0,0
		c-0.1,0-0.1,0-0.2,0l0,0C2.7,61.8,2.5,61.6,2.4,61.4z M1.6,58.5c-0.1-0.3,0.1-0.5,0.4-0.6l0,0c0.3-0.1,0.5,0.1,0.6,0.4l0,0
		c0.1,0.3-0.1,0.5-0.4,0.6l0,0c0,0-0.1,0-0.1,0l0,0C1.8,58.9,1.6,58.7,1.6,58.5z M0.9,55.5C0.8,55.3,1,55,1.3,55l0,0
		c0.3-0.1,0.5,0.1,0.6,0.4l0,0c0,0.3-0.1,0.5-0.4,0.6l0,0c0,0-0.1,0-0.1,0l0,0C1.1,55.9,0.9,55.8,0.9,55.5z M0.4,52.5L0.4,52.5
		c0-0.3,0.2-0.5,0.4-0.6l0,0c0.3,0,0.5,0.1,0.6,0.4l0,0l0,0l0,0c0,0.3-0.2,0.5-0.4,0.6l0,0c0,0,0,0-0.1,0l0,0
		C0.6,53,0.4,52.8,0.4,52.5z M0.1,49.5c0-0.3,0.2-0.5,0.5-0.5l0,0c0.3,0,0.5,0.2,0.5,0.5l0,0c0,0.3-0.2,0.5-0.5,0.5l0,0c0,0,0,0,0,0
		l0,0C0.3,50,0.1,49.8,0.1,49.5z"/>
</g>
<path class="st1" d="M46.5,92.5L46.5,92.5 M0.5,46.5L0.5,46.5 M46.5,0.5L46.5,0.5 M92.5,46.5L92.5,46.5"/>
<path class="st2" d="M21.4,70.8c-0.7,0.7-1.8,0.7-2.5,0c-0.7-0.7-0.7-1.8,0-2.5l25.9-25.9l2.5,2.5L21.4,70.8z M50.2,29.2l9.7,9.7
	L55.9,43l-4.1,4.1l-9.7-9.7L50.2,29.2z M38.2,36.8c-0.2-0.2-0.3-0.4-0.4-0.7c-0.1-0.3-0.2-0.6-0.4-0.8l10.7-10.7
	c0.3,0.2,0.5,0.3,0.8,0.4c0.3,0.1,0.5,0.2,0.7,0.4c0.6,0.6,0.5,1.6-0.1,2.2l-9.1,9.1C39.9,37.3,38.9,37.3,38.2,36.8 M34.8,33.3
	c-0.6-0.6-0.5-1.6,0.1-2.2l9.1-9.1c0.3-0.3,0.8-0.5,1.2-0.5c0.4,0,0.8,0.1,1.1,0.4c0.2,0.2,0.3,0.4,0.4,0.7c0.1,0.3,0.2,0.6,0.4,0.8
	L36.3,34.1c-0.3-0.2-0.5-0.3-0.8-0.4C35.2,33.6,34.9,33.5,34.8,33.3 M63.8,39.5c0.2,0.2,0.3,0.4,0.4,0.7c0.1,0.3,0.2,0.6,0.4,0.8
	L53.9,51.7c-0.3-0.2-0.5-0.3-0.8-0.4c-0.3-0.1-0.5-0.2-0.7-0.4c-0.6-0.6-0.5-1.6,0.1-2.2l4.5-4.5l4.5-4.5c0.3-0.3,0.8-0.5,1.2-0.5
	C63.1,39.1,63.5,39.2,63.8,39.5 M67.3,43L67.3,43c0.6,0.6,0.5,1.6-0.1,2.2l-9.1,9.1c-0.6,0.6-1.6,0.7-2.2,0.1
	c-0.2-0.2-0.3-0.4-0.4-0.7c-0.1-0.3-0.2-0.6-0.4-0.8l10.7-10.7c0.3,0.2,0.5,0.3,0.8,0.4C66.8,42.6,67.1,42.8,67.3,43 M50.7,48.3
	c-0.6,1.2-0.5,2.7,0.5,3.7c0.4,0.4,0.8,0.7,1.4,0.9c0.6,0.2,1.1,0.7,1.3,1.3c0.2,0.5,0.5,1,0.9,1.4c0.6,0.6,1.4,0.8,2.2,0.8
	c0.8,0,1.7-0.3,2.3-1l9.1-9.1c1.2-1.2,1.3-3.2,0.1-4.5c-0.4-0.4-0.8-0.7-1.4-0.9c-0.6-0.2-1.1-0.7-1.3-1.3c-0.2-0.5-0.5-1-0.9-1.4
	c-1-0.9-2.5-1.1-3.7-0.5l-9.9-9.9c0.6-1.2,0.5-2.7-0.5-3.7c-0.4-0.4-0.8-0.7-1.4-0.9c-0.6-0.2-1.1-0.7-1.3-1.3
	c-0.2-0.5-0.5-1-0.9-1.4c-1.2-1.2-3.3-1.1-4.5,0.1l-9.1,9.1c-1.2,1.2-1.3,3.2-0.1,4.5c0.4,0.4,0.8,0.7,1.4,0.9
	c0.6,0.2,1.1,0.7,1.3,1.3c0.2,0.5,0.5,1,0.9,1.4c0.6,0.6,1.4,0.8,2.2,0.8c0.5,0,1-0.1,1.5-0.4l2.8,2.8L17.7,67.1
	c-1.3,1.3-1.3,3.5,0,4.8c0.7,0.7,1.5,1,2.4,1c0.9,0,1.7-0.3,2.4-1L48.4,46L50.7,48.3z"/>
<path class="st2" d="M43.2,73H71v1.8H43.2V73z M46.2,68.5H68l2.2,2.9H44L46.2,68.5z M46.6,66.3h21v0.6h-21V66.3z M72.7,72.2
	c0-0.2-0.1-0.3-0.2-0.5l-3.3-4.3v-2c0-0.4-0.4-0.8-0.8-0.8H45.8c-0.4,0-0.8,0.4-0.8,0.8v2l-3.3,4.3c-0.1,0.1-0.2,0.3-0.2,0.5l0,3.4
	c0,0.4,0.4,0.8,0.8,0.8h29.5c0.4,0,0.8-0.4,0.8-0.8L72.7,72.2z"/>
<path class="st2" d="M56.5,39.3c0.2,0.2,0.4,0.2,0.6,0.2c0.2,0,0.4-0.1,0.6-0.2c0.3-0.3,0.3-0.8,0-1.1L51,31.5
	c-0.3-0.3-0.8-0.3-1.1,0s-0.3,0.8,0,1.1L56.5,39.3z"/>
</svg>
