<?xml version="1.0" encoding="utf-8"?>
<!-- Generator: Adobe Illustrator 22.1.0, SVG Export Plug-In . SVG Version: 6.00 Build 0)  -->
<svg version="1.1" id="Capa_1" xmlns="http://www.w3.org/2000/svg" xmlns:xlink="http://www.w3.org/1999/xlink" x="0px" y="0px"
	 viewBox="0 0 93 93" style="enable-background:new 0 0 93 93;" xml:space="preserve">
<style type="text/css">
	.st0{fill:none;stroke:#6F6F6E;stroke-linecap:round;stroke-linejoin:round;stroke-dasharray:0,3.011;}
	.st1{fill:none;stroke:#6F6F6E;stroke-linecap:round;stroke-linejoin:round;}
	.st2{fill:#010000;}
</style>
<g>
	<path class="st0" d="M49.5,92.4C73,90.9,91.7,71.7,92.5,48"/>
	<path class="st0" d="M92.4,43.5C90.9,20,71.7,1.3,48,0.5"/>
	<path class="st0" d="M43.5,0.6C20,2.1,1.3,21.3,0.5,45"/>
	<path class="st0" d="M0.6,49.5C2.1,73,21.3,91.7,45,92.5"/>
	<path class="st1" d="M46.5,92.5L46.5,92.5 M0.5,46.5L0.5,46.5 M46.5,0.5L46.5,0.5 M92.5,46.5L92.5,46.5"/>
	<path class="st2" d="M61.2,46.4H44.9v-1.6c0-2.7,2.2-4.9,4.9-4.9h6.5c2.7,0,4.9,2.2,4.9,4.9V46.4z M53,30.1c1.8,0,3.3,1.5,3.3,3.3
		c0,1.8-1.5,3.3-3.3,3.3s-3.3-1.5-3.3-3.3C49.8,31.6,51.2,30.1,53,30.1 M58.5,36.9c0.7-1,1.1-2.3,1.1-3.6c0-3.6-2.9-6.5-6.5-6.5
		s-6.5,2.9-6.5,6.5c0,1.3,0.4,2.5,1.1,3.6c-3.4,1-6,4.1-6,7.9v3.3c0,0.9,0.7,1.6,1.6,1.6h19.6c0.9,0,1.6-0.7,1.6-1.6v-3.3
		C64.5,41.1,62,37.9,58.5,36.9"/>
	<path class="st2" d="M53,56.2c-9,0-16.3-7.3-16.3-16.3S44,23.6,53,23.6c9,0,16.3,7.3,16.3,16.3C69.4,48.9,62.1,56.2,53,56.2
		 M37.4,57.9l-2.3-2.3l3-3c0.7,0.8,1.5,1.6,2.3,2.3L37.4,57.9z M22.9,72.3c-0.6,0.6-1.7,0.6-2.3,0c-0.6-0.6-0.6-1.7,0-2.3l12.1-12.1
		l2.3,2.3L22.9,72.3z M53,20.3c-10.8,0-19.6,8.8-19.6,19.6c0,3.6,1,7,2.7,10L18.3,67.7c-1.9,1.9-1.9,5,0,6.9c1.9,1.9,5,1.9,6.9,0
		c0.9-0.9,16.9-16.9,17.8-17.8c2.9,1.7,6.3,2.7,10,2.7c10.8,0,19.6-8.8,19.6-19.6C72.7,29.1,63.9,20.3,53,20.3"/>
</g>
</svg>
