<?xml version="1.0" encoding="utf-8"?>
<!-- Generator: Adobe Illustrator 22.1.0, SVG Export Plug-In . SVG Version: 6.00 Build 0)  -->
<svg version="1.1" id="Capa_1" xmlns="http://www.w3.org/2000/svg" xmlns:xlink="http://www.w3.org/1999/xlink" x="0px" y="0px"
	 viewBox="0 0 292.9 296.7" style="enable-background:new 0 0 292.9 296.7;" xml:space="preserve">
<style type="text/css">
	.st0{fill:#999999;}
</style>
<g>
	<path class="st0" d="M80.7,212.3c0,2-1.7,3.7-3.7,3.7s-3.7-1.7-3.7-3.7c0-2,1.7-3.7,3.7-3.7S80.7,210.2,80.7,212.3"/>
	<path class="st0" d="M90.8,212.3c0,2-1.7,3.7-3.7,3.7s-3.7-1.7-3.7-3.7c0-2,1.7-3.7,3.7-3.7S90.8,210.2,90.8,212.3"/>
	<path class="st0" d="M90.8,222.7c0,2-1.7,3.7-3.7,3.7s-3.7-1.7-3.7-3.7s1.7-3.7,3.7-3.7S90.8,220.7,90.8,222.7"/>
	<path class="st0" d="M100.9,212.3c0,2-1.7,3.7-3.7,3.7s-3.7-1.7-3.7-3.7c0-2,1.7-3.7,3.7-3.7S100.9,210.2,100.9,212.3"/>
	<path class="st0" d="M111.3,212.3c0,2-1.7,3.7-3.7,3.7s-3.7-1.7-3.7-3.7c0-2,1.7-3.7,3.7-3.7S111.3,210.2,111.3,212.3"/>
	<path class="st0" d="M121.4,212.3c0,2-1.7,3.7-3.7,3.7s-3.7-1.7-3.7-3.7c0-2,1.7-3.7,3.7-3.7S121.4,210.2,121.4,212.3"/>
	<path class="st0" d="M131.5,212.3c0,2-1.7,3.7-3.7,3.7c-2,0-3.7-1.7-3.7-3.7c0-2,1.7-3.7,3.7-3.7
		C129.8,208.6,131.5,210.2,131.5,212.3"/>
	<path class="st0" d="M141.1,212.3c0,2-1.7,3.7-3.7,3.7s-3.7-1.7-3.7-3.7c0-2,1.7-3.7,3.7-3.7S141.1,210.2,141.1,212.3"/>
	<path class="st0" d="M151.2,212.3c0,2-1.7,3.7-3.7,3.7s-3.7-1.7-3.7-3.7c0-2,1.7-3.7,3.7-3.7S151.2,210.2,151.2,212.3"/>
	<path class="st0" d="M161.3,212.3c0,2-1.7,3.7-3.7,3.7s-3.7-1.7-3.7-3.7c0-2,1.7-3.7,3.7-3.7S161.3,210.2,161.3,212.3"/>
	<path class="st0" d="M171.7,212.3c0,2-1.7,3.7-3.7,3.7s-3.7-1.7-3.7-3.7c0-2,1.7-3.7,3.7-3.7S171.7,210.2,171.7,212.3"/>
	<path class="st0" d="M181.8,212.3c0,2-1.7,3.7-3.7,3.7s-3.7-1.7-3.7-3.7c0-2,1.7-3.7,3.7-3.7S181.8,210.2,181.8,212.3"/>
	<path class="st0" d="M191.9,212.3c0,2-1.7,3.7-3.7,3.7s-3.7-1.7-3.7-3.7c0-2,1.7-3.7,3.7-3.7S191.9,210.2,191.9,212.3"/>
	<path class="st0" d="M80.7,222.7c0,2-1.7,3.7-3.7,3.7s-3.7-1.7-3.7-3.7S75,219,77,219S80.7,220.7,80.7,222.7"/>
	<path class="st0" d="M100.9,222.7c0,2-1.7,3.7-3.7,3.7s-3.7-1.7-3.7-3.7s1.7-3.7,3.7-3.7S100.9,220.7,100.9,222.7"/>
	<path class="st0" d="M111.3,222.7c0,2-1.7,3.7-3.7,3.7s-3.7-1.7-3.7-3.7s1.7-3.7,3.7-3.7S111.3,220.7,111.3,222.7"/>
	<path class="st0" d="M121.4,222.7c0,2-1.7,3.7-3.7,3.7s-3.7-1.7-3.7-3.7s1.7-3.7,3.7-3.7S121.4,220.7,121.4,222.7"/>
	<path class="st0" d="M131.5,222.7c0,2-1.7,3.7-3.7,3.7c-2,0-3.7-1.7-3.7-3.7s1.7-3.7,3.7-3.7C129.8,219,131.5,220.7,131.5,222.7"/>
	<path class="st0" d="M141.1,222.7c0,2-1.7,3.7-3.7,3.7s-3.7-1.7-3.7-3.7s1.7-3.7,3.7-3.7S141.1,220.7,141.1,222.7"/>
	<path class="st0" d="M151.2,222.7c0,2-1.7,3.7-3.7,3.7s-3.7-1.7-3.7-3.7s1.7-3.7,3.7-3.7S151.2,220.7,151.2,222.7"/>
	<path class="st0" d="M161.3,222.7c0,2-1.7,3.7-3.7,3.7s-3.7-1.7-3.7-3.7s1.7-3.7,3.7-3.7S161.3,220.7,161.3,222.7"/>
	<path class="st0" d="M171.7,222.7c0,2-1.7,3.7-3.7,3.7s-3.7-1.7-3.7-3.7s1.7-3.7,3.7-3.7S171.7,220.7,171.7,222.7"/>
	<path class="st0" d="M171.7,282.5c0,2-1.7,3.7-3.7,3.7s-3.7-1.7-3.7-3.7c0-2,1.7-3.7,3.7-3.7S171.7,280.5,171.7,282.5"/>
	<path class="st0" d="M171.7,293c0,2-1.7,3.7-3.7,3.7s-3.7-1.7-3.7-3.7c0-2,1.7-3.7,3.7-3.7S171.7,291,171.7,293"/>
	<path class="st0" d="M181.8,222.7c0,2-1.7,3.7-3.7,3.7s-3.7-1.7-3.7-3.7s1.7-3.7,3.7-3.7S181.8,220.7,181.8,222.7"/>
	<path class="st0" d="M181.8,282.5c0,2-1.7,3.7-3.7,3.7s-3.7-1.7-3.7-3.7c0-2,1.7-3.7,3.7-3.7S181.8,280.5,181.8,282.5"/>
	<path class="st0" d="M181.8,293c0,2-1.7,3.7-3.7,3.7s-3.7-1.7-3.7-3.7c0-2,1.7-3.7,3.7-3.7S181.8,291,181.8,293"/>
	<path class="st0" d="M191.9,222.7c0,2-1.7,3.7-3.7,3.7s-3.7-1.7-3.7-3.7s1.7-3.7,3.7-3.7S191.9,220.7,191.9,222.7"/>
	<path class="st0" d="M131.5,191.6c0,2-1.7,3.7-3.7,3.7c-2,0-3.7-1.7-3.7-3.7c0-2,1.7-3.7,3.7-3.7
		C129.8,187.9,131.5,189.5,131.5,191.6"/>
	<path class="st0" d="M141.1,191.6c0,2-1.7,3.7-3.7,3.7s-3.7-1.7-3.7-3.7c0-2,1.7-3.7,3.7-3.7S141.1,189.5,141.1,191.6"/>
	<path class="st0" d="M151.2,191.6c0,2-1.7,3.7-3.7,3.7s-3.7-1.7-3.7-3.7c0-2,1.7-3.7,3.7-3.7S151.2,189.5,151.2,191.6"/>
	<path class="st0" d="M161.3,191.6c0,2-1.7,3.7-3.7,3.7s-3.7-1.7-3.7-3.7c0-2,1.7-3.7,3.7-3.7S161.3,189.5,161.3,191.6"/>
	<path class="st0" d="M171.7,191.6c0,2-1.7,3.7-3.7,3.7s-3.7-1.7-3.7-3.7c0-2,1.7-3.7,3.7-3.7S171.7,189.5,171.7,191.6"/>
	<path class="st0" d="M181.8,191.6c0,2-1.7,3.7-3.7,3.7s-3.7-1.7-3.7-3.7c0-2,1.7-3.7,3.7-3.7S181.8,189.5,181.8,191.6"/>
	<path class="st0" d="M191.9,191.6c0,2-1.7,3.7-3.7,3.7s-3.7-1.7-3.7-3.7c0-2,1.7-3.7,3.7-3.7S191.9,189.5,191.9,191.6"/>
	<path class="st0" d="M131.5,202c0,2-1.7,3.7-3.7,3.7c-2,0-3.7-1.7-3.7-3.7c0-2,1.7-3.7,3.7-3.7C129.8,198.4,131.5,200,131.5,202"/>
	<path class="st0" d="M141.1,202c0,2-1.7,3.7-3.7,3.7s-3.7-1.7-3.7-3.7c0-2,1.7-3.7,3.7-3.7S141.1,200,141.1,202"/>
	<path class="st0" d="M151.2,202c0,2-1.7,3.7-3.7,3.7s-3.7-1.7-3.7-3.7c0-2,1.7-3.7,3.7-3.7S151.2,200,151.2,202"/>
	<path class="st0" d="M161.3,202c0,2-1.7,3.7-3.7,3.7s-3.7-1.7-3.7-3.7c0-2,1.7-3.7,3.7-3.7S161.3,200,161.3,202"/>
	<path class="st0" d="M171.7,202c0,2-1.7,3.7-3.7,3.7s-3.7-1.7-3.7-3.7c0-2,1.7-3.7,3.7-3.7S171.7,200,171.7,202"/>
	<path class="st0" d="M181.8,202c0,2-1.7,3.7-3.7,3.7s-3.7-1.7-3.7-3.7c0-2,1.7-3.7,3.7-3.7S181.8,200,181.8,202"/>
	<path class="st0" d="M191.9,202c0,2-1.7,3.7-3.7,3.7s-3.7-1.7-3.7-3.7c0-2,1.7-3.7,3.7-3.7S191.9,200,191.9,202"/>
	<path class="st0" d="M131.5,170.9c0,2-1.7,3.7-3.7,3.7c-2,0-3.7-1.7-3.7-3.7c0-2,1.7-3.7,3.7-3.7
		C129.8,167.2,131.5,168.8,131.5,170.9"/>
	<path class="st0" d="M141.1,170.9c0,2-1.7,3.7-3.7,3.7s-3.7-1.7-3.7-3.7c0-2,1.7-3.7,3.7-3.7S141.1,168.8,141.1,170.9"/>
	<path class="st0" d="M151.2,170.9c0,2-1.7,3.7-3.7,3.7s-3.7-1.7-3.7-3.7c0-2,1.7-3.7,3.7-3.7S151.2,168.8,151.2,170.9"/>
	<path class="st0" d="M161.3,170.9c0,2-1.7,3.7-3.7,3.7s-3.7-1.7-3.7-3.7c0-2,1.7-3.7,3.7-3.7S161.3,168.8,161.3,170.9"/>
	<path class="st0" d="M171.7,170.9c0,2-1.7,3.7-3.7,3.7s-3.7-1.7-3.7-3.7c0-2,1.7-3.7,3.7-3.7S171.7,168.8,171.7,170.9"/>
	<path class="st0" d="M181.8,170.9c0,2-1.7,3.7-3.7,3.7s-3.7-1.7-3.7-3.7c0-2,1.7-3.7,3.7-3.7S181.8,168.8,181.8,170.9"/>
	<path class="st0" d="M191.9,170.9c0,2-1.7,3.7-3.7,3.7s-3.7-1.7-3.7-3.7c0-2,1.7-3.7,3.7-3.7S191.9,168.8,191.9,170.9"/>
	<path class="st0" d="M131.5,181.4c0,2-1.7,3.7-3.7,3.7c-2,0-3.7-1.7-3.7-3.7s1.7-3.7,3.7-3.7C129.8,177.7,131.5,179.3,131.5,181.4"
		/>
	<path class="st0" d="M141.1,181.4c0,2-1.7,3.7-3.7,3.7s-3.7-1.7-3.7-3.7s1.7-3.7,3.7-3.7S141.1,179.3,141.1,181.4"/>
	<path class="st0" d="M151.2,181.4c0,2-1.7,3.7-3.7,3.7s-3.7-1.7-3.7-3.7s1.7-3.7,3.7-3.7S151.2,179.3,151.2,181.4"/>
	<path class="st0" d="M161.3,181.4c0,2-1.7,3.7-3.7,3.7s-3.7-1.7-3.7-3.7s1.7-3.7,3.7-3.7S161.3,179.3,161.3,181.4"/>
	<path class="st0" d="M171.7,181.4c0,2-1.7,3.7-3.7,3.7s-3.7-1.7-3.7-3.7s1.7-3.7,3.7-3.7S171.7,179.3,171.7,181.4"/>
	<path class="st0" d="M181.8,181.4c0,2-1.7,3.7-3.7,3.7s-3.7-1.7-3.7-3.7s1.7-3.7,3.7-3.7S181.8,179.3,181.8,181.4"/>
	<path class="st0" d="M191.9,181.4c0,2-1.7,3.7-3.7,3.7s-3.7-1.7-3.7-3.7s1.7-3.7,3.7-3.7S191.9,179.3,191.9,181.4"/>
	<path class="st0" d="M90.8,232.7c0,2-1.7,3.7-3.7,3.7s-3.7-1.7-3.7-3.7c0-2,1.7-3.7,3.7-3.7S90.8,230.6,90.8,232.7"/>
	<path class="st0" d="M100.9,232.7c0,2-1.7,3.7-3.7,3.7s-3.7-1.7-3.7-3.7c0-2,1.7-3.7,3.7-3.7S100.9,230.6,100.9,232.7"/>
	<path class="st0" d="M111.3,232.7c0,2-1.7,3.7-3.7,3.7s-3.7-1.7-3.7-3.7c0-2,1.7-3.7,3.7-3.7S111.3,230.6,111.3,232.7"/>
	<path class="st0" d="M121.4,232.7c0,2-1.7,3.7-3.7,3.7s-3.7-1.7-3.7-3.7c0-2,1.7-3.7,3.7-3.7S121.4,230.6,121.4,232.7"/>
	<path class="st0" d="M100.9,181.4c0,2-1.7,3.7-3.7,3.7s-3.7-1.7-3.7-3.7s1.7-3.7,3.7-3.7S100.9,179.3,100.9,181.4"/>
	<path class="st0" d="M111.3,181.4c0,2-1.7,3.7-3.7,3.7s-3.7-1.7-3.7-3.7s1.7-3.7,3.7-3.7S111.3,179.3,111.3,181.4"/>
	<path class="st0" d="M121.4,181.4c0,2-1.7,3.7-3.7,3.7s-3.7-1.7-3.7-3.7s1.7-3.7,3.7-3.7S121.4,179.3,121.4,181.4"/>
	<path class="st0" d="M100.9,170.9c0,2-1.7,3.7-3.7,3.7s-3.7-1.7-3.7-3.7c0-2,1.7-3.7,3.7-3.7S100.9,168.8,100.9,170.9"/>
	<path class="st0" d="M111.3,170.9c0,2-1.7,3.7-3.7,3.7s-3.7-1.7-3.7-3.7c0-2,1.7-3.7,3.7-3.7S111.3,168.8,111.3,170.9"/>
	<path class="st0" d="M121.4,170.9c0,2-1.7,3.7-3.7,3.7s-3.7-1.7-3.7-3.7c0-2,1.7-3.7,3.7-3.7S121.4,168.8,121.4,170.9"/>
	<path class="st0" d="M100.9,191.8c0,2-1.7,3.7-3.7,3.7s-3.7-1.7-3.7-3.7s1.7-3.7,3.7-3.7S100.9,189.8,100.9,191.8"/>
	<path class="st0" d="M111.3,191.8c0,2-1.7,3.7-3.7,3.7s-3.7-1.7-3.7-3.7s1.7-3.7,3.7-3.7S111.3,189.8,111.3,191.8"/>
	<path class="st0" d="M121.4,191.8c0,2-1.7,3.7-3.7,3.7s-3.7-1.7-3.7-3.7s1.7-3.7,3.7-3.7S121.4,189.8,121.4,191.8"/>
	<path class="st0" d="M100.9,201.8c0,2-1.7,3.7-3.7,3.7s-3.7-1.7-3.7-3.7c0-2,1.7-3.7,3.7-3.7S100.9,199.7,100.9,201.8"/>
	<path class="st0" d="M111.3,201.8c0,2-1.7,3.7-3.7,3.7s-3.7-1.7-3.7-3.7c0-2,1.7-3.7,3.7-3.7S111.3,199.7,111.3,201.8"/>
	<path class="st0" d="M121.4,201.8c0,2-1.7,3.7-3.7,3.7s-3.7-1.7-3.7-3.7c0-2,1.7-3.7,3.7-3.7S121.4,199.7,121.4,201.8"/>
	<path class="st0" d="M100.9,160.2c0,2-1.7,3.7-3.7,3.7s-3.7-1.7-3.7-3.7c0-2,1.7-3.7,3.7-3.7S100.9,158.1,100.9,160.2"/>
	<path class="st0" d="M111.3,160.2c0,2-1.7,3.7-3.7,3.7s-3.7-1.7-3.7-3.7c0-2,1.7-3.7,3.7-3.7S111.3,158.1,111.3,160.2"/>
	<path class="st0" d="M121.4,160.2c0,2-1.7,3.7-3.7,3.7s-3.7-1.7-3.7-3.7c0-2,1.7-3.7,3.7-3.7S121.4,158.1,121.4,160.2"/>
	<path class="st0" d="M131.5,160.2c0,2-1.7,3.7-3.7,3.7c-2,0-3.7-1.7-3.7-3.7c0-2,1.7-3.7,3.7-3.7
		C129.8,156.5,131.5,158.1,131.5,160.2"/>
	<path class="st0" d="M141.1,160.2c0,2-1.7,3.7-3.7,3.7s-3.7-1.7-3.7-3.7c0-2,1.7-3.7,3.7-3.7S141.1,158.1,141.1,160.2"/>
	<path class="st0" d="M151.2,160.2c0,2-1.7,3.7-3.7,3.7s-3.7-1.7-3.7-3.7c0-2,1.7-3.7,3.7-3.7S151.2,158.1,151.2,160.2"/>
	<path class="st0" d="M161.3,160.2c0,2-1.7,3.7-3.7,3.7s-3.7-1.7-3.7-3.7c0-2,1.7-3.7,3.7-3.7S161.3,158.1,161.3,160.2"/>
	<path class="st0" d="M171.7,160.2c0,2-1.7,3.7-3.7,3.7s-3.7-1.7-3.7-3.7c0-2,1.7-3.7,3.7-3.7S171.7,158.1,171.7,160.2"/>
	<path class="st0" d="M181.8,160.2c0,2-1.7,3.7-3.7,3.7s-3.7-1.7-3.7-3.7c0-2,1.7-3.7,3.7-3.7S181.8,158.1,181.8,160.2"/>
	<path class="st0" d="M191.9,160.2c0,2-1.7,3.7-3.7,3.7s-3.7-1.7-3.7-3.7c0-2,1.7-3.7,3.7-3.7S191.9,158.1,191.9,160.2"/>
	<path class="st0" d="M131.5,139.5c0,2-1.7,3.7-3.7,3.7c-2,0-3.7-1.7-3.7-3.7c0-2,1.7-3.7,3.7-3.7
		C129.8,135.8,131.5,137.5,131.5,139.5"/>
	<path class="st0" d="M141.1,139.5c0,2-1.7,3.7-3.7,3.7s-3.7-1.7-3.7-3.7c0-2,1.7-3.7,3.7-3.7S141.1,137.5,141.1,139.5"/>
	<path class="st0" d="M151.2,139.5c0,2-1.7,3.7-3.7,3.7s-3.7-1.7-3.7-3.7c0-2,1.7-3.7,3.7-3.7S151.2,137.5,151.2,139.5"/>
	<path class="st0" d="M161.3,139.5c0,2-1.7,3.7-3.7,3.7s-3.7-1.7-3.7-3.7c0-2,1.7-3.7,3.7-3.7S161.3,137.5,161.3,139.5"/>
	<path class="st0" d="M171.7,139.5c0,2-1.7,3.7-3.7,3.7s-3.7-1.7-3.7-3.7c0-2,1.7-3.7,3.7-3.7S171.7,137.5,171.7,139.5"/>
	<path class="st0" d="M181.8,139.5c0,2-1.7,3.7-3.7,3.7s-3.7-1.7-3.7-3.7c0-2,1.7-3.7,3.7-3.7S181.8,137.5,181.8,139.5"/>
	<path class="st0" d="M131.5,150c0,2-1.7,3.7-3.7,3.7c-2,0-3.7-1.7-3.7-3.7c0-2,1.7-3.7,3.7-3.7C129.8,146.3,131.5,147.9,131.5,150"
		/>
	<path class="st0" d="M141.1,150c0,2-1.7,3.7-3.7,3.7s-3.7-1.7-3.7-3.7c0-2,1.7-3.7,3.7-3.7S141.1,147.9,141.1,150"/>
	<path class="st0" d="M151.2,150c0,2-1.7,3.7-3.7,3.7s-3.7-1.7-3.7-3.7c0-2,1.7-3.7,3.7-3.7S151.2,147.9,151.2,150"/>
	<path class="st0" d="M161.3,150c0,2-1.7,3.7-3.7,3.7s-3.7-1.7-3.7-3.7c0-2,1.7-3.7,3.7-3.7S161.3,147.9,161.3,150"/>
	<path class="st0" d="M171.7,150c0,2-1.7,3.7-3.7,3.7s-3.7-1.7-3.7-3.7c0-2,1.7-3.7,3.7-3.7S171.7,147.9,171.7,150"/>
	<path class="st0" d="M181.8,150c0,2-1.7,3.7-3.7,3.7s-3.7-1.7-3.7-3.7c0-2,1.7-3.7,3.7-3.7S181.8,147.9,181.8,150"/>
	<path class="st0" d="M191.9,150c0,2-1.7,3.7-3.7,3.7s-3.7-1.7-3.7-3.7c0-2,1.7-3.7,3.7-3.7S191.9,147.9,191.9,150"/>
	<path class="st0" d="M131.5,118.8c0,2-1.7,3.7-3.7,3.7c-2,0-3.7-1.7-3.7-3.7c0-2,1.7-3.7,3.7-3.7
		C129.8,115.1,131.5,116.8,131.5,118.8"/>
	<path class="st0" d="M141.1,118.8c0,2-1.7,3.7-3.7,3.7s-3.7-1.7-3.7-3.7c0-2,1.7-3.7,3.7-3.7S141.1,116.8,141.1,118.8"/>
	<path class="st0" d="M151.2,118.8c0,2-1.7,3.7-3.7,3.7s-3.7-1.7-3.7-3.7c0-2,1.7-3.7,3.7-3.7S151.2,116.8,151.2,118.8"/>
	<path class="st0" d="M161.3,118.8c0,2-1.7,3.7-3.7,3.7s-3.7-1.7-3.7-3.7c0-2,1.7-3.7,3.7-3.7S161.3,116.8,161.3,118.8"/>
	<path class="st0" d="M171.7,118.8c0,2-1.7,3.7-3.7,3.7s-3.7-1.7-3.7-3.7c0-2,1.7-3.7,3.7-3.7S171.7,116.8,171.7,118.8"/>
	<path class="st0" d="M181.8,118.8c0,2-1.7,3.7-3.7,3.7s-3.7-1.7-3.7-3.7c0-2,1.7-3.7,3.7-3.7S181.8,116.8,181.8,118.8"/>
	<path class="st0" d="M191.9,118.8c0,2-1.7,3.7-3.7,3.7s-3.7-1.7-3.7-3.7c0-2,1.7-3.7,3.7-3.7S191.9,116.8,191.9,118.8"/>
	<path class="st0" d="M131.5,129.3c0,2-1.7,3.7-3.7,3.7c-2,0-3.7-1.7-3.7-3.7c0-2,1.7-3.7,3.7-3.7
		C129.8,125.6,131.5,127.2,131.5,129.3"/>
	<path class="st0" d="M141.1,129.3c0,2-1.7,3.7-3.7,3.7s-3.7-1.7-3.7-3.7c0-2,1.7-3.7,3.7-3.7S141.1,127.2,141.1,129.3"/>
	<path class="st0" d="M151.2,129.3c0,2-1.7,3.7-3.7,3.7s-3.7-1.7-3.7-3.7c0-2,1.7-3.7,3.7-3.7S151.2,127.2,151.2,129.3"/>
	<path class="st0" d="M161.3,129.3c0,2-1.7,3.7-3.7,3.7s-3.7-1.7-3.7-3.7c0-2,1.7-3.7,3.7-3.7S161.3,127.2,161.3,129.3"/>
	<path class="st0" d="M171.7,129.3c0,2-1.7,3.7-3.7,3.7s-3.7-1.7-3.7-3.7c0-2,1.7-3.7,3.7-3.7S171.7,127.2,171.7,129.3"/>
	<path class="st0" d="M181.8,129.3c0,2-1.7,3.7-3.7,3.7s-3.7-1.7-3.7-3.7c0-2,1.7-3.7,3.7-3.7S181.8,127.2,181.8,129.3"/>
	<path class="st0" d="M191.9,129.3c0,2-1.7,3.7-3.7,3.7s-3.7-1.7-3.7-3.7c0-2,1.7-3.7,3.7-3.7S191.9,127.2,191.9,129.3"/>
	<path class="st0" d="M202.2,212.3c0,2-1.7,3.7-3.7,3.7s-3.7-1.7-3.7-3.7c0-2,1.7-3.7,3.7-3.7S202.2,210.2,202.2,212.3"/>
	<path class="st0" d="M202.2,222.7c0,2-1.7,3.7-3.7,3.7s-3.7-1.7-3.7-3.7s1.7-3.7,3.7-3.7S202.2,220.7,202.2,222.7"/>
	<path class="st0" d="M202.2,191.6c0,2-1.7,3.7-3.7,3.7s-3.7-1.7-3.7-3.7c0-2,1.7-3.7,3.7-3.7S202.2,189.5,202.2,191.6"/>
	<path class="st0" d="M202.2,202c0,2-1.7,3.7-3.7,3.7s-3.7-1.7-3.7-3.7c0-2,1.7-3.7,3.7-3.7S202.2,200,202.2,202"/>
	<path class="st0" d="M202.2,170.9c0,2-1.7,3.7-3.7,3.7s-3.7-1.7-3.7-3.7c0-2,1.7-3.7,3.7-3.7S202.2,168.8,202.2,170.9"/>
	<path class="st0" d="M202.2,181.4c0,2-1.7,3.7-3.7,3.7s-3.7-1.7-3.7-3.7s1.7-3.7,3.7-3.7S202.2,179.3,202.2,181.4"/>
	<path class="st0" d="M202.2,160.2c0,2-1.7,3.7-3.7,3.7s-3.7-1.7-3.7-3.7c0-2,1.7-3.7,3.7-3.7S202.2,158.1,202.2,160.2"/>
	<path class="st0" d="M202.2,150c0,2-1.7,3.7-3.7,3.7s-3.7-1.7-3.7-3.7c0-2,1.7-3.7,3.7-3.7S202.2,147.9,202.2,150"/>
	<path class="st0" d="M202.2,118.8c0,2-1.7,3.7-3.7,3.7s-3.7-1.7-3.7-3.7c0-2,1.7-3.7,3.7-3.7S202.2,116.8,202.2,118.8"/>
	<path class="st0" d="M202.2,129.3c0,2-1.7,3.7-3.7,3.7s-3.7-1.7-3.7-3.7c0-2,1.7-3.7,3.7-3.7S202.2,127.2,202.2,129.3"/>
	<path class="st0" d="M141.1,118.8c0,2-1.7,3.7-3.7,3.7s-3.7-1.7-3.7-3.7c0-2,1.7-3.7,3.7-3.7S141.1,116.8,141.1,118.8"/>
	<path class="st0" d="M151.2,118.8c0,2-1.7,3.7-3.7,3.7s-3.7-1.7-3.7-3.7c0-2,1.7-3.7,3.7-3.7S151.2,116.8,151.2,118.8"/>
	<path class="st0" d="M161.3,118.8c0,2-1.7,3.7-3.7,3.7s-3.7-1.7-3.7-3.7c0-2,1.7-3.7,3.7-3.7S161.3,116.8,161.3,118.8"/>
	<path class="st0" d="M171.7,118.8c0,2-1.7,3.7-3.7,3.7s-3.7-1.7-3.7-3.7c0-2,1.7-3.7,3.7-3.7S171.7,116.8,171.7,118.8"/>
	<path class="st0" d="M181.8,118.8c0,2-1.7,3.7-3.7,3.7s-3.7-1.7-3.7-3.7c0-2,1.7-3.7,3.7-3.7S181.8,116.8,181.8,118.8"/>
	<path class="st0" d="M191.9,118.8c0,2-1.7,3.7-3.7,3.7s-3.7-1.7-3.7-3.7c0-2,1.7-3.7,3.7-3.7S191.9,116.8,191.9,118.8"/>
	<path class="st0" d="M131.5,98.1c0,2-1.7,3.7-3.7,3.7c-2,0-3.7-1.7-3.7-3.7c0-2,1.7-3.7,3.7-3.7C129.8,94.4,131.5,96.1,131.5,98.1"
		/>
	<path class="st0" d="M141.1,98.1c0,2-1.7,3.7-3.7,3.7s-3.7-1.7-3.7-3.7c0-2,1.7-3.7,3.7-3.7S141.1,96.1,141.1,98.1"/>
	<path class="st0" d="M151.2,98.1c0,2-1.7,3.7-3.7,3.7s-3.7-1.7-3.7-3.7c0-2,1.7-3.7,3.7-3.7S151.2,96.1,151.2,98.1"/>
	<path class="st0" d="M161.3,98.1c0,2-1.7,3.7-3.7,3.7s-3.7-1.7-3.7-3.7c0-2,1.7-3.7,3.7-3.7S161.3,96.1,161.3,98.1"/>
	<path class="st0" d="M171.7,98.1c0,2-1.7,3.7-3.7,3.7s-3.7-1.7-3.7-3.7c0-2,1.7-3.7,3.7-3.7S171.7,96.1,171.7,98.1"/>
	<path class="st0" d="M181.8,98.1c0,2-1.7,3.7-3.7,3.7s-3.7-1.7-3.7-3.7c0-2,1.7-3.7,3.7-3.7S181.8,96.1,181.8,98.1"/>
	<path class="st0" d="M191.9,98.1c0,2-1.7,3.7-3.7,3.7s-3.7-1.7-3.7-3.7c0-2,1.7-3.7,3.7-3.7S191.9,96.1,191.9,98.1"/>
	<path class="st0" d="M131.5,108.6c0,2-1.7,3.7-3.7,3.7c-2,0-3.7-1.7-3.7-3.7c0-2,1.7-3.7,3.7-3.7
		C129.8,104.9,131.5,106.6,131.5,108.6"/>
	<path class="st0" d="M141.1,108.6c0,2-1.7,3.7-3.7,3.7s-3.7-1.7-3.7-3.7c0-2,1.7-3.7,3.7-3.7S141.1,106.6,141.1,108.6"/>
	<path class="st0" d="M151.2,108.6c0,2-1.7,3.7-3.7,3.7s-3.7-1.7-3.7-3.7c0-2,1.7-3.7,3.7-3.7S151.2,106.6,151.2,108.6"/>
	<path class="st0" d="M161.3,108.6c0,2-1.7,3.7-3.7,3.7s-3.7-1.7-3.7-3.7c0-2,1.7-3.7,3.7-3.7S161.3,106.6,161.3,108.6"/>
	<path class="st0" d="M171.7,108.6c0,2-1.7,3.7-3.7,3.7s-3.7-1.7-3.7-3.7c0-2,1.7-3.7,3.7-3.7S171.7,106.6,171.7,108.6"/>
	<path class="st0" d="M181.8,108.6c0,2-1.7,3.7-3.7,3.7s-3.7-1.7-3.7-3.7c0-2,1.7-3.7,3.7-3.7S181.8,106.6,181.8,108.6"/>
	<path class="st0" d="M191.9,108.6c0,2-1.7,3.7-3.7,3.7s-3.7-1.7-3.7-3.7c0-2,1.7-3.7,3.7-3.7S191.9,106.6,191.9,108.6"/>
	<path class="st0" d="M131.5,77.4c0,2-1.7,3.7-3.7,3.7c-2,0-3.7-1.7-3.7-3.7c0-2,1.7-3.7,3.7-3.7C129.8,73.7,131.5,75.4,131.5,77.4"
		/>
	<path class="st0" d="M141.1,77.4c0,2-1.7,3.7-3.7,3.7s-3.7-1.7-3.7-3.7c0-2,1.7-3.7,3.7-3.7S141.1,75.4,141.1,77.4"/>
	<path class="st0" d="M151.2,77.4c0,2-1.7,3.7-3.7,3.7s-3.7-1.7-3.7-3.7c0-2,1.7-3.7,3.7-3.7S151.2,75.4,151.2,77.4"/>
	<path class="st0" d="M161.3,77.4c0,2-1.7,3.7-3.7,3.7s-3.7-1.7-3.7-3.7c0-2,1.7-3.7,3.7-3.7S161.3,75.4,161.3,77.4"/>
	<path class="st0" d="M131.5,87.9c0,2-1.7,3.7-3.7,3.7c-2,0-3.7-1.7-3.7-3.7c0-2,1.7-3.7,3.7-3.7C129.8,84.2,131.5,85.9,131.5,87.9"
		/>
	<path class="st0" d="M141.1,87.9c0,2-1.7,3.7-3.7,3.7s-3.7-1.7-3.7-3.7c0-2,1.7-3.7,3.7-3.7S141.1,85.9,141.1,87.9"/>
	<path class="st0" d="M151.2,87.9c0,2-1.7,3.7-3.7,3.7s-3.7-1.7-3.7-3.7c0-2,1.7-3.7,3.7-3.7S151.2,85.9,151.2,87.9"/>
	<path class="st0" d="M161.3,87.9c0,2-1.7,3.7-3.7,3.7s-3.7-1.7-3.7-3.7c0-2,1.7-3.7,3.7-3.7S161.3,85.9,161.3,87.9"/>
	<path class="st0" d="M131.5,66.7c0,2-1.7,3.7-3.7,3.7c-2,0-3.7-1.7-3.7-3.7c0-2,1.7-3.7,3.7-3.7C129.8,63,131.5,64.7,131.5,66.7"/>
	<path class="st0" d="M141.1,66.7c0,2-1.7,3.7-3.7,3.7s-3.7-1.7-3.7-3.7c0-2,1.7-3.7,3.7-3.7S141.1,64.7,141.1,66.7"/>
	<path class="st0" d="M151.2,66.7c0,2-1.7,3.7-3.7,3.7s-3.7-1.7-3.7-3.7c0-2,1.7-3.7,3.7-3.7S151.2,64.7,151.2,66.7"/>
	<path class="st0" d="M161.3,66.7c0,2-1.7,3.7-3.7,3.7s-3.7-1.7-3.7-3.7c0-2,1.7-3.7,3.7-3.7S161.3,64.7,161.3,66.7"/>
	<path class="st0" d="M131.5,46c0,2-1.7,3.7-3.7,3.7c-2,0-3.7-1.7-3.7-3.7c0-2,1.7-3.7,3.7-3.7C129.8,42.3,131.5,44,131.5,46"/>
	<path class="st0" d="M141.1,46c0,2-1.7,3.7-3.7,3.7s-3.7-1.7-3.7-3.7c0-2,1.7-3.7,3.7-3.7S141.1,44,141.1,46"/>
	<path class="st0" d="M151.2,46c0,2-1.7,3.7-3.7,3.7s-3.7-1.7-3.7-3.7c0-2,1.7-3.7,3.7-3.7S151.2,44,151.2,46"/>
	<path class="st0" d="M161.3,46c0,2-1.7,3.7-3.7,3.7s-3.7-1.7-3.7-3.7c0-2,1.7-3.7,3.7-3.7S161.3,44,161.3,46"/>
	<path class="st0" d="M171.7,46c0,2-1.7,3.7-3.7,3.7s-3.7-1.7-3.7-3.7c0-2,1.7-3.7,3.7-3.7S171.7,44,171.7,46"/>
	<path class="st0" d="M181.8,46c0,2-1.7,3.7-3.7,3.7s-3.7-1.7-3.7-3.7c0-2,1.7-3.7,3.7-3.7S181.8,44,181.8,46"/>
	<path class="st0" d="M131.5,56.5c0,2-1.7,3.7-3.7,3.7c-2,0-3.7-1.7-3.7-3.7c0-2,1.7-3.7,3.7-3.7C129.8,52.8,131.5,54.5,131.5,56.5"
		/>
	<path class="st0" d="M141.1,56.5c0,2-1.7,3.7-3.7,3.7s-3.7-1.7-3.7-3.7c0-2,1.7-3.7,3.7-3.7S141.1,54.5,141.1,56.5"/>
	<path class="st0" d="M151.2,56.5c0,2-1.7,3.7-3.7,3.7s-3.7-1.7-3.7-3.7c0-2,1.7-3.7,3.7-3.7S151.2,54.5,151.2,56.5"/>
	<path class="st0" d="M161.3,56.5c0,2-1.7,3.7-3.7,3.7s-3.7-1.7-3.7-3.7c0-2,1.7-3.7,3.7-3.7S161.3,54.5,161.3,56.5"/>
	<path class="st0" d="M171.7,56.5c0,2-1.7,3.7-3.7,3.7s-3.7-1.7-3.7-3.7c0-2,1.7-3.7,3.7-3.7S171.7,54.5,171.7,56.5"/>
	<path class="st0" d="M181.8,56.5c0,2-1.7,3.7-3.7,3.7s-3.7-1.7-3.7-3.7c0-2,1.7-3.7,3.7-3.7S181.8,54.5,181.8,56.5"/>
	<path class="st0" d="M131.5,25.3c0,2-1.7,3.7-3.7,3.7c-2,0-3.7-1.7-3.7-3.7c0-2,1.7-3.7,3.7-3.7C129.8,21.7,131.5,23.3,131.5,25.3"
		/>
	<path class="st0" d="M131.5,14.4c0,2-1.7,3.7-3.7,3.7c-2,0-3.7-1.7-3.7-3.7c0-2,1.7-3.7,3.7-3.7C129.8,10.7,131.5,12.3,131.5,14.4"
		/>
	<path class="st0" d="M141.1,25.3c0,2-1.7,3.7-3.7,3.7s-3.7-1.7-3.7-3.7c0-2,1.7-3.7,3.7-3.7S141.1,23.3,141.1,25.3"/>
	<path class="st0" d="M141.1,14.4c0,2-1.7,3.7-3.7,3.7s-3.7-1.7-3.7-3.7c0-2,1.7-3.7,3.7-3.7S141.1,12.3,141.1,14.4"/>
	<path class="st0" d="M151.2,25.3c0,2-1.7,3.7-3.7,3.7s-3.7-1.7-3.7-3.7c0-2,1.7-3.7,3.7-3.7S151.2,23.3,151.2,25.3"/>
	<path class="st0" d="M161.3,25.3c0,2-1.7,3.7-3.7,3.7s-3.7-1.7-3.7-3.7c0-2,1.7-3.7,3.7-3.7S161.3,23.3,161.3,25.3"/>
	<path class="st0" d="M171.7,25.3c0,2-1.7,3.7-3.7,3.7s-3.7-1.7-3.7-3.7c0-2,1.7-3.7,3.7-3.7S171.7,23.3,171.7,25.3"/>
	<path class="st0" d="M181.8,25.3c0,2-1.7,3.7-3.7,3.7s-3.7-1.7-3.7-3.7c0-2,1.7-3.7,3.7-3.7S181.8,23.3,181.8,25.3"/>
	<path class="st0" d="M181.8,14.4c0,2-1.7,3.7-3.7,3.7s-3.7-1.7-3.7-3.7c0-2,1.7-3.7,3.7-3.7S181.8,12.3,181.8,14.4"/>
	<path class="st0" d="M192.3,14.4c0,2-1.7,3.7-3.7,3.7s-3.7-1.7-3.7-3.7c0-2,1.7-3.7,3.7-3.7S192.3,12.3,192.3,14.4"/>
	<path class="st0" d="M131.5,35.8c0,2-1.7,3.7-3.7,3.7c-2,0-3.7-1.7-3.7-3.7c0-2,1.7-3.7,3.7-3.7C129.8,32.1,131.5,33.8,131.5,35.8"
		/>
	<path class="st0" d="M141.1,35.8c0,2-1.7,3.7-3.7,3.7s-3.7-1.7-3.7-3.7c0-2,1.7-3.7,3.7-3.7S141.1,33.8,141.1,35.8"/>
	<path class="st0" d="M151.2,35.8c0,2-1.7,3.7-3.7,3.7s-3.7-1.7-3.7-3.7c0-2,1.7-3.7,3.7-3.7S151.2,33.8,151.2,35.8"/>
	<path class="st0" d="M161.3,35.8c0,2-1.7,3.7-3.7,3.7s-3.7-1.7-3.7-3.7c0-2,1.7-3.7,3.7-3.7S161.3,33.8,161.3,35.8"/>
	<path class="st0" d="M171.7,35.8c0,2-1.7,3.7-3.7,3.7s-3.7-1.7-3.7-3.7c0-2,1.7-3.7,3.7-3.7S171.7,33.8,171.7,35.8"/>
	<path class="st0" d="M181.8,35.8c0,2-1.7,3.7-3.7,3.7s-3.7-1.7-3.7-3.7c0-2,1.7-3.7,3.7-3.7S181.8,33.8,181.8,35.8"/>
	<path class="st0" d="M202.2,46c0,2-1.7,3.7-3.7,3.7s-3.7-1.7-3.7-3.7c0-2,1.7-3.7,3.7-3.7S202.2,44,202.2,46"/>
	<path class="st0" d="M212.3,46c0,2-1.7,3.7-3.7,3.7s-3.7-1.7-3.7-3.7c0-2,1.7-3.7,3.7-3.7S212.3,44,212.3,46"/>
	<path class="st0" d="M202.2,35.8c0,2-1.7,3.7-3.7,3.7s-3.7-1.7-3.7-3.7c0-2,1.7-3.7,3.7-3.7S202.2,33.8,202.2,35.8"/>
	<path class="st0" d="M212.3,35.8c0,2-1.7,3.7-3.7,3.7s-3.7-1.7-3.7-3.7c0-2,1.7-3.7,3.7-3.7S212.3,33.8,212.3,35.8"/>
	<path class="st0" d="M202.2,118.8c0,2-1.7,3.7-3.7,3.7s-3.7-1.7-3.7-3.7c0-2,1.7-3.7,3.7-3.7S202.2,116.8,202.2,118.8"/>
	<path class="st0" d="M202.2,98.1c0,2-1.7,3.7-3.7,3.7s-3.7-1.7-3.7-3.7c0-2,1.7-3.7,3.7-3.7S202.2,96.1,202.2,98.1"/>
	<path class="st0" d="M202.2,108.6c0,2-1.7,3.7-3.7,3.7s-3.7-1.7-3.7-3.7c0-2,1.7-3.7,3.7-3.7S202.2,106.6,202.2,108.6"/>
	<path class="st0" d="M202.2,66.3c0,2-1.7,3.7-3.7,3.7s-3.7-1.7-3.7-3.7c0-2,1.7-3.7,3.7-3.7S202.2,64.3,202.2,66.3"/>
	<path class="st0" d="M213.1,212.3c0,2-1.7,3.7-3.7,3.7s-3.7-1.7-3.7-3.7c0-2,1.7-3.7,3.7-3.7S213.1,210.2,213.1,212.3"/>
	<path class="st0" d="M213.1,222.7c0,2-1.7,3.7-3.7,3.7s-3.7-1.7-3.7-3.7s1.7-3.7,3.7-3.7S213.1,220.7,213.1,222.7"/>
	<path class="st0" d="M213.1,191.6c0,2-1.7,3.7-3.7,3.7s-3.7-1.7-3.7-3.7c0-2,1.7-3.7,3.7-3.7S213.1,189.5,213.1,191.6"/>
	<path class="st0" d="M213.1,202c0,2-1.7,3.7-3.7,3.7s-3.7-1.7-3.7-3.7c0-2,1.7-3.7,3.7-3.7S213.1,200,213.1,202"/>
	<path class="st0" d="M213.1,170.9c0,2-1.7,3.7-3.7,3.7s-3.7-1.7-3.7-3.7c0-2,1.7-3.7,3.7-3.7S213.1,168.8,213.1,170.9"/>
	<path class="st0" d="M213.1,181.4c0,2-1.7,3.7-3.7,3.7s-3.7-1.7-3.7-3.7s1.7-3.7,3.7-3.7S213.1,179.3,213.1,181.4"/>
	<path class="st0" d="M213.1,160.2c0,2-1.7,3.7-3.7,3.7s-3.7-1.7-3.7-3.7c0-2,1.7-3.7,3.7-3.7S213.1,158.1,213.1,160.2"/>
	<path class="st0" d="M213.1,139.5c0,2-1.7,3.7-3.7,3.7s-3.7-1.7-3.7-3.7c0-2,1.7-3.7,3.7-3.7S213.1,137.5,213.1,139.5"/>
	<path class="st0" d="M213.1,129.3c0,2-1.7,3.7-3.7,3.7s-3.7-1.7-3.7-3.7c0-2,1.7-3.7,3.7-3.7S213.1,127.2,213.1,129.3"/>
	<path class="st0" d="M224.4,212.3c0,2-1.7,3.7-3.7,3.7s-3.7-1.7-3.7-3.7c0-2,1.7-3.7,3.7-3.7S224.4,210.2,224.4,212.3"/>
	<path class="st0" d="M234.5,212.3c0,2-1.7,3.7-3.7,3.7s-3.7-1.7-3.7-3.7c0-2,1.7-3.7,3.7-3.7S234.5,210.2,234.5,212.3"/>
	<path class="st0" d="M224.4,222.7c0,2-1.7,3.7-3.7,3.7s-3.7-1.7-3.7-3.7s1.7-3.7,3.7-3.7S224.4,220.7,224.4,222.7"/>
	<path class="st0" d="M234.5,222.7c0,2-1.7,3.7-3.7,3.7s-3.7-1.7-3.7-3.7s1.7-3.7,3.7-3.7S234.5,220.7,234.5,222.7"/>
	<path class="st0" d="M234.5,232.7c0,2-1.7,3.7-3.7,3.7s-3.7-1.7-3.7-3.7c0-2,1.7-3.7,3.7-3.7S234.5,230.6,234.5,232.7"/>
	<path class="st0" d="M234.5,243.2c0,2-1.7,3.7-3.7,3.7s-3.7-1.7-3.7-3.7s1.7-3.7,3.7-3.7S234.5,241.1,234.5,243.2"/>
	<path class="st0" d="M246.2,243.2c0,2-1.7,3.7-3.7,3.7s-3.7-1.7-3.7-3.7s1.7-3.7,3.7-3.7S246.2,241.1,246.2,243.2"/>
	<path class="st0" d="M224.4,191.6c0,2-1.7,3.7-3.7,3.7s-3.7-1.7-3.7-3.7c0-2,1.7-3.7,3.7-3.7S224.4,189.5,224.4,191.6"/>
	<path class="st0" d="M234.5,191.6c0,2-1.7,3.7-3.7,3.7s-3.7-1.7-3.7-3.7c0-2,1.7-3.7,3.7-3.7S234.5,189.5,234.5,191.6"/>
	<path class="st0" d="M224.4,202c0,2-1.7,3.7-3.7,3.7s-3.7-1.7-3.7-3.7c0-2,1.7-3.7,3.7-3.7S224.4,200,224.4,202"/>
	<path class="st0" d="M234.5,202c0,2-1.7,3.7-3.7,3.7s-3.7-1.7-3.7-3.7c0-2,1.7-3.7,3.7-3.7S234.5,200,234.5,202"/>
	<path class="st0" d="M224.4,170.9c0,2-1.7,3.7-3.7,3.7s-3.7-1.7-3.7-3.7c0-2,1.7-3.7,3.7-3.7S224.4,168.8,224.4,170.9"/>
	<path class="st0" d="M234.5,170.9c0,2-1.7,3.7-3.7,3.7s-3.7-1.7-3.7-3.7c0-2,1.7-3.7,3.7-3.7S234.5,168.8,234.5,170.9"/>
	<path class="st0" d="M224.4,181.4c0,2-1.7,3.7-3.7,3.7s-3.7-1.7-3.7-3.7s1.7-3.7,3.7-3.7S224.4,179.3,224.4,181.4"/>
	<path class="st0" d="M234.5,181.4c0,2-1.7,3.7-3.7,3.7s-3.7-1.7-3.7-3.7s1.7-3.7,3.7-3.7S234.5,179.3,234.5,181.4"/>
	<path class="st0" d="M224.4,160.2c0,2-1.7,3.7-3.7,3.7s-3.7-1.7-3.7-3.7c0-2,1.7-3.7,3.7-3.7S224.4,158.1,224.4,160.2"/>
	<path class="st0" d="M234.5,160.2c0,2-1.7,3.7-3.7,3.7s-3.7-1.7-3.7-3.7c0-2,1.7-3.7,3.7-3.7S234.5,158.1,234.5,160.2"/>
	<path class="st0" d="M224.4,139.5c0,2-1.7,3.7-3.7,3.7s-3.7-1.7-3.7-3.7c0-2,1.7-3.7,3.7-3.7S224.4,137.5,224.4,139.5"/>
	<path class="st0" d="M234.5,139.5c0,2-1.7,3.7-3.7,3.7s-3.7-1.7-3.7-3.7c0-2,1.7-3.7,3.7-3.7S234.5,137.5,234.5,139.5"/>
	<path class="st0" d="M224.4,150c0,2-1.7,3.7-3.7,3.7S217,152,217,150c0-2,1.7-3.7,3.7-3.7S224.4,147.9,224.4,150"/>
	<path class="st0" d="M234.5,150c0,2-1.7,3.7-3.7,3.7s-3.7-1.7-3.7-3.7c0-2,1.7-3.7,3.7-3.7S234.5,147.9,234.5,150"/>
	<path class="st0" d="M224.4,118.8c0,2-1.7,3.7-3.7,3.7s-3.7-1.7-3.7-3.7c0-2,1.7-3.7,3.7-3.7S224.4,116.8,224.4,118.8"/>
	<path class="st0" d="M214.1,118.8c0,2-1.7,3.7-3.7,3.7s-3.7-1.7-3.7-3.7c0-2,1.7-3.7,3.7-3.7S214.1,116.8,214.1,118.8"/>
	<path class="st0" d="M224.2,118.8c0,2-1.7,3.7-3.7,3.7s-3.7-1.7-3.7-3.7c0-2,1.7-3.7,3.7-3.7S224.2,116.8,224.2,118.8"/>
	<path class="st0" d="M234.3,118.8c0,2-1.7,3.7-3.7,3.7s-3.7-1.7-3.7-3.7c0-2,1.7-3.7,3.7-3.7S234.3,116.8,234.3,118.8"/>
	<path class="st0" d="M244.7,118.8c0,2-1.7,3.7-3.7,3.7s-3.7-1.7-3.7-3.7c0-2,1.7-3.7,3.7-3.7S244.7,116.8,244.7,118.8"/>
	<path class="st0" d="M254.8,118.8c0,2-1.7,3.7-3.7,3.7s-3.7-1.7-3.7-3.7c0-2,1.7-3.7,3.7-3.7S254.8,116.8,254.8,118.8"/>
	<path class="st0" d="M264.9,118.8c0,2-1.7,3.7-3.7,3.7c-2,0-3.7-1.7-3.7-3.7c0-2,1.7-3.7,3.7-3.7
		C263.2,115.1,264.9,116.8,264.9,118.8"/>
	<path class="st0" d="M275.2,118.8c0,2-1.7,3.7-3.7,3.7c-2,0-3.7-1.7-3.7-3.7c0-2,1.7-3.7,3.7-3.7
		C273.6,115.1,275.2,116.8,275.2,118.8"/>
	<path class="st0" d="M214.1,118.8c0,2-1.7,3.7-3.7,3.7s-3.7-1.7-3.7-3.7c0-2,1.7-3.7,3.7-3.7S214.1,116.8,214.1,118.8"/>
	<path class="st0" d="M224.2,118.8c0,2-1.7,3.7-3.7,3.7s-3.7-1.7-3.7-3.7c0-2,1.7-3.7,3.7-3.7S224.2,116.8,224.2,118.8"/>
	<path class="st0" d="M234.3,118.8c0,2-1.7,3.7-3.7,3.7s-3.7-1.7-3.7-3.7c0-2,1.7-3.7,3.7-3.7S234.3,116.8,234.3,118.8"/>
	<path class="st0" d="M244.7,118.8c0,2-1.7,3.7-3.7,3.7s-3.7-1.7-3.7-3.7c0-2,1.7-3.7,3.7-3.7S244.7,116.8,244.7,118.8"/>
	<path class="st0" d="M254.8,118.8c0,2-1.7,3.7-3.7,3.7s-3.7-1.7-3.7-3.7c0-2,1.7-3.7,3.7-3.7S254.8,116.8,254.8,118.8"/>
	<path class="st0" d="M264.9,118.8c0,2-1.7,3.7-3.7,3.7c-2,0-3.7-1.7-3.7-3.7c0-2,1.7-3.7,3.7-3.7
		C263.2,115.1,264.9,116.8,264.9,118.8"/>
	<path class="st0" d="M214.1,98.1c0,2-1.7,3.7-3.7,3.7s-3.7-1.7-3.7-3.7c0-2,1.7-3.7,3.7-3.7S214.1,96.1,214.1,98.1"/>
	<path class="st0" d="M224.2,98.1c0,2-1.7,3.7-3.7,3.7s-3.7-1.7-3.7-3.7c0-2,1.7-3.7,3.7-3.7S224.2,96.1,224.2,98.1"/>
	<path class="st0" d="M234.3,98.1c0,2-1.7,3.7-3.7,3.7s-3.7-1.7-3.7-3.7c0-2,1.7-3.7,3.7-3.7S234.3,96.1,234.3,98.1"/>
	<path class="st0" d="M244.7,98.1c0,2-1.7,3.7-3.7,3.7s-3.7-1.7-3.7-3.7c0-2,1.7-3.7,3.7-3.7S244.7,96.1,244.7,98.1"/>
	<path class="st0" d="M254.8,98.1c0,2-1.7,3.7-3.7,3.7s-3.7-1.7-3.7-3.7c0-2,1.7-3.7,3.7-3.7S254.8,96.1,254.8,98.1"/>
	<path class="st0" d="M214.1,108.6c0,2-1.7,3.7-3.7,3.7s-3.7-1.7-3.7-3.7c0-2,1.7-3.7,3.7-3.7S214.1,106.6,214.1,108.6"/>
	<path class="st0" d="M224.2,108.6c0,2-1.7,3.7-3.7,3.7s-3.7-1.7-3.7-3.7c0-2,1.7-3.7,3.7-3.7S224.2,106.6,224.2,108.6"/>
	<path class="st0" d="M234.3,108.6c0,2-1.7,3.7-3.7,3.7s-3.7-1.7-3.7-3.7c0-2,1.7-3.7,3.7-3.7S234.3,106.6,234.3,108.6"/>
	<path class="st0" d="M244.7,108.6c0,2-1.7,3.7-3.7,3.7s-3.7-1.7-3.7-3.7c0-2,1.7-3.7,3.7-3.7S244.7,106.6,244.7,108.6"/>
	<path class="st0" d="M254.8,108.6c0,2-1.7,3.7-3.7,3.7s-3.7-1.7-3.7-3.7c0-2,1.7-3.7,3.7-3.7S254.8,106.6,254.8,108.6"/>
	<path class="st0" d="M264.9,108.6c0,2-1.7,3.7-3.7,3.7c-2,0-3.7-1.7-3.7-3.7c0-2,1.7-3.7,3.7-3.7
		C263.2,104.9,264.9,106.6,264.9,108.6"/>
	<path class="st0" d="M214.1,77.4c0,2-1.7,3.7-3.7,3.7s-3.7-1.7-3.7-3.7c0-2,1.7-3.7,3.7-3.7S214.1,75.4,214.1,77.4"/>
	<path class="st0" d="M224.2,77.4c0,2-1.7,3.7-3.7,3.7s-3.7-1.7-3.7-3.7c0-2,1.7-3.7,3.7-3.7S224.2,75.4,224.2,77.4"/>
	<path class="st0" d="M234.3,77.4c0,2-1.7,3.7-3.7,3.7s-3.7-1.7-3.7-3.7c0-2,1.7-3.7,3.7-3.7S234.3,75.4,234.3,77.4"/>
	<path class="st0" d="M214.1,87.9c0,2-1.7,3.7-3.7,3.7s-3.7-1.7-3.7-3.7c0-2,1.7-3.7,3.7-3.7S214.1,85.9,214.1,87.9"/>
	<path class="st0" d="M224.2,87.9c0,2-1.7,3.7-3.7,3.7s-3.7-1.7-3.7-3.7c0-2,1.7-3.7,3.7-3.7S224.2,85.9,224.2,87.9"/>
	<path class="st0" d="M234.3,87.9c0,2-1.7,3.7-3.7,3.7s-3.7-1.7-3.7-3.7c0-2,1.7-3.7,3.7-3.7S234.3,85.9,234.3,87.9"/>
	<path class="st0" d="M244.7,87.9c0,2-1.7,3.7-3.7,3.7s-3.7-1.7-3.7-3.7c0-2,1.7-3.7,3.7-3.7S244.7,85.9,244.7,87.9"/>
	<path class="st0" d="M254.8,87.9c0,2-1.7,3.7-3.7,3.7s-3.7-1.7-3.7-3.7c0-2,1.7-3.7,3.7-3.7S254.8,85.9,254.8,87.9"/>
	<path class="st0" d="M264.9,87.9c0,2-1.7,3.7-3.7,3.7c-2,0-3.7-1.7-3.7-3.7c0-2,1.7-3.7,3.7-3.7C263.2,84.2,264.9,85.9,264.9,87.9"
		/>
	<path class="st0" d="M292.9,87.9c0,2-1.7,3.7-3.7,3.7c-2,0-3.7-1.7-3.7-3.7c0-2,1.7-3.7,3.7-3.7C291.2,84.2,292.9,85.9,292.9,87.9"
		/>
	<path class="st0" d="M282.6,87.9c0,2-1.7,3.7-3.7,3.7c-2,0-3.7-1.7-3.7-3.7c0-2,1.7-3.7,3.7-3.7C281,84.2,282.6,85.9,282.6,87.9"/>
	<path class="st0" d="M275.2,76.7c0,2-1.7,3.7-3.7,3.7c-2,0-3.7-1.7-3.7-3.7c0-2,1.7-3.7,3.7-3.7C273.6,73,275.2,74.6,275.2,76.7"/>
	<path class="st0" d="M244.7,76.7c0,2-1.7,3.7-3.7,3.7s-3.7-1.7-3.7-3.7c0-2,1.7-3.7,3.7-3.7S244.7,74.6,244.7,76.7"/>
	<path class="st0" d="M254.8,76.7c0,2-1.7,3.7-3.7,3.7s-3.7-1.7-3.7-3.7c0-2,1.7-3.7,3.7-3.7S254.8,74.6,254.8,76.7"/>
	<path class="st0" d="M264.9,76.7c0,2-1.7,3.7-3.7,3.7c-2,0-3.7-1.7-3.7-3.7c0-2,1.7-3.7,3.7-3.7C263.2,73,264.9,74.6,264.9,76.7"/>
	<path class="st0" d="M214.1,67.1c0,2-1.7,3.7-3.7,3.7s-3.7-1.7-3.7-3.7c0-2,1.7-3.7,3.7-3.7S214.1,65.1,214.1,67.1"/>
	<path class="st0" d="M202.2,25.4c0,2-1.7,3.7-3.7,3.7s-3.7-1.7-3.7-3.7c0-2,1.7-3.7,3.7-3.7S202.2,23.4,202.2,25.4"/>
	<path class="st0" d="M202.2,14.4c0,2-1.7,3.7-3.7,3.7s-3.7-1.7-3.7-3.7c0-2,1.7-3.7,3.7-3.7S202.2,12.3,202.2,14.4"/>
	<path class="st0" d="M214.1,26.2c0,2-1.7,3.7-3.7,3.7s-3.7-1.7-3.7-3.7c0-2,1.7-3.7,3.7-3.7S214.1,24.2,214.1,26.2"/>
	<path class="st0" d="M224.2,67.1c0,2-1.7,3.7-3.7,3.7s-3.7-1.7-3.7-3.7c0-2,1.7-3.7,3.7-3.7S224.2,65.1,224.2,67.1"/>
	<path class="st0" d="M234.3,67.1c0,2-1.7,3.7-3.7,3.7s-3.7-1.7-3.7-3.7c0-2,1.7-3.7,3.7-3.7S234.3,65.1,234.3,67.1"/>
	<path class="st0" d="M244.7,66.3c0,2-1.7,3.7-3.7,3.7s-3.7-1.7-3.7-3.7c0-2,1.7-3.7,3.7-3.7S244.7,64.3,244.7,66.3"/>
	<path class="st0" d="M254.8,66.3c0,2-1.7,3.7-3.7,3.7s-3.7-1.7-3.7-3.7c0-2,1.7-3.7,3.7-3.7S254.8,64.3,254.8,66.3"/>
	<path class="st0" d="M264.9,66.3c0,2-1.7,3.7-3.7,3.7c-2,0-3.7-1.7-3.7-3.7c0-2,1.7-3.7,3.7-3.7C263.2,62.7,264.9,64.3,264.9,66.3"
		/>
	<path class="st0" d="M275.2,118.8c0,2-1.7,3.7-3.7,3.7c-2,0-3.7-1.7-3.7-3.7c0-2,1.7-3.7,3.7-3.7
		C273.6,115.1,275.2,116.8,275.2,118.8"/>
	<path class="st0" d="M234.5,118.8c0,2-1.7,3.7-3.7,3.7s-3.7-1.7-3.7-3.7c0-2,1.7-3.7,3.7-3.7S234.5,116.8,234.5,118.8"/>
	<path class="st0" d="M224.4,129.3c0,2-1.7,3.7-3.7,3.7s-3.7-1.7-3.7-3.7c0-2,1.7-3.7,3.7-3.7S224.4,127.2,224.4,129.3"/>
	<path class="st0" d="M234.5,129.3c0,2-1.7,3.7-3.7,3.7s-3.7-1.7-3.7-3.7c0-2,1.7-3.7,3.7-3.7S234.5,127.2,234.5,129.3"/>
	<path class="st0" d="M244.8,191.6c0,2-1.7,3.7-3.7,3.7s-3.7-1.7-3.7-3.7c0-2,1.7-3.7,3.7-3.7S244.8,189.5,244.8,191.6"/>
	<path class="st0" d="M244.8,170.9c0,2-1.7,3.7-3.7,3.7s-3.7-1.7-3.7-3.7c0-2,1.7-3.7,3.7-3.7S244.8,168.8,244.8,170.9"/>
	<path class="st0" d="M244.8,160.2c0,2-1.7,3.7-3.7,3.7s-3.7-1.7-3.7-3.7c0-2,1.7-3.7,3.7-3.7S244.8,158.1,244.8,160.2"/>
	<path class="st0" d="M244.8,139.5c0,2-1.7,3.7-3.7,3.7s-3.7-1.7-3.7-3.7c0-2,1.7-3.7,3.7-3.7S244.8,137.5,244.8,139.5"/>
	<path class="st0" d="M244.8,150c0,2-1.7,3.7-3.7,3.7s-3.7-1.7-3.7-3.7c0-2,1.7-3.7,3.7-3.7S244.8,147.9,244.8,150"/>
	<path class="st0" d="M244.8,118.8c0,2-1.7,3.7-3.7,3.7s-3.7-1.7-3.7-3.7c0-2,1.7-3.7,3.7-3.7S244.8,116.8,244.8,118.8"/>
	<path class="st0" d="M244.8,129.3c0,2-1.7,3.7-3.7,3.7s-3.7-1.7-3.7-3.7c0-2,1.7-3.7,3.7-3.7S244.8,127.2,244.8,129.3"/>
	<path class="st0" d="M255.8,139.5c0,2-1.7,3.7-3.7,3.7s-3.7-1.7-3.7-3.7c0-2,1.7-3.7,3.7-3.7S255.8,137.5,255.8,139.5"/>
	<path class="st0" d="M255.8,150c0,2-1.7,3.7-3.7,3.7s-3.7-1.7-3.7-3.7c0-2,1.7-3.7,3.7-3.7S255.8,147.9,255.8,150"/>
	<path class="st0" d="M255.8,129.3c0,2-1.7,3.7-3.7,3.7s-3.7-1.7-3.7-3.7c0-2,1.7-3.7,3.7-3.7S255.8,127.2,255.8,129.3"/>
	<path class="st0" d="M100.9,129.3c0,2-1.7,3.7-3.7,3.7s-3.7-1.7-3.7-3.7c0-2,1.7-3.7,3.7-3.7S100.9,127.2,100.9,129.3"/>
	<path class="st0" d="M111.3,129.3c0,2-1.7,3.7-3.7,3.7s-3.7-1.7-3.7-3.7c0-2,1.7-3.7,3.7-3.7S111.3,127.2,111.3,129.3"/>
	<path class="st0" d="M121.4,129.3c0,2-1.7,3.7-3.7,3.7s-3.7-1.7-3.7-3.7c0-2,1.7-3.7,3.7-3.7S121.4,127.2,121.4,129.3"/>
	<path class="st0" d="M100.9,139.8c0,2-1.7,3.7-3.7,3.7s-3.7-1.7-3.7-3.7c0-2,1.7-3.7,3.7-3.7S100.9,137.7,100.9,139.8"/>
	<path class="st0" d="M111.3,139.8c0,2-1.7,3.7-3.7,3.7s-3.7-1.7-3.7-3.7c0-2,1.7-3.7,3.7-3.7S111.3,137.7,111.3,139.8"/>
	<path class="st0" d="M121.4,139.8c0,2-1.7,3.7-3.7,3.7s-3.7-1.7-3.7-3.7c0-2,1.7-3.7,3.7-3.7S121.4,137.7,121.4,139.8"/>
	<path class="st0" d="M100.9,149.7c0,2-1.7,3.7-3.7,3.7s-3.7-1.7-3.7-3.7c0-2,1.7-3.7,3.7-3.7S100.9,147.7,100.9,149.7"/>
	<path class="st0" d="M90.8,181.4c0,2-1.7,3.7-3.7,3.7s-3.7-1.7-3.7-3.7s1.7-3.7,3.7-3.7S90.8,179.3,90.8,181.4"/>
	<path class="st0" d="M90.8,170.9c0,2-1.7,3.7-3.7,3.7s-3.7-1.7-3.7-3.7c0-2,1.7-3.7,3.7-3.7S90.8,168.8,90.8,170.9"/>
	<path class="st0" d="M90.8,191.8c0,2-1.7,3.7-3.7,3.7s-3.7-1.7-3.7-3.7s1.7-3.7,3.7-3.7S90.8,189.8,90.8,191.8"/>
	<path class="st0" d="M90.8,201.8c0,2-1.7,3.7-3.7,3.7s-3.7-1.7-3.7-3.7c0-2,1.7-3.7,3.7-3.7S90.8,199.7,90.8,201.8"/>
	<path class="st0" d="M90.8,160.2c0,2-1.7,3.7-3.7,3.7s-3.7-1.7-3.7-3.7c0-2,1.7-3.7,3.7-3.7S90.8,158.1,90.8,160.2"/>
	<path class="st0" d="M90.8,129.3c0,2-1.7,3.7-3.7,3.7s-3.7-1.7-3.7-3.7c0-2,1.7-3.7,3.7-3.7S90.8,127.2,90.8,129.3"/>
	<path class="st0" d="M90.8,139.8c0,2-1.7,3.7-3.7,3.7s-3.7-1.7-3.7-3.7c0-2,1.7-3.7,3.7-3.7S90.8,137.7,90.8,139.8"/>
	<path class="st0" d="M90.8,149.7c0,2-1.7,3.7-3.7,3.7s-3.7-1.7-3.7-3.7c0-2,1.7-3.7,3.7-3.7S90.8,147.7,90.8,149.7"/>
	<path class="st0" d="M80.7,181.4c0,2-1.7,3.7-3.7,3.7s-3.7-1.7-3.7-3.7s1.7-3.7,3.7-3.7S80.7,179.3,80.7,181.4"/>
	<path class="st0" d="M80.7,170.9c0,2-1.7,3.7-3.7,3.7s-3.7-1.7-3.7-3.7c0-2,1.7-3.7,3.7-3.7S80.7,168.8,80.7,170.9"/>
	<path class="st0" d="M80.7,191.8c0,2-1.7,3.7-3.7,3.7s-3.7-1.7-3.7-3.7s1.7-3.7,3.7-3.7S80.7,189.8,80.7,191.8"/>
	<path class="st0" d="M80.7,201.8c0,2-1.7,3.7-3.7,3.7s-3.7-1.7-3.7-3.7c0-2,1.7-3.7,3.7-3.7S80.7,199.7,80.7,201.8"/>
	<path class="st0" d="M80.7,160.2c0,2-1.7,3.7-3.7,3.7s-3.7-1.7-3.7-3.7c0-2,1.7-3.7,3.7-3.7S80.7,158.1,80.7,160.2"/>
	<path class="st0" d="M80.7,129.3c0,2-1.7,3.7-3.7,3.7s-3.7-1.7-3.7-3.7c0-2,1.7-3.7,3.7-3.7S80.7,127.2,80.7,129.3"/>
	<path class="st0" d="M80.7,139.8c0,2-1.7,3.7-3.7,3.7s-3.7-1.7-3.7-3.7c0-2,1.7-3.7,3.7-3.7S80.7,137.7,80.7,139.8"/>
	<path class="st0" d="M80.7,149.7c0,2-1.7,3.7-3.7,3.7s-3.7-1.7-3.7-3.7c0-2,1.7-3.7,3.7-3.7S80.7,147.7,80.7,149.7"/>
	<path class="st0" d="M70.5,181.4c0,2-1.7,3.7-3.7,3.7s-3.7-1.7-3.7-3.7s1.7-3.7,3.7-3.7S70.5,179.3,70.5,181.4"/>
	<path class="st0" d="M70.5,170.9c0,2-1.7,3.7-3.7,3.7s-3.7-1.7-3.7-3.7c0-2,1.7-3.7,3.7-3.7S70.5,168.8,70.5,170.9"/>
	<path class="st0" d="M70.5,191.8c0,2-1.7,3.7-3.7,3.7s-3.7-1.7-3.7-3.7s1.7-3.7,3.7-3.7S70.5,189.8,70.5,191.8"/>
	<path class="st0" d="M70.5,160.2c0,2-1.7,3.7-3.7,3.7s-3.7-1.7-3.7-3.7c0-2,1.7-3.7,3.7-3.7S70.5,158.1,70.5,160.2"/>
	<path class="st0" d="M70.5,139.8c0,2-1.7,3.7-3.7,3.7s-3.7-1.7-3.7-3.7c0-2,1.7-3.7,3.7-3.7S70.5,137.7,70.5,139.8"/>
	<path class="st0" d="M70.5,149.7c0,2-1.7,3.7-3.7,3.7s-3.7-1.7-3.7-3.7c0-2,1.7-3.7,3.7-3.7S70.5,147.7,70.5,149.7"/>
	<path class="st0" d="M60.4,181.4c0,2-1.7,3.7-3.7,3.7s-3.7-1.7-3.7-3.7s1.7-3.7,3.7-3.7S60.4,179.3,60.4,181.4"/>
	<path class="st0" d="M60.4,170.9c0,2-1.7,3.7-3.7,3.7s-3.7-1.7-3.7-3.7c0-2,1.7-3.7,3.7-3.7S60.4,168.8,60.4,170.9"/>
	<path class="st0" d="M60.4,160.2c0,2-1.7,3.7-3.7,3.7s-3.7-1.7-3.7-3.7c0-2,1.7-3.7,3.7-3.7S60.4,158.1,60.4,160.2"/>
	<path class="st0" d="M60.4,149.7c0,2-1.7,3.7-3.7,3.7s-3.7-1.7-3.7-3.7c0-2,1.7-3.7,3.7-3.7S60.4,147.7,60.4,149.7"/>
	<path class="st0" d="M111.3,149.7c0,2-1.7,3.7-3.7,3.7s-3.7-1.7-3.7-3.7c0-2,1.7-3.7,3.7-3.7S111.3,147.7,111.3,149.7"/>
	<path class="st0" d="M121.4,149.7c0,2-1.7,3.7-3.7,3.7s-3.7-1.7-3.7-3.7c0-2,1.7-3.7,3.7-3.7S121.4,147.7,121.4,149.7"/>
	<path class="st0" d="M100.9,108.3c0,2-1.7,3.7-3.7,3.7s-3.7-1.7-3.7-3.7c0-2,1.7-3.7,3.7-3.7S100.9,106.3,100.9,108.3"/>
	<path class="st0" d="M111.3,108.3c0,2-1.7,3.7-3.7,3.7s-3.7-1.7-3.7-3.7c0-2,1.7-3.7,3.7-3.7S111.3,106.3,111.3,108.3"/>
	<path class="st0" d="M121.4,108.3c0,2-1.7,3.7-3.7,3.7s-3.7-1.7-3.7-3.7c0-2,1.7-3.7,3.7-3.7S121.4,106.3,121.4,108.3"/>
	<path class="st0" d="M100.9,97.8c0,2-1.7,3.7-3.7,3.7s-3.7-1.7-3.7-3.7c0-2,1.7-3.7,3.7-3.7S100.9,95.8,100.9,97.8"/>
	<path class="st0" d="M111.3,97.8c0,2-1.7,3.7-3.7,3.7s-3.7-1.7-3.7-3.7c0-2,1.7-3.7,3.7-3.7S111.3,95.8,111.3,97.8"/>
	<path class="st0" d="M121.4,97.8c0,2-1.7,3.7-3.7,3.7s-3.7-1.7-3.7-3.7c0-2,1.7-3.7,3.7-3.7S121.4,95.8,121.4,97.8"/>
	<path class="st0" d="M100.9,118.8c0,2-1.7,3.7-3.7,3.7s-3.7-1.7-3.7-3.7c0-2,1.7-3.7,3.7-3.7S100.9,116.8,100.9,118.8"/>
	<path class="st0" d="M111.3,118.8c0,2-1.7,3.7-3.7,3.7s-3.7-1.7-3.7-3.7c0-2,1.7-3.7,3.7-3.7S111.3,116.8,111.3,118.8"/>
	<path class="st0" d="M121.4,118.8c0,2-1.7,3.7-3.7,3.7s-3.7-1.7-3.7-3.7c0-2,1.7-3.7,3.7-3.7S121.4,116.8,121.4,118.8"/>
	<path class="st0" d="M100.9,87.1c0,2-1.7,3.7-3.7,3.7s-3.7-1.7-3.7-3.7c0-2,1.7-3.7,3.7-3.7S100.9,85.1,100.9,87.1"/>
	<path class="st0" d="M111.3,87.1c0,2-1.7,3.7-3.7,3.7s-3.7-1.7-3.7-3.7c0-2,1.7-3.7,3.7-3.7S111.3,85.1,111.3,87.1"/>
	<path class="st0" d="M121.4,87.1c0,2-1.7,3.7-3.7,3.7s-3.7-1.7-3.7-3.7c0-2,1.7-3.7,3.7-3.7S121.4,85.1,121.4,87.1"/>
	<path class="st0" d="M100.9,56.2c0,2-1.7,3.7-3.7,3.7s-3.7-1.7-3.7-3.7c0-2,1.7-3.7,3.7-3.7S100.9,54.2,100.9,56.2"/>
	<path class="st0" d="M111.3,56.2c0,2-1.7,3.7-3.7,3.7s-3.7-1.7-3.7-3.7c0-2,1.7-3.7,3.7-3.7S111.3,54.2,111.3,56.2"/>
	<path class="st0" d="M121.4,56.2c0,2-1.7,3.7-3.7,3.7s-3.7-1.7-3.7-3.7c0-2,1.7-3.7,3.7-3.7S121.4,54.2,121.4,56.2"/>
	<path class="st0" d="M100.9,66.7c0,2-1.7,3.7-3.7,3.7s-3.7-1.7-3.7-3.7c0-2,1.7-3.7,3.7-3.7S100.9,64.7,100.9,66.7"/>
	<path class="st0" d="M111.3,66.7c0,2-1.7,3.7-3.7,3.7s-3.7-1.7-3.7-3.7c0-2,1.7-3.7,3.7-3.7S111.3,64.7,111.3,66.7"/>
	<path class="st0" d="M121.4,66.7c0,2-1.7,3.7-3.7,3.7s-3.7-1.7-3.7-3.7c0-2,1.7-3.7,3.7-3.7S121.4,64.7,121.4,66.7"/>
	<path class="st0" d="M121.4,35.3c0,2-1.7,3.7-3.7,3.7s-3.7-1.7-3.7-3.7c0-2,1.7-3.7,3.7-3.7S121.4,33.2,121.4,35.3"/>
	<path class="st0" d="M121.4,45.8c0,2-1.7,3.7-3.7,3.7s-3.7-1.7-3.7-3.7c0-2,1.7-3.7,3.7-3.7S121.4,43.7,121.4,45.8"/>
	<path class="st0" d="M100.9,76.7c0,2-1.7,3.7-3.7,3.7s-3.7-1.7-3.7-3.7c0-2,1.7-3.7,3.7-3.7S100.9,74.6,100.9,76.7"/>
	<path class="st0" d="M90.8,108.3c0,2-1.7,3.7-3.7,3.7s-3.7-1.7-3.7-3.7c0-2,1.7-3.7,3.7-3.7S90.8,106.3,90.8,108.3"/>
	<path class="st0" d="M90.8,97.8c0,2-1.7,3.7-3.7,3.7s-3.7-1.7-3.7-3.7c0-2,1.7-3.7,3.7-3.7S90.8,95.8,90.8,97.8"/>
	<path class="st0" d="M90.8,118.8c0,2-1.7,3.7-3.7,3.7s-3.7-1.7-3.7-3.7c0-2,1.7-3.7,3.7-3.7S90.8,116.8,90.8,118.8"/>
	<path class="st0" d="M90.8,87.1c0,2-1.7,3.7-3.7,3.7s-3.7-1.7-3.7-3.7c0-2,1.7-3.7,3.7-3.7S90.8,85.1,90.8,87.1"/>
	<path class="st0" d="M90.8,56.2c0,2-1.7,3.7-3.7,3.7s-3.7-1.7-3.7-3.7c0-2,1.7-3.7,3.7-3.7S90.8,54.2,90.8,56.2"/>
	<path class="st0" d="M90.8,66.7c0,2-1.7,3.7-3.7,3.7s-3.7-1.7-3.7-3.7c0-2,1.7-3.7,3.7-3.7S90.8,64.7,90.8,66.7"/>
	<path class="st0" d="M90.8,76.7c0,2-1.7,3.7-3.7,3.7s-3.7-1.7-3.7-3.7c0-2,1.7-3.7,3.7-3.7S90.8,74.6,90.8,76.7"/>
	<path class="st0" d="M111.3,76.7c0,2-1.7,3.7-3.7,3.7s-3.7-1.7-3.7-3.7c0-2,1.7-3.7,3.7-3.7S111.3,74.6,111.3,76.7"/>
	<path class="st0" d="M100.9,25.3c0,2-1.7,3.7-3.7,3.7s-3.7-1.7-3.7-3.7c0-2,1.7-3.7,3.7-3.7S100.9,23.3,100.9,25.3"/>
	<path class="st0" d="M111.3,25.3c0,2-1.7,3.7-3.7,3.7s-3.7-1.7-3.7-3.7c0-2,1.7-3.7,3.7-3.7S111.3,23.3,111.3,25.3"/>
	<path class="st0" d="M100.9,35.8c0,2-1.7,3.7-3.7,3.7s-3.7-1.7-3.7-3.7c0-2,1.7-3.7,3.7-3.7S100.9,33.8,100.9,35.8"/>
	<path class="st0" d="M111.3,35.8c0,2-1.7,3.7-3.7,3.7s-3.7-1.7-3.7-3.7c0-2,1.7-3.7,3.7-3.7S111.3,33.8,111.3,35.8"/>
	<path class="st0" d="M100.9,45.8c0,2-1.7,3.7-3.7,3.7s-3.7-1.7-3.7-3.7c0-2,1.7-3.7,3.7-3.7S100.9,43.7,100.9,45.8"/>
	<path class="st0" d="M111.3,45.8c0,2-1.7,3.7-3.7,3.7s-3.7-1.7-3.7-3.7c0-2,1.7-3.7,3.7-3.7S111.3,43.7,111.3,45.8"/>
	<path class="st0" d="M70.4,108.3c0,2-1.7,3.7-3.7,3.7s-3.7-1.7-3.7-3.7c0-2,1.7-3.7,3.7-3.7S70.4,106.3,70.4,108.3"/>
	<path class="st0" d="M80.8,108.3c0,2-1.7,3.7-3.7,3.7s-3.7-1.7-3.7-3.7c0-2,1.7-3.7,3.7-3.7S80.8,106.3,80.8,108.3"/>
	<path class="st0" d="M70.4,97.8c0,2-1.7,3.7-3.7,3.7S63,99.9,63,97.8c0-2,1.7-3.7,3.7-3.7S70.4,95.8,70.4,97.8"/>
	<path class="st0" d="M80.8,97.8c0,2-1.7,3.7-3.7,3.7s-3.7-1.7-3.7-3.7c0-2,1.7-3.7,3.7-3.7S80.8,95.8,80.8,97.8"/>
	<path class="st0" d="M70.4,118.8c0,2-1.7,3.7-3.7,3.7s-3.7-1.7-3.7-3.7c0-2,1.7-3.7,3.7-3.7S70.4,116.8,70.4,118.8"/>
	<path class="st0" d="M80.8,118.8c0,2-1.7,3.7-3.7,3.7s-3.7-1.7-3.7-3.7c0-2,1.7-3.7,3.7-3.7S80.8,116.8,80.8,118.8"/>
	<path class="st0" d="M70.4,87.1c0,2-1.7,3.7-3.7,3.7S63,89.2,63,87.1c0-2,1.7-3.7,3.7-3.7S70.4,85.1,70.4,87.1"/>
	<path class="st0" d="M80.8,87.1c0,2-1.7,3.7-3.7,3.7s-3.7-1.7-3.7-3.7c0-2,1.7-3.7,3.7-3.7S80.8,85.1,80.8,87.1"/>
	<path class="st0" d="M70.4,56.2c0,2-1.7,3.7-3.7,3.7S63,58.3,63,56.2c0-2,1.7-3.7,3.7-3.7S70.4,54.2,70.4,56.2"/>
	<path class="st0" d="M80.8,56.2c0,2-1.7,3.7-3.7,3.7s-3.7-1.7-3.7-3.7c0-2,1.7-3.7,3.7-3.7S80.8,54.2,80.8,56.2"/>
	<path class="st0" d="M70.4,66.7c0,2-1.7,3.7-3.7,3.7S63,68.8,63,66.7c0-2,1.7-3.7,3.7-3.7S70.4,64.7,70.4,66.7"/>
	<path class="st0" d="M80.8,66.7c0,2-1.7,3.7-3.7,3.7s-3.7-1.7-3.7-3.7c0-2,1.7-3.7,3.7-3.7S80.8,64.7,80.8,66.7"/>
	<path class="st0" d="M70.4,76.7c0,2-1.7,3.7-3.7,3.7S63,78.7,63,76.7c0-2,1.7-3.7,3.7-3.7S70.4,74.6,70.4,76.7"/>
	<path class="st0" d="M60.3,56.2c0,2-1.7,3.7-3.7,3.7s-3.7-1.7-3.7-3.7c0-2,1.7-3.7,3.7-3.7S60.3,54.2,60.3,56.2"/>
	<path class="st0" d="M60.3,66.7c0,2-1.7,3.7-3.7,3.7s-3.7-1.7-3.7-3.7c0-2,1.7-3.7,3.7-3.7S60.3,64.7,60.3,66.7"/>
	<path class="st0" d="M60.3,76.7c0,2-1.7,3.7-3.7,3.7s-3.7-1.7-3.7-3.7c0-2,1.7-3.7,3.7-3.7S60.3,74.6,60.3,76.7"/>
	<path class="st0" d="M70.5,25.4c0,2-1.7,3.7-3.7,3.7s-3.7-1.7-3.7-3.7c0-2,1.7-3.7,3.7-3.7S70.5,23.4,70.5,25.4"/>
	<path class="st0" d="M70.4,36.1c0,2-1.7,3.7-3.7,3.7S63,38.1,63,36.1c0-2,1.7-3.7,3.7-3.7S70.4,34.1,70.4,36.1"/>
	<path class="st0" d="M70.4,46c0,2-1.7,3.7-3.7,3.7S63,48.1,63,46c0-2,1.7-3.7,3.7-3.7S70.4,44,70.4,46"/>
	<path class="st0" d="M60.5,25.4c0,2-1.7,3.7-3.7,3.7s-3.7-1.7-3.7-3.7c0-2,1.7-3.7,3.7-3.7S60.5,23.4,60.5,25.4"/>
	<path class="st0" d="M50.3,25.4c0,2-1.7,3.7-3.7,3.7s-3.7-1.7-3.7-3.7c0-2,1.7-3.7,3.7-3.7S50.3,23.4,50.3,25.4"/>
	<path class="st0" d="M40.2,25.4c0,2-1.7,3.7-3.7,3.7s-3.7-1.7-3.7-3.7c0-2,1.7-3.7,3.7-3.7S40.2,23.4,40.2,25.4"/>
	<path class="st0" d="M30,25.4c0,2-1.7,3.7-3.7,3.7s-3.7-1.7-3.7-3.7c0-2,1.7-3.7,3.7-3.7S30,23.4,30,25.4"/>
	<path class="st0" d="M18.9,25.4c0,2-1.7,3.7-3.7,3.7s-3.7-1.7-3.7-3.7c0-2,1.7-3.7,3.7-3.7S18.9,23.4,18.9,25.4"/>
	<path class="st0" d="M60.3,36.1c0,2-1.7,3.7-3.7,3.7s-3.7-1.7-3.7-3.7c0-2,1.7-3.7,3.7-3.7S60.3,34.1,60.3,36.1"/>
	<path class="st0" d="M60.3,46c0,2-1.7,3.7-3.7,3.7s-3.7-1.7-3.7-3.7c0-2,1.7-3.7,3.7-3.7S60.3,44,60.3,46"/>
	<path class="st0" d="M80.8,76.7c0,2-1.7,3.7-3.7,3.7s-3.7-1.7-3.7-3.7c0-2,1.7-3.7,3.7-3.7S80.8,74.6,80.8,76.7"/>
	<path class="st0" d="M90.8,46c0,2-1.7,3.7-3.7,3.7s-3.7-1.7-3.7-3.7c0-2,1.7-3.7,3.7-3.7S90.8,44,90.8,46"/>
	<path class="st0" d="M90.8,35.6c0,2-1.7,3.7-3.7,3.7s-3.7-1.7-3.7-3.7c0-2,1.7-3.7,3.7-3.7S90.8,33.5,90.8,35.6"/>
	<path class="st0" d="M90.8,24.9c0,2-1.7,3.7-3.7,3.7s-3.7-1.7-3.7-3.7c0-2,1.7-3.7,3.7-3.7S90.8,22.8,90.8,24.9"/>
	<path class="st0" d="M90.8,14.4c0,2-1.7,3.7-3.7,3.7s-3.7-1.7-3.7-3.7c0-2,1.7-3.7,3.7-3.7S90.8,12.3,90.8,14.4"/>
	<path class="st0" d="M80.8,46c0,2-1.7,3.7-3.7,3.7s-3.7-1.7-3.7-3.7c0-2,1.7-3.7,3.7-3.7S80.8,44,80.8,46"/>
	<path class="st0" d="M80.8,35.6c0,2-1.7,3.7-3.7,3.7s-3.7-1.7-3.7-3.7c0-2,1.7-3.7,3.7-3.7S80.8,33.5,80.8,35.6"/>
	<path class="st0" d="M80.8,24.9c0,2-1.7,3.7-3.7,3.7s-3.7-1.7-3.7-3.7c0-2,1.7-3.7,3.7-3.7S80.8,22.8,80.8,24.9"/>
	<path class="st0" d="M80.8,14.4c0,2-1.7,3.7-3.7,3.7s-3.7-1.7-3.7-3.7c0-2,1.7-3.7,3.7-3.7S80.8,12.3,80.8,14.4"/>
	<path class="st0" d="M7.4,63c0,2-1.7,3.7-3.7,3.7S0,65.1,0,63c0-2,1.7-3.7,3.7-3.7S7.4,61,7.4,63"/>
	<path class="st0" d="M29.9,46c0,2-1.7,3.7-3.7,3.7s-3.7-1.7-3.7-3.7c0-2,1.7-3.7,3.7-3.7S29.9,44,29.9,46"/>
	<path class="st0" d="M70.4,14.4c0,2-1.7,3.7-3.7,3.7S63,16.4,63,14.4c0-2,1.7-3.7,3.7-3.7S70.4,12.3,70.4,14.4"/>
	<path class="st0" d="M60.3,14.4c0,2-1.7,3.7-3.7,3.7s-3.7-1.7-3.7-3.7c0-2,1.7-3.7,3.7-3.7S60.3,12.3,60.3,14.4"/>
	<path class="st0" d="M40,46c0,2-1.7,3.7-3.7,3.7s-3.7-1.7-3.7-3.7c0-2,1.7-3.7,3.7-3.7S40,44,40,46"/>
	<path class="st0" d="M19.9,46c0,2-1.7,3.7-3.7,3.7s-3.7-1.7-3.7-3.7c0-2,1.7-3.7,3.7-3.7S19.9,44,19.9,46"/>
	<path class="st0" d="M50.2,46c0,2-1.7,3.7-3.7,3.7s-3.7-1.7-3.7-3.7c0-2,1.7-3.7,3.7-3.7S50.2,44,50.2,46"/>
	<path class="st0" d="M40.2,36.1c0,2-1.7,3.7-3.7,3.7s-3.7-1.7-3.7-3.7c0-2,1.7-3.7,3.7-3.7S40.2,34.1,40.2,36.1"/>
	<path class="st0" d="M30.1,3.7c0,2-1.7,3.7-3.7,3.7s-3.7-1.7-3.7-3.7c0-2,1.7-3.7,3.7-3.7S30.1,1.7,30.1,3.7"/>
	<path class="st0" d="M30.1,36.1c0,2-1.7,3.7-3.7,3.7s-3.7-1.7-3.7-3.7c0-2,1.7-3.7,3.7-3.7S30.1,34.1,30.1,36.1"/>
	<path class="st0" d="M19.9,36.1c0,2-1.7,3.7-3.7,3.7s-3.7-1.7-3.7-3.7c0-2,1.7-3.7,3.7-3.7S19.9,34.1,19.9,36.1"/>
	<path class="st0" d="M16.2,56.2c0,2-1.7,3.7-3.7,3.7s-3.7-1.7-3.7-3.7c0-2,1.7-3.7,3.7-3.7S16.2,54.2,16.2,56.2"/>
	<path class="st0" d="M8.9,25.4c0,2-1.7,3.7-3.7,3.7s-3.7-1.7-3.7-3.7c0-2,1.7-3.7,3.7-3.7S8.9,23.4,8.9,25.4"/>
	<path class="st0" d="M8.9,36.1c0,2-1.7,3.7-3.7,3.7s-3.7-1.7-3.7-3.7c0-2,1.7-3.7,3.7-3.7S8.9,34.1,8.9,36.1"/>
	<path class="st0" d="M50.2,35.8c0,2-1.7,3.7-3.7,3.7s-3.7-1.7-3.7-3.7c0-2,1.7-3.7,3.7-3.7S50.2,33.8,50.2,35.8"/>
	<path class="st0" d="M50.2,14.4c0,2-1.7,3.7-3.7,3.7s-3.7-1.7-3.7-3.7c0-2,1.7-3.7,3.7-3.7S50.2,12.3,50.2,14.4"/>
	<path class="st0" d="M50.3,3.7c0,2-1.7,3.7-3.7,3.7s-3.7-1.7-3.7-3.7c0-2,1.7-3.7,3.7-3.7S50.3,1.7,50.3,3.7"/>
	<path class="st0" d="M40.2,14.4c0,2-1.7,3.7-3.7,3.7s-3.7-1.7-3.7-3.7c0-2,1.7-3.7,3.7-3.7S40.2,12.3,40.2,14.4"/>
	<path class="st0" d="M40.2,3.7c0,2-1.7,3.7-3.7,3.7s-3.7-1.7-3.7-3.7c0-2,1.7-3.7,3.7-3.7S40.2,1.7,40.2,3.7"/>
	<path class="st0" d="M29.9,14.4c0,2-1.7,3.7-3.7,3.7s-3.7-1.7-3.7-3.7c0-2,1.7-3.7,3.7-3.7S29.9,12.3,29.9,14.4"/>
	<path class="st0" d="M19.9,14.4c0,2-1.7,3.7-3.7,3.7s-3.7-1.7-3.7-3.7c0-2,1.7-3.7,3.7-3.7S19.9,12.3,19.9,14.4"/>
	<path class="st0" d="M121.4,76.7c0,2-1.7,3.7-3.7,3.7s-3.7-1.7-3.7-3.7c0-2,1.7-3.7,3.7-3.7S121.4,74.6,121.4,76.7"/>
	<path class="st0" d="M131.5,232.7c0,2-1.7,3.7-3.7,3.7c-2,0-3.7-1.7-3.7-3.7c0-2,1.7-3.7,3.7-3.7
		C129.8,229,131.5,230.6,131.5,232.7"/>
	<path class="st0" d="M141.1,232.7c0,2-1.7,3.7-3.7,3.7s-3.7-1.7-3.7-3.7c0-2,1.7-3.7,3.7-3.7S141.1,230.6,141.1,232.7"/>
	<path class="st0" d="M151.2,232.7c0,2-1.7,3.7-3.7,3.7s-3.7-1.7-3.7-3.7c0-2,1.7-3.7,3.7-3.7S151.2,230.6,151.2,232.7"/>
	<path class="st0" d="M161.3,232.7c0,2-1.7,3.7-3.7,3.7s-3.7-1.7-3.7-3.7c0-2,1.7-3.7,3.7-3.7S161.3,230.6,161.3,232.7"/>
	<path class="st0" d="M96.6,243.2c0,2-1.7,3.7-3.7,3.7s-3.7-1.7-3.7-3.7s1.7-3.7,3.7-3.7S96.6,241.1,96.6,243.2"/>
	<path class="st0" d="M111.3,243.2c0,2-1.7,3.7-3.7,3.7s-3.7-1.7-3.7-3.7s1.7-3.7,3.7-3.7S111.3,241.1,111.3,243.2"/>
	<path class="st0" d="M121.4,243.2c0,2-1.7,3.7-3.7,3.7s-3.7-1.7-3.7-3.7s1.7-3.7,3.7-3.7S121.4,241.1,121.4,243.2"/>
	<path class="st0" d="M131.5,243.2c0,2-1.7,3.7-3.7,3.7c-2,0-3.7-1.7-3.7-3.7s1.7-3.7,3.7-3.7C129.8,239.5,131.5,241.1,131.5,243.2"
		/>
	<path class="st0" d="M141.1,243.2c0,2-1.7,3.7-3.7,3.7s-3.7-1.7-3.7-3.7s1.7-3.7,3.7-3.7S141.1,241.1,141.1,243.2"/>
	<path class="st0" d="M151.2,243.2c0,2-1.7,3.7-3.7,3.7s-3.7-1.7-3.7-3.7s1.7-3.7,3.7-3.7S151.2,241.1,151.2,243.2"/>
	<path class="st0" d="M100.9,253.2c0,2-1.7,3.7-3.7,3.7s-3.7-1.7-3.7-3.7c0-2,1.7-3.7,3.7-3.7S100.9,251.2,100.9,253.2"/>
	<path class="st0" d="M106.1,262.9c0,2-1.7,3.7-3.7,3.7s-3.7-1.7-3.7-3.7c0-2,1.7-3.7,3.7-3.7S106.1,260.8,106.1,262.9"/>
	<path class="st0" d="M121.4,253c0,2-1.7,3.7-3.7,3.7s-3.7-1.7-3.7-3.7c0-2,1.7-3.7,3.7-3.7S121.4,251,121.4,253"/>
	<path class="st0" d="M131.5,253c0,2-1.7,3.7-3.7,3.7c-2,0-3.7-1.7-3.7-3.7c0-2,1.7-3.7,3.7-3.7C129.8,249.3,131.5,251,131.5,253"/>
	<path class="st0" d="M141.1,253c0,2-1.7,3.7-3.7,3.7s-3.7-1.7-3.7-3.7c0-2,1.7-3.7,3.7-3.7S141.1,251,141.1,253"/>
	<path class="st0" d="M151.2,253c0,2-1.7,3.7-3.7,3.7s-3.7-1.7-3.7-3.7c0-2,1.7-3.7,3.7-3.7S151.2,251,151.2,253"/>
	<path class="st0" d="M121.4,262.7c0,2-1.7,3.7-3.7,3.7s-3.7-1.7-3.7-3.7c0-2,1.7-3.7,3.7-3.7S121.4,260.7,121.4,262.7"/>
	<path class="st0" d="M131.5,262.7c0,2-1.7,3.7-3.7,3.7c-2,0-3.7-1.7-3.7-3.7c0-2,1.7-3.7,3.7-3.7
		C129.8,259,131.5,260.7,131.5,262.7"/>
	<path class="st0" d="M141.1,262.7c0,2-1.7,3.7-3.7,3.7s-3.7-1.7-3.7-3.7c0-2,1.7-3.7,3.7-3.7S141.1,260.7,141.1,262.7"/>
	<path class="st0" d="M151.2,262.7c0,2-1.7,3.7-3.7,3.7s-3.7-1.7-3.7-3.7c0-2,1.7-3.7,3.7-3.7S151.2,260.7,151.2,262.7"/>
	<path class="st0" d="M131.5,272c0,2-1.7,3.7-3.7,3.7c-2,0-3.7-1.7-3.7-3.7s1.7-3.7,3.7-3.7C129.8,268.3,131.5,270,131.5,272"/>
	<path class="st0" d="M141.1,272c0,2-1.7,3.7-3.7,3.7s-3.7-1.7-3.7-3.7s1.7-3.7,3.7-3.7S141.1,270,141.1,272"/>
	<path class="st0" d="M151.2,272c0,2-1.7,3.7-3.7,3.7s-3.7-1.7-3.7-3.7s1.7-3.7,3.7-3.7S151.2,270,151.2,272"/>
	<path class="st0" d="M161.3,272c0,2-1.7,3.7-3.7,3.7s-3.7-1.7-3.7-3.7s1.7-3.7,3.7-3.7S161.3,270,161.3,272"/>
	<path class="st0" d="M141.1,282.5c0,2-1.7,3.7-3.7,3.7s-3.7-1.7-3.7-3.7c0-2,1.7-3.7,3.7-3.7S141.1,280.5,141.1,282.5"/>
	<path class="st0" d="M151.2,282.5c0,2-1.7,3.7-3.7,3.7s-3.7-1.7-3.7-3.7c0-2,1.7-3.7,3.7-3.7S151.2,280.5,151.2,282.5"/>
	<path class="st0" d="M161.3,282.5c0,2-1.7,3.7-3.7,3.7s-3.7-1.7-3.7-3.7c0-2,1.7-3.7,3.7-3.7S161.3,280.5,161.3,282.5"/>
	<path class="st0" d="M151.2,292.5c0,2-1.7,3.7-3.7,3.7s-3.7-1.7-3.7-3.7c0-2,1.7-3.7,3.7-3.7S151.2,290.4,151.2,292.5"/>
	<path class="st0" d="M161.3,292.5c0,2-1.7,3.7-3.7,3.7s-3.7-1.7-3.7-3.7c0-2,1.7-3.7,3.7-3.7S161.3,290.4,161.3,292.5"/>
	<path class="st0" d="M191.9,282.5c0,2-1.7,3.7-3.7,3.7s-3.7-1.7-3.7-3.7c0-2,1.7-3.7,3.7-3.7S191.9,280.5,191.9,282.5"/>
	<path class="st0" d="M202.2,282.5c0,2-1.7,3.7-3.7,3.7s-3.7-1.7-3.7-3.7c0-2,1.7-3.7,3.7-3.7S202.2,280.5,202.2,282.5"/>
	<path class="st0" d="M202.2,272.2c0,2-1.7,3.7-3.7,3.7s-3.7-1.7-3.7-3.7c0-2,1.7-3.7,3.7-3.7S202.2,270.2,202.2,272.2"/>
	<path class="st0" d="M191.9,272c0,2-1.7,3.7-3.7,3.7s-3.7-1.7-3.7-3.7s1.7-3.7,3.7-3.7S191.9,270,191.9,272"/>
	<path class="st0" d="M191.9,292.5c0,2-1.7,3.7-3.7,3.7s-3.7-1.7-3.7-3.7c0-2,1.7-3.7,3.7-3.7S191.9,290.4,191.9,292.5"/>
</g>
</svg>
