<?xml version="1.0" encoding="utf-8"?>
<!-- Generator: Adobe Illustrator 22.1.0, SVG Export Plug-In . SVG Version: 6.00 Build 0)  -->
<svg version="1.1" id="Capa_1" xmlns="http://www.w3.org/2000/svg" xmlns:xlink="http://www.w3.org/1999/xlink" x="0px" y="0px"
	 viewBox="0 0 251.8 248.5" style="enable-background:new 0 0 251.8 248.5;" xml:space="preserve">
<style type="text/css">
	.st0{fill-opacity:0;}
	.st1{fill:#9C999F;}
</style>
<g>
	<g>
		<circle class="st0" cx="126.4" cy="123.8" r="120"/>
		<path class="st1" d="M126.4,245.8c-0.6,0-1-0.4-1-1s0.4-1,1-1c65.9,0,119.5-53.6,119.5-119.5S192.3,4.8,126.4,4.8h-0.5
			c-0.5,0-1-0.4-1-1s0.4-1,1-1h0.5c67,0,121.5,54.5,121.5,121.5S193.4,245.8,126.4,245.8z"/>
	</g>
	<g>
		<path class="st1" d="M186,125.6c-10-5-27.5-11.8-28.2-12.1l-0.4-0.2v-11.3c1.4-1,2.7-2.2,3.9-3.5c10.1-11,9.2-27.1,9.1-28.8v-7.1
			c1.9-0.8,3.3-1.8,4.3-3.1c1.4-1.9,1.4-3.6,1.2-4.5c-0.1-3.4-2.4-36.2-41.5-36.2c-12.9,0-22.9,3.7-29.6,11
			c-9.7,10.5-9,24.8-8.9,26.5c-0.1,2.3-0.1,11.5,4.5,14.8c0,4.5,0.9,17.8,9.9,27.3c1.3,1.3,2.7,2.5,4.1,3.6v11.2l-29.6,14.3
			c-0.3,0.1-3.9,2-6.9,6c-0.2,0.1-0.4,0.2-0.6,0.4c-0.5,0.5-0.8,1.1-0.8,1.7c-1.7,2.9-3,6.6-3,11.2v56c0,1.4,1.1,2.5,2.5,2.5
			s2.5-1.1,2.5-2.5v-56c0-2.5,0.5-4.6,1.2-6.5l16.7,18.5v44c0,1.4,1.1,2.5,2.5,2.5s2.5-1.1,2.5-2.5v-45c0-0.6-0.2-1.2-0.7-1.7
			l-18.3-20.2c2.2-2.6,4.5-3.8,4.6-3.8l27.4-13.3l19,19v65c0,1.4,1.1,2.5,2.5,2.5s2.5-1.1,2.5-2.5v-65l19.1-19.1
			c4.5,1.8,18.2,7.3,26.3,11.3c2.6,1.3,4.4,3.3,5.7,5.4l-19.4,21.7c-0.4,0.5-0.6,1.1-0.6,1.7v44c0,1.4,1.1,2.5,2.5,2.5
			s2.5-1.1,2.5-2.5v-43l17.2-19.2c0.8,2.9,0.8,5.2,0.8,5.3v57c0,1.4,1.1,2.5,2.5,2.5s2.5-1.1,2.5-2.5v-57
			C197.4,145.1,197.3,131.1,186,125.6z M105.4,72.2c4-0.8,8-4.9,10.9-8.3c0.9-1.1,0.8-2.6-0.3-3.5s-2.6-0.8-3.5,0.3
			c-6.3,7.4-8.7,6.7-8.9,6.6c-1.8-0.7-2.8-6.3-2.7-10.9v-0.2V56c0-0.1-1-13.6,7.6-22.9c5.7-6.2,14.4-9.4,25.9-9.4
			c36,0,36.5,30.2,36.5,31.5l-0.2,0.2l0.2,0.4c0,0.1-0.1,0.4-0.4,0.8c-0.9,0.9-4.1,3.1-15.1,3.1c-18.7,0-34.1-13.2-34.4-13.4
			c-1-0.9-2.6-0.8-3.5,0.2s-0.8,2.6,0.2,3.5c0.7,0.7,17,14.7,37.7,14.7c3.9,0,7.2-0.3,10-0.8v5.8v0.2c0,0.2,1.2,15.4-7.8,25.1
			c-5,5.4-12.3,8.2-21.7,8.2c-6.9,0-12.8-1.5-17.5-4.5c-0.1-0.1-0.3-0.2-0.4-0.3c-1.5-1-2.9-2.2-4.1-3.5
			C106.8,87.6,105.6,76.8,105.4,72.2z M119.3,116.6c0.1-0.3,0.1-0.5,0.1-0.8v-10.8c4.7,2.2,10.2,3.3,16.5,3.3s11.8-1.1,16.5-3.3
			v10.8c0,0.3,0.1,0.6,0.1,0.8l-16.6,16.6L119.3,116.6z"/>
	</g>
	<circle class="st1" cx="35.9" cy="44.8" r="3.5"/>
	<circle class="st1" cx="35.9" cy="202.8" r="3.5"/>
	<circle class="st1" cx="18.9" cy="72.3" r="3.5"/>
	<circle class="st1" cx="7.4" cy="106.8" r="3.5"/>
	<circle class="st1" cx="7.9" cy="144.8" r="3.5"/>
	<circle class="st1" cx="18.6" cy="177.8" r="3.5"/>
</g>
</svg>
