<?xml version="1.0" encoding="utf-8"?>
<!-- Generator: Adobe Illustrator 22.1.0, SVG Export Plug-In . SVG Version: 6.00 Build 0)  -->
<svg version="1.1" id="Capa_1" xmlns="http://www.w3.org/2000/svg" xmlns:xlink="http://www.w3.org/1999/xlink" x="0px" y="0px"
	 viewBox="0 0 50 50" style="enable-background:new 0 0 50 50;" xml:space="preserve">
<style type="text/css">
	.st0{fill:#FFFFFF;}
</style>
<g>
	<g>
		<path class="st0" d="M25,1C11.7,1,1,11.7,1,25s10.7,24,24,24s24-10.7,24-24S38.3,1,25,1z M17.7,40h-6.2V20h6.2V40z M14.6,17.2
			c-2,0-3.6-1.6-3.6-3.6s1.6-3.6,3.6-3.6s3.6,1.6,3.6,3.6S16.6,17.2,14.6,17.2z M41,40L41,40h-6.2v-9.7c0-2.3,0-5.3-3.2-5.3
			c-3.2,0-3.7,2.5-3.7,5.1V40h-6.2V20h6v2.7h0.1c0.8-1.6,2.9-3.2,5.9-3.2c6.3,0,7.5,4.1,7.5,9.5V40z"/>
	</g>
</g>
</svg>
