<?xml version="1.0" encoding="utf-8"?>
<!-- Generator: Adobe Illustrator 22.1.0, SVG Export Plug-In . SVG Version: 6.00 Build 0)  -->
<svg version="1.1" id="Capa_1" xmlns="http://www.w3.org/2000/svg" xmlns:xlink="http://www.w3.org/1999/xlink" x="0px" y="0px"
	 viewBox="0 0 454.5 99" style="enable-background:new 0 0 454.5 99;" xml:space="preserve">
<style type="text/css">
	.st0{fill:#898989;}
</style>
<g>
	<g transform="translate(85, 0)">
		<g>
			<path class="st0" d="M361.4,41.9c0.7,0.4,1.2,0.9,1.6,1.6c0.4,0.7,0.6,1.4,0.6,2.2s-0.2,1.5-0.6,2.2s-0.9,1.2-1.6,1.6
				c-0.7,0.4-1.4,0.6-2.2,0.6c-0.8,0-1.5-0.2-2.2-0.6c-0.7-0.4-1.2-0.9-1.6-1.6c-0.4-0.7-0.6-1.4-0.6-2.2s0.2-1.5,0.6-2.2
				s0.9-1.2,1.6-1.6c0.7-0.4,1.4-0.6,2.2-0.6C360,41.4,360.7,41.6,361.4,41.9z M361,49c0.6-0.3,1-0.8,1.4-1.4
				c0.3-0.6,0.5-1.2,0.5-1.9s-0.2-1.3-0.5-1.9c-0.3-0.6-0.8-1-1.4-1.4c-0.6-0.3-1.2-0.5-1.9-0.5c-0.7,0-1.3,0.2-1.9,0.5
				s-1,0.8-1.4,1.4c-0.3,0.6-0.5,1.2-0.5,1.9s0.2,1.3,0.5,1.9c0.3,0.6,0.8,1,1.4,1.4c0.6,0.3,1.2,0.5,1.9,0.5S360.5,49.4,361,49z
				 M360.8,45.8c-0.2,0.2-0.4,0.4-0.7,0.5l1.1,1.5h-0.7l-0.9-1.4c-0.1,0-0.1,0-0.2,0h-1.1v1.4h-0.6v-4.5h1.8c0.6,0,1,0.1,1.3,0.4
				c0.3,0.3,0.5,0.6,0.5,1.1C361,45.3,360.9,45.6,360.8,45.8z M359.2,46c0.4,0,0.7-0.1,0.9-0.3c0.2-0.2,0.3-0.4,0.3-0.8
				c0-0.3-0.1-0.6-0.3-0.7c-0.2-0.2-0.5-0.3-0.9-0.3h-1.1v2L359.2,46L359.2,46z"/>
		</g>
		<g>
			<path class="st0" d="M19,45c-1.8-0.5-3.4-0.8-4.8-0.8c-2,0-3.7,0.4-4.9,1.2s-1.8,1.9-1.8,3.2c0,1.2,0.4,2.2,1.1,3
				s1.6,1.4,2.7,1.9s2.6,1,4.5,1.6c2.4,0.7,4.3,1.4,5.8,2.1c1.5,0.7,2.7,1.7,3.8,3c1,1.3,1.6,3.1,1.6,5.2c0,2-0.5,3.8-1.6,5.3
				s-2.6,2.7-4.6,3.5s-4.2,1.2-6.7,1.2c-2.6,0-5.1-0.5-7.5-1.5s-4.5-2.3-6.3-4l2.2-4.2c1.7,1.6,3.5,2.9,5.6,3.8s4.1,1.3,6.1,1.3
				c2.3,0,4.2-0.5,5.5-1.4c1.4-0.9,2-2.2,2-3.7c0-1.2-0.4-2.3-1.1-3.1s-1.7-1.4-2.8-1.9c-1.1-0.5-2.6-1-4.5-1.6
				C11,58.4,9.1,57.7,7.6,57c-1.5-0.7-2.7-1.7-3.7-3s-1.5-3-1.5-5.2c0-1.9,0.5-3.5,1.6-5c1-1.4,2.5-2.5,4.4-3.3s4-1.2,6.5-1.2
				c2.1,0,4.2,0.3,6.2,0.9c2,0.6,3.8,1.4,5.4,2.5l-2,4.3C22.4,46.3,20.7,45.5,19,45z"/>
			<path class="st0" d="M53.6,52.1c2.1,2.4,3.2,5.8,3.2,10.1c0,0.7,0,1.2-0.1,1.5h-21c0.4,2.4,1.4,4.3,3,5.7c1.6,1.4,3.6,2.1,6,2.1
				c1.6,0,3-0.3,4.4-0.9s2.5-1.4,3.5-2.4l2.6,2.7c-1.3,1.4-2.9,2.5-4.7,3.3s-3.9,1.2-6.1,1.2c-2.6,0-4.9-0.6-6.9-1.7
				S33.9,71,32.8,69c-1.1-2-1.7-4.4-1.7-7s0.6-4.9,1.7-6.9c1.1-2,2.7-3.6,4.7-4.8s4.3-1.7,6.9-1.7C48.3,48.4,51.5,49.7,53.6,52.1z
				 M52.5,60.1c-0.1-2.4-0.9-4.3-2.4-5.7s-3.4-2.1-5.8-2.1c-2.3,0-4.3,0.7-5.8,2.1c-1.6,1.4-2.5,3.3-2.8,5.7H52.5z"/>
			<path class="st0" d="M81.3,75.1l-8.5-12.9l-5.2,5.4v7.5H63V37.9h4.7v23.7l12.8-13H86l-9.9,10.3l10.8,16.2
				C86.9,75.1,81.3,75.1,81.3,75.1z"/>
			<path class="st0" d="M110.3,52.1c2.1,2.4,3.2,5.8,3.2,10.1c0,0.7,0,1.2-0.1,1.5h-21c0.4,2.4,1.4,4.3,3,5.7c1.6,1.4,3.6,2.1,6,2.1
				c1.6,0,3-0.3,4.4-0.9s2.5-1.4,3.5-2.4l2.6,2.7c-1.3,1.4-2.9,2.5-4.7,3.3c-1.8,0.8-3.9,1.2-6.1,1.2c-2.6,0-4.9-0.6-6.9-1.7
				S90.6,71,89.5,69s-1.7-4.4-1.7-7s0.6-4.9,1.7-6.9s2.7-3.6,4.7-4.8s4.3-1.7,6.9-1.7C105.1,48.4,108.2,49.7,110.3,52.1z
				 M109.2,60.1c-0.1-2.4-0.9-4.3-2.4-5.7s-3.4-2.1-5.8-2.1c-2.3,0-4.3,0.7-5.8,2.1c-1.6,1.4-2.5,3.3-2.8,5.7H109.2z"/>
			<path class="st0" d="M119.7,37.9h4.7v37.2h-4.7V37.9z"/>
			<path class="st0" d="M133.6,37.9h4.7v37.2h-4.7V37.9z"/>
			<path class="st0" d="M186.6,75.1l-3.7-8.5h-18.5l-3.7,8.5h-5.1L171.2,40h5l15.5,35.1H186.6z M166.3,62.2H181l-7.4-17L166.3,62.2z
				"/>
			<path class="st0" d="M219.4,37.9v37.2h-4.7v-5.3c-1,1.8-2.3,3.1-4,4.1s-3.6,1.4-5.9,1.4c-2.5,0-4.7-0.6-6.6-1.7
				c-1.9-1.2-3.4-2.8-4.5-4.8c-1.1-2.1-1.6-4.4-1.6-7s0.5-4.9,1.6-6.9s2.6-3.6,4.5-4.7c1.9-1.1,4.1-1.7,6.6-1.7c2.3,0,4.3,0.5,6,1.4
				s3,2.3,4,4.1V37.9H219.4z M210.5,70.1c1.4-0.8,2.4-1.9,3.2-3.4c0.8-1.4,1.2-3.1,1.2-4.9c0-1.8-0.4-3.5-1.2-4.9s-1.8-2.6-3.2-3.4
				s-2.9-1.2-4.6-1.2c-1.7,0-3.3,0.4-4.6,1.2c-1.4,0.8-2.4,1.9-3.2,3.4c-0.8,1.4-1.2,3.1-1.2,4.9s0.4,3.4,1.2,4.9
				c0.8,1.4,1.8,2.6,3.2,3.4s2.9,1.2,4.6,1.2C207.6,71.3,209.1,70.9,210.5,70.1z"/>
			<path class="st0" d="M224.1,48.6h5l8,21.9l7.9-21.9h4.7l-10.3,26.5h-4.9L224.1,48.6z"/>
			<path class="st0" d="M258,38.9c0.6,0.6,0.8,1.3,0.8,2.2s-0.3,1.6-0.8,2.2c-0.6,0.6-1.2,0.9-2.1,0.9c-0.8,0-1.5-0.3-2.1-0.9
				c-0.6-0.6-0.8-1.3-0.8-2.2s0.3-1.6,0.8-2.2c0.6-0.6,1.2-0.9,2.1-0.9C256.8,38,257.5,38.3,258,38.9z M253.7,48.6h4.7v26.5h-4.7
				V48.6z"/>
			<path class="st0" d="M277.9,52.9c-1.3-0.4-2.6-0.6-3.8-0.6c-1.4,0-2.5,0.3-3.4,0.8s-1.3,1.3-1.3,2.4s0.5,1.9,1.4,2.4
				c1,0.6,2.4,1.1,4.3,1.7c1.8,0.5,3.3,1.1,4.5,1.6s2.2,1.3,3,2.4c0.8,1,1.2,2.4,1.2,4.1c0,2.5-0.9,4.4-2.8,5.7s-4.2,2-7,2
				c-2,0-3.9-0.3-5.7-1c-1.9-0.6-3.4-1.5-4.7-2.7l1.8-3.4c1.1,1,2.5,1.8,4.1,2.4s3.2,0.9,4.7,0.9s2.8-0.3,3.7-0.9
				c0.9-0.6,1.4-1.4,1.4-2.6s-0.5-2.1-1.5-2.7s-2.5-1.2-4.5-1.8c-1.8-0.5-3.2-1-4.3-1.5c-1.1-0.5-2.1-1.3-2.9-2.3s-1.2-2.3-1.2-3.9
				c0-2.5,0.9-4.3,2.7-5.6c1.8-1.2,4.1-1.9,6.8-1.9c1.6,0,3.2,0.2,4.7,0.7c1.6,0.5,2.9,1.1,4,1.8l-1.7,3.6
				C280.4,53.8,279.2,53.3,277.9,52.9z"/>
			<path class="st0" d="M309.7,52.1c2.1,2.4,3.2,5.8,3.2,10.1c0,0.7,0,1.2,0,1.5H292c0.4,2.4,1.4,4.3,3,5.7c1.6,1.4,3.6,2.1,6,2.1
				c1.6,0,3-0.3,4.4-0.9s2.5-1.4,3.5-2.4l2.6,2.7c-1.3,1.4-2.9,2.5-4.7,3.3c-1.8,0.8-3.9,1.2-6.1,1.2c-2.6,0-4.9-0.6-6.9-1.7
				s-3.6-2.7-4.7-4.7s-1.7-4.4-1.7-7s0.6-4.9,1.7-6.9s2.7-3.6,4.7-4.8s4.3-1.7,6.9-1.7C304.5,48.4,307.6,49.7,309.7,52.1z
				 M308.6,60.1c-0.1-2.4-0.9-4.3-2.4-5.7s-3.4-2.1-5.8-2.1c-2.3,0-4.3,0.7-5.8,2.1c-1.6,1.4-2.5,3.3-2.8,5.7H308.6z"/>
			<path class="st0" d="M327.2,50c1.6-1,3.5-1.5,5.7-1.5V53c-2.7-0.1-4.9,0.6-6.6,2.1s-2.6,3.5-2.9,6.1v14h-4.7V48.6h4.7v5.7
				C324.4,52.4,325.6,51,327.2,50z"/>
			<path class="st0" d="M348.5,52.9c-1.3-0.4-2.6-0.6-3.8-0.6c-1.4,0-2.5,0.3-3.4,0.8s-1.3,1.3-1.3,2.4s0.5,1.9,1.4,2.4
				c1,0.6,2.4,1.1,4.3,1.7c1.8,0.5,3.3,1.1,4.5,1.6s2.2,1.3,3,2.4c0.8,1,1.2,2.4,1.2,4.1c0,2.5-0.9,4.4-2.8,5.7s-4.2,2-7,2
				c-2,0-3.9-0.3-5.7-1c-1.9-0.6-3.4-1.5-4.7-2.7l1.8-3.4c1.1,1,2.5,1.8,4.1,2.4s3.2,0.9,4.7,0.9s2.8-0.3,3.7-0.9
				c0.9-0.6,1.4-1.4,1.4-2.6s-0.5-2.1-1.5-2.7s-2.5-1.2-4.5-1.8c-1.8-0.5-3.2-1-4.3-1.5c-1.1-0.5-2.1-1.3-2.9-2.3s-1.2-2.3-1.2-3.9
				c0-2.5,0.9-4.3,2.7-5.6c1.8-1.2,4.1-1.9,6.8-1.9c1.6,0,3.2,0.2,4.7,0.7c1.6,0.5,2.9,1.1,4,1.8l-1.7,3.6
				C351,53.8,349.8,53.3,348.5,52.9z"/>
		</g>
	</g>
	<g transform="translate(-360)">
		<path class="st0" d="M361.9,85.4l10.3,11.8l19.2,1.8l10.2-2l3.3,2h22.5l-3.5-4.2l-4.3-2.2l3.9-6l-2-9.6l1.9-1.4l5.2,23.5h14
			l-2.3-3.4l-4.6-2.9l-1.9-29.9l4.7-19.6l-4.3-14.5l1-9.1l-1.7-0.6l1.6-7.3c0-0.2,0-0.5-0.2-0.7l-1.7-1.8c-0.3-0.4-0.8-0.4-1.1-0.1
			l-2.5,2.2l0.3-5.9c0-0.2-0.1-0.3-0.2-0.5l-3.5-4.7c-0.1-0.2-0.4-0.3-0.7-0.3s-0.5,0.2-0.7,0.5l-6.7,13.2l-1-0.4l-4.9,5.8l0,0
			l-11,6c-0.3,0.1-0.4,0.5-0.4,0.8c0,0.3,0.3,0.6,0.6,0.7l8.6,2.2L407.8,39l-18.1,24.8l-1.1,21.6l-7.1,3.4L361.9,85.4z M389.3,97.2
			l-14.7-1.4l6.8-5.3L389.3,97.2z M372.7,95.2l-6.5-7.4l13.1,2.3L372.7,95.2z M389.4,86.8h0.1l11.2,8.7l-8.9,1.7l0,0l-8.7-7.4
			L389.4,86.8z M413.1,97l-22.8-11.6l-0.1-0.1l1-20.2l30.3,21.5l-0.6,1l0,0L413.1,97z M421.4,84.6l-29.6-21l9.3-12.9l18.7,26.1
			L421.4,84.6z M403.7,25.5l7.9-4.3l-1.3,6L403.7,25.5z M417.7,15.3l15.7,5.5l-0.8,7.2l-23,10.4l4-18.4L417.7,15.3z M431.8,18.4
			l-12.2-4.3l6-11.8l2.5,3.4l-0.4,7.5c0,0.4,0.2,0.7,0.5,0.8c0.3,0.2,0.7,0.1,0.9-0.1l3.4-3l0.8,0.9L431.8,18.4z M436.5,42.5
			L403,48.1l5.4-7.5l0,0l24.3-11L436.5,42.5z M432.5,60.9l-8.8-14.6l12.8-2.1L432.5,60.9z M424.6,73.9l7.7-8l1,16.6l-8.7-8.3V73.9z
			 M439.5,97.2h-8.6l3.7-3.3l4.6,2.9L439.5,97.2z M425.3,77l8.2,7.8l0,0l0.5,7.6l-4.4,4L425.3,77z M420.8,75.4l-18.3-25.6l19.7-3.3
			l-0.1,0.1l10,16.6l0,0v0.5L422,74.4l0,0L420.8,75.4z M424.1,97.3h-9l3.4-3.5l4.6,2.3L424.1,97.3z M405.4,97.3l-8.7-6.9l13.6,6.9
			H405.4z"/>
	</g>
</g>
</svg>
