<?xml version="1.0" encoding="utf-8"?>
<!-- Generator: Adobe Illustrator 22.1.0, SVG Export Plug-In . SVG Version: 6.00 Build 0)  -->
<svg version="1.1" id="Capa_1" xmlns="http://www.w3.org/2000/svg" xmlns:xlink="http://www.w3.org/1999/xlink" x="0px" y="0px"
	 viewBox="0 0 50 50" style="enable-background:new 0 0 50 50;" xml:space="preserve">
<style type="text/css">
	.st0{fill:#FFFFFF;}
</style>
<g>
	<g>
		<ellipse transform="matrix(0.3827 -0.9239 0.9239 0.3827 -3.3526 35.6491)" class="st0" cx="25" cy="20.3" rx="5.8" ry="5.8"/>
	</g>
	<g>
		<path class="st0" d="M25,1C11.7,1,1,11.7,1,25s10.7,24,24,24s24-10.7,24-24S38.3,1,25,1z M26.4,42.9c-0.7,1-2.2,1-2.9,0
			C13,27.6,11,26,11,20.3c0-7.7,6.3-14,14-14c7.7,0,14,6.3,14,14C39,26,37,27.6,26.4,42.9z"/>
	</g>
</g>
</svg>
